SplineFontDB: 3.2
FontName: Giphurs-Black
FullName: Giphurs Black
FamilyName: Giphurs
Weight: Black
Copyright: Copyright 2023 The Giphurs Project Authors (https://github.com/Corne2Plum3/Giphurs)
UComments: "2023-01-20: Finally found a name for the font lol+AAoA-2022-06-21: Created with FontForge (http://fontforge.org)"
Version: 000.910
ItalicAngle: 0
UnderlinePosition: -204
UnderlineWidth: 102
Ascent: 1668
Descent: 380
InvalidEm: 0
LayerCount: 4
Layer: 0 0 "Back" 1
Layer: 1 0 "Fore" 0
Layer: 2 0 "Back 3" 1
Layer: 3 0 "Back 8" 1
XUID: [1021 347 -1220005877 17853]
StyleMap: 0x0040
FSType: 0
OS2Version: 0
OS2_WeightWidthSlopeOnly: 0
OS2_UseTypoMetrics: 1
CreationTime: 1655845567
ModificationTime: 1714765575
PfmFamily: 33
TTFWeight: 900
TTFWidth: 5
LineGap: 0
VLineGap: 0
OS2TypoAscent: 2218
OS2TypoAOffset: 0
OS2TypoDescent: -578
OS2TypoDOffset: 0
OS2TypoLinegap: 0
OS2WinAscent: 2218
OS2WinAOffset: 0
OS2WinDescent: 578
OS2WinDOffset: 0
HheadAscent: 2218
HheadAOffset: 0
HheadDescent: -578
HheadDOffset: 0
OS2CapHeight: 1480
OS2XHeight: 1040
OS2Vendor: 'PfEd'
Lookup: 1 0 0 "'c2sc' Capitales vers petites capitales dans Latin lookup 0" { "sous-table 'c2sc' Capitales vers petites capitales dans Latin lookup 0"  } ['c2sc' ('grek' <'dflt' > 'latn' <'dflt' > ) ]
Lookup: 1 0 0 "'c2pc' Capitales vers tr+AOgA-s petites capitales dans Latin lookup 0" { "sous-table 'c2pc' Capitales vers tr+AOgA-s petites capitales dans Latin lookup 0"  } ['c2pc' ('latn' <'dflt' > ) ]
Lookup: 1 0 0 "'smcp' Bas-de-casse vers petites capitales dans Latin lookup 0" { "sous-table 'smcp' Bas-de-casse vers petites capitales dans Latin lookup 0"  } ['smcp' ('grek' <'dflt' > 'latn' <'dflt' > ) ]
Lookup: 1 0 0 "'pcap' Bas-de-casse vers tr+AOgA-s petites capitales dans Latin lookup 0" { "sous-table 'pcap' Bas-de-casse vers tr+AOgA-s petites capitales dans Latin lookup 0"  } ['pcap' ('latn' <'dflt' > ) ]
Lookup: 1 0 0 "Soft dotted i substitutions" { "Soft dotted i substitutions lookups0-1"  } []

StartChar: o
Encoding: 111 111 0
Width: 1200
VWidth: 1000
Flags: HMW
AnchorPoint: "bottom_right" 791 0 basechar 0
AnchorPoint: "top_right" 1092 1040 basechar 0
AnchorPoint: "bottom_center" 600 0 basechar 0
AnchorPoint: "top_center" 600 1040 basechar 0
LayerCount: 3
Fore
SplineSet
410 520 m 0
 410 390 463 290 600 290 c 0
 737 290 790 383 790 520 c 0
 790 657 737 750 600 750 c 0
 463 750 410 657 410 520 c 0
50 520 m 0
 50 840 280 1070 600 1070 c 0
 920 1070 1150 840 1150 520 c 0
 1150 200 920 -30 600 -30 c 0
 280 -30 50 200 50 520 c 0
EndSplineSet
Substitution2: "sous-table 'smcp' Bas-de-casse vers petites capitales dans Latin lookup 0" o.sc
Colour: ff00
EndChar

StartChar: n
Encoding: 110 110 1
Width: 1192
VWidth: 1000
Flags: HMW
AnchorPoint: "bottom_center" 596 0 basechar 0
AnchorPoint: "top_center" 596 1040 basechar 0
LayerCount: 3
Fore
SplineSet
762 0 m 1
 762 572 l 2
 762 682 726 750 596 750 c 0
 466 750 430 682 430 572 c 2
 430 0 l 1
 70 0 l 1
 70 1040 l 1
 418 1040 l 1
 418 920 l 1
 453 981 542 1070 692 1070 c 0
 956 1070 1122 892 1122 572 c 1
 1122 0 l 1
 762 0 l 1
EndSplineSet
Substitution2: "sous-table 'smcp' Bas-de-casse vers petites capitales dans Latin lookup 0" n.sc
Colour: ff00
EndChar

StartChar: u
Encoding: 117 117 2
Width: 1192
VWidth: 1000
Flags: HMW
AnchorPoint: "top_center" 596 1040 basechar 0
AnchorPoint: "top_right" 1122 1040 basechar 0
AnchorPoint: "bottom_center" 596 0 basechar 0
AnchorPoint: "bottom_right" 1146 0 basechar 0
LayerCount: 3
Fore
SplineSet
430 1040 m 1
 430 468 l 2
 430 358 466 290 596 290 c 0
 726 290 762 358 762 468 c 2
 762 1040 l 1
 1122 1040 l 1
 1122 168 l 1
 1122 66 1146 0 1146 0 c 1
 797 0 l 1
 797 0 773 60 773 120 c 1
 738 59 650 -30 500 -30 c 0
 236 -30 70 148 70 468 c 1
 70 1040 l 1
 430 1040 l 1
EndSplineSet
Substitution2: "sous-table 'smcp' Bas-de-casse vers petites capitales dans Latin lookup 0" u.sc
Substitution2: "'ss05' Simplified u lookups0-1" u.ss05
Colour: ff00
EndChar

StartChar: d
Encoding: 100 100 3
Width: 1250
VWidth: 1000
Flags: HMW
AnchorPoint: "bottom_cedilla" 555 -20 basechar 0
AnchorPoint: "bottom_center" 555 0 basechar 0
AnchorPoint: "top_center" 1000 1380 basechar 0
AnchorPoint: "top_right" 1180 1480 basechar 0
LayerCount: 3
Fore
SplineSet
820 510 m 0
 820 640 757 750 620 750 c 0
 483 750 410 650 410 520 c 0
 410 390 483 290 620 290 c 0
 751 290 820 380 820 510 c 0
1180 168 m 1
 1180 66 1204 0 1204 0 c 1
 856 0 l 1
 856 0 832 60 832 120 c 1
 832 80 705 -30 555 -30 c 0
 235 -30 50 200 50 520 c 0
 50 840 235 1070 555 1070 c 0
 705 1070 810 959 820 920 c 1
 820 1480 l 1
 1180 1480 l 1
 1180 168 l 1
EndSplineSet
Substitution2: "sous-table 'smcp' Bas-de-casse vers petites capitales dans Latin lookup 0" d.sc
Colour: ff00
EndChar

StartChar: b
Encoding: 98 98 4
Width: 1250
VWidth: 1000
Flags: HMW
AnchorPoint: "bottom_center" 695 0 basechar 0
AnchorPoint: "top_center" 250 1380 basechar 0
LayerCount: 3
Fore
SplineSet
430 510 m 0
 430 380 499 290 630 290 c 0
 767 290 840 390 840 520 c 0
 840 650 767 750 630 750 c 0
 493 750 430 640 430 510 c 0
70 168 m 1
 70 1480 l 1
 430 1480 l 5
 430 920 l 5
 440 959 545 1070 695 1070 c 4
 1015 1070 1200 840 1200 520 c 0
 1200 200 1015 -30 695 -30 c 0
 545 -30 418 80 418 120 c 1
 418 0 l 1
 70 0 l 1
 70 0 70 66 70 168 c 1
EndSplineSet
Substitution2: "sous-table 'smcp' Bas-de-casse vers petites capitales dans Latin lookup 0" b.sc
Colour: ff00
EndChar

StartChar: p
Encoding: 112 112 5
Width: 1250
VWidth: 1000
Flags: HMW
AnchorPoint: "bottom_center" 250 -360 basechar 0
AnchorPoint: "top_center" 630 1040 basechar 0
LayerCount: 3
Fore
SplineSet
430 530 m 0
 430 400 493 290 630 290 c 0
 767 290 840 390 840 520 c 0
 840 650 767 750 630 750 c 0
 499 750 430 660 430 530 c 0
70 872 m 1
 70 974 70 1040 70 1040 c 1
 418 1040 l 1
 418 920 l 1
 418 960 545 1070 695 1070 c 0
 1015 1070 1200 840 1200 520 c 0
 1200 200 1015 -30 695 -30 c 0
 545 -30 440 81 430 120 c 1
 430 -440 l 1
 70 -440 l 1
 70 872 l 1
EndSplineSet
Substitution2: "sous-table 'smcp' Bas-de-casse vers petites capitales dans Latin lookup 0" p.sc
Colour: ff00
EndChar

StartChar: q
Encoding: 113 113 6
Width: 1250
VWidth: 1000
Flags: HMW
AnchorPoint: "bottom_center" 1000 -360 basechar 0
AnchorPoint: "top_center" 620 1040 basechar 0
LayerCount: 3
Fore
SplineSet
820 530 m 4
 820 660 751 750 620 750 c 4
 483 750 410 650 410 520 c 4
 410 390 483 290 620 290 c 4
 757 290 820 400 820 530 c 4
1180 872 m 5
 1180 -440 l 5
 820 -440 l 5
 820 120 l 5
 810 81 705 -30 555 -30 c 4
 235 -30 50 200 50 520 c 4
 50 840 235 1070 555 1070 c 4
 705 1070 832 960 832 920 c 5
 832 1040 l 5
 1180 1040 l 5
 1180 1040 1180 974 1180 872 c 5
EndSplineSet
Substitution2: "sous-table 'smcp' Bas-de-casse vers petites capitales dans Latin lookup 0" q.sc
Colour: ff00
EndChar

StartChar: h
Encoding: 104 104 7
Width: 1192
VWidth: 1000
Flags: HMW
AnchorPoint: "bottom_cedilla" 250 -20 basechar 0
AnchorPoint: "bottom_center" 596 0 basechar 0
AnchorPoint: "top_center" 250 1380 basechar 0
LayerCount: 3
Fore
SplineSet
762 0 m 1
 762 572 l 2
 762 682 726 750 596 750 c 0
 466 750 430 682 430 572 c 2
 430 0 l 1
 70 0 l 1
 70 1480 l 1
 418 1480 l 1
 418 920 l 1
 453 981 542 1070 692 1070 c 0
 956 1070 1122 892 1122 572 c 1
 1122 0 l 1
 762 0 l 1
EndSplineSet
Substitution2: "sous-table 'smcp' Bas-de-casse vers petites capitales dans Latin lookup 0" h.sc
Colour: ff00
EndChar

StartChar: m
Encoding: 109 109 8
Width: 1644
VWidth: 1000
Flags: HMW
AnchorPoint: "bottom_center" 822 0 basechar 0
AnchorPoint: "top_center" 822 1040 basechar 0
LayerCount: 3
Fore
SplineSet
642 0 m 1
 642 572 l 2
 642 682 636 750 536 750 c 0
 436 750 430 682 430 572 c 2
 430 0 l 1
 70 0 l 1
 70 1040 l 1
 418 1040 l 1
 418 920 l 1
 418 920 482 1070 632 1070 c 0
 765.48828125 1070 858.581054688 1024.49121094 918 938.126953125 c 1
 977.418945312 1024.49121094 1070.51171875 1070 1204 1070 c 0
 1468 1070 1574 892 1574 572 c 2
 1574 0 l 1
 1214 0 l 1
 1214 572 l 2
 1214 682 1208 750 1108 750 c 0
 1008 750 1002 682 1002 572 c 2
 1002 0 l 1
 642 0 l 1
EndSplineSet
Substitution2: "sous-table 'smcp' Bas-de-casse vers petites capitales dans Latin lookup 0" m.sc
Colour: ff00
EndChar

StartChar: e
Encoding: 101 101 9
Width: 1200
VWidth: 1000
Flags: HMW
AnchorPoint: "bottom_cedilla" 600 -20 basechar 0
AnchorPoint: "bottom_right" 803 0 basechar 0
AnchorPoint: "bottom_center" 600 0 basechar 0
AnchorPoint: "top_center" 600 1040 basechar 0
LayerCount: 4
Fore
SplineSet
176 660 m 1
 1082 660 l 1
 780 400 l 1
 176 400 l 1
 176 660 l 1
789 368 m 1
 1096 242 l 1
 1004 65 822 -30 600 -30 c 0
 279 -30 50 200 50 520 c 0
 50 840 280 1070 600 1070 c 0
 920 1070 1150 840 1150 520 c 0
 1150 479 1145 438 1138 400 c 1
 780 400 l 1
 794 435 820 476 820 520 c 0
 820 657 737 750 600 750 c 0
 463 750 370 657 370 520 c 0
 370 390 462 290 600 290 c 0
 714 290 771 329 789 368 c 1
EndSplineSet
Substitution2: "sous-table 'smcp' Bas-de-casse vers petites capitales dans Latin lookup 0" e.sc
Colour: ff00
EndChar

StartChar: c
Encoding: 99 99 10
Width: 1139
VWidth: 1000
Flags: HMW
AnchorPoint: "top_center" 600 1040 basechar 0
AnchorPoint: "bottom_center" 602 0 basechar 0
AnchorPoint: "bottom_cedilla" 602 -20 basechar 0
LayerCount: 4
Fore
SplineSet
410 520 m 0
 410 383 465 290 602 290 c 0
 706 290 761 344 782 430 c 1
 1089 252 l 1
 1001 79 823 -30 602 -30 c 0
 282 -30 50 200 50 520 c 0
 50 840 280 1070 600 1070 c 0
 821 1070 999 961 1087 788 c 1
 780 610 l 1
 759 696 704 750 600 750 c 0
 463 750 410 657 410 520 c 0
EndSplineSet
Substitution2: "sous-table 'smcp' Bas-de-casse vers petites capitales dans Latin lookup 0" c.sc
Colour: ff00
EndChar

StartChar: f
Encoding: 102 102 11
Width: 1058
VWidth: 1000
Flags: HMW
AnchorPoint: "top_center" 663 1380 basechar 0
AnchorPoint: "bottom_center" 457 0 basechar 0
LayerCount: 3
Fore
SplineSet
942 1135 m 5
 910 1167 835 1190 775 1190 c 4
 685 1190 637 1150 637 1050 c 5
 637 1040 l 1
 942 1040 l 1
 942 720 l 1
 637 720 l 1
 637 0 l 25
 277 0 l 25
 277 720 l 1
 25 720 l 1
 25 1040 l 1
 277 1040 l 1
 277 1050 l 5
 277 1330 411 1510 771 1510 c 4
 892 1510 977 1482 1033 1458 c 5
 942 1135 l 5
EndSplineSet
Substitution2: "sous-table 'smcp' Bas-de-casse vers petites capitales dans Latin lookup 0" f.sc
Substitution2: "'ss06' f ligatures lookups0-1" f.ss06
Colour: ff00
EndChar

StartChar: r
Encoding: 114 114 12
Width: 887
VWidth: 1000
Flags: HMW
AnchorPoint: "bottom_center" 250 0 basechar 0
AnchorPoint: "top_center" 490 1040 basechar 0
LayerCount: 3
Fore
SplineSet
775 691 m 5
 737 730 679 750 596 750 c 4
 466 750 430 682 430 572 c 2
 430 0 l 1
 70 0 l 1
 70 1040 l 1
 418 1040 l 1
 418 920 l 1
 453 981 542 1070 692 1070 c 4
 763 1070 826 1058 882 1034 c 5
 775 691 l 5
EndSplineSet
Substitution2: "sous-table 'smcp' Bas-de-casse vers petites capitales dans Latin lookup 0" r.sc
Colour: ff00
EndChar

StartChar: t
Encoding: 116 116 13
Width: 1058
VWidth: 1000
Flags: HMW
AnchorPoint: "bottom_cedilla" 640 -20 basechar 0
AnchorPoint: "bottom_center" 557 0 basechar 0
AnchorPoint: "top_center" 457 1380 basechar 0
LayerCount: 3
Fore
SplineSet
97 1028 m 1
 217 1028 301 1106 301 1226 c 1
 301 1320 l 1
 637 1320 l 1
 637 1040 l 1
 942 1040 l 1
 942 720 l 1
 637 720 l 5
 637 440 l 6
 637 340 685 290 775 290 c 4
 835 290 910 313 942 345 c 5
 1033 22 l 5
 977 -2 892 -30 771 -30 c 4
 411 -30 277 160 277 440 c 6
 277 720 l 5
 25 720 l 1
 25 1028 l 1
 97 1028 l 1
EndSplineSet
Substitution2: "sous-table 'smcp' Bas-de-casse vers petites capitales dans Latin lookup 0" t.sc
Substitution2: "'ss06' f ligatures lookups0-1" t.ss06
Colour: ff00
EndChar

StartChar: v
Encoding: 118 118 14
Width: 1174
VWidth: 1000
Flags: HMW
AnchorPoint: "bottom_center" 587 0 basechar 0
AnchorPoint: "top_center" 587 1040 basechar 0
LayerCount: 3
Fore
SplineSet
595 404 m 1
 755 1040 l 1
 1139 1040 l 1
 784 0 l 1
 390 0 l 1
 35 1040 l 1
 419 1040 l 1
 595 404 l 1
EndSplineSet
Substitution2: "sous-table 'smcp' Bas-de-casse vers petites capitales dans Latin lookup 0" v.sc
Colour: ff00
EndChar

StartChar: w
Encoding: 119 119 15
Width: 1832
VWidth: 1000
Flags: HMW
AnchorPoint: "bottom_center" 911 0 basechar 0
AnchorPoint: "top_center" 911 1040 basechar 0
LayerCount: 3
Fore
SplineSet
329 0 m 1
 35 1040 l 1
 415 1040 l 1
 560 440 l 1
 731 1040 l 1
 1091 1040 l 1
 1272 440 l 1
 1417 1040 l 1
 1797 1040 l 1
 1503 0 l 1
 1071 0 l 1
 911 540 l 1
 751 0 l 1
 329 0 l 1
EndSplineSet
Substitution2: "sous-table 'smcp' Bas-de-casse vers petites capitales dans Latin lookup 0" w.sc
Colour: ff00
EndChar

StartChar: x
Encoding: 120 120 16
Width: 1212
Flags: HMW
AnchorPoint: "bottom_center" 606 0 basechar 0
AnchorPoint: "top_center" 606 1040 basechar 0
LayerCount: 3
Fore
SplineSet
349 520 m 5
 35 1040 l 5
 452 1040 l 5
 606 743 l 5
 757 1040 l 5
 1177 1040 l 5
 863 520 l 5
 1177 0 l 5
 757 0 l 5
 604 300 l 5
 455 0 l 5
 35 0 l 5
 349 520 l 5
EndSplineSet
Substitution2: "sous-table 'smcp' Bas-de-casse vers petites capitales dans Latin lookup 0" x.sc
Colour: ff00
EndChar

StartChar: y
Encoding: 121 121 17
Width: 1216
VWidth: 1000
Flags: HMW
AnchorPoint: "bottom_center" 374 -360 basechar 0
AnchorPoint: "top_center" 629 1040 basechar 0
LayerCount: 3
Back
SplineSet
662 680 m 1
 851 680 l 1
 486 -360 l 1
 302 -360 l 1
 662 680 l 1
EndSplineSet
Fore
SplineSet
772 -158 m 1
 690 -384 581 -470 302 -470 c 0
 181 -470 91 -439 35 -415 c 1
 131 -95 l 1
 163 -127 242 -150 302 -150 c 0
 362 -150 416 -107 431 -44 c 1
 443 0 l 5
 77 1040 l 5
 461 1040 l 5
 637 404 l 5
 797 1040 l 5
 1181 1040 l 5
 826 0 l 5
 772 -158 l 1
EndSplineSet
Substitution2: "sous-table 'smcp' Bas-de-casse vers petites capitales dans Latin lookup 0" y.sc
Colour: ff00
EndChar

StartChar: l
Encoding: 108 108 20
Width: 665
Flags: HMW
AnchorPoint: "bottom_center" 351 0 basechar 0
AnchorPoint: "top_center" 250 1380 basechar 0
LayerCount: 3
Fore
SplineSet
560 306 m 5
 660 14 l 5
 634 1 586 -30 498 -30 c 4
 314 -30 70 62 70 362 c 6
 70 440 l 1
 70 578 l 1
 70 1480 l 1
 430 1480 l 1
 430 578 l 1
 430 440 l 1
 430 362 l 6
 430 312 446 290 498 290 c 4
 517 290 547 297 560 306 c 5
EndSplineSet
Substitution2: "sous-table 'smcp' Bas-de-casse vers petites capitales dans Latin lookup 0" l.sc
Substitution2: "'ss06' f ligatures lookups0-1" l.ss06
Colour: ff00
EndChar

StartChar: k
Encoding: 107 107 21
Width: 1163
Flags: HMW
AnchorPoint: "bottom_center" 584 0 basechar 0
AnchorPoint: "top_center" 250 1380 basechar 0
LayerCount: 3
Fore
SplineSet
285 643 m 1
 682 660 l 1
 1158 0 l 1
 738 0 l 1
 285 643 l 1
430 344 m 1
 430 0 l 1
 70 0 l 1
 70 1480 l 1
 430 1480 l 1
 430 808 l 1
 662 1040 l 1
 734 1040 1054 1040 1126 1040 c 1
 430 344 l 1
EndSplineSet
Substitution2: "sous-table 'smcp' Bas-de-casse vers petites capitales dans Latin lookup 0" k.sc
Colour: ff00
EndChar

StartChar: s
Encoding: 115 115 22
Width: 1066
VWidth: 1000
Flags: HMW
AnchorPoint: "top_center" 529 1040 basechar 0
AnchorPoint: "bottom_center" 529 0 basechar 0
AnchorPoint: "bottom_right" 750 0 basechar 0
LayerCount: 3
Fore
SplineSet
529 1070 m 0
 809 1070 949 931 995 775 c 1
 648 685 l 0
 648 705 629 750 529 750 c 0
 459 750 440 735 440 715 c 0
 440 695 470 675 529 663 c 0
 822 601 1016 566 1016 326 c 0
 1016 86 805 -30 529 -30 c 0
 290 -30 98 85 50 265 c 1
 402 356 l 0
 402 326 439 290 529 290 c 0
 619 290 656 296 656 326 c 0
 656 356 588 371 529 383 c 0
 249 442 80 515 80 715 c 0
 80 915 249 1070 529 1070 c 0
EndSplineSet
Substitution2: "sous-table 'smcp' Bas-de-casse vers petites capitales dans Latin lookup 0" s.sc
Colour: ff00
EndChar

StartChar: a
Encoding: 97 97 23
Width: 1249
VWidth: 1000
Flags: HMW
AnchorPoint: "top_right" 1106 1040 basechar 0
AnchorPoint: "bottom_center" 578 0 basechar 0
AnchorPoint: "top_center" 618 1040 basechar 0
AnchorPoint: "bottom_right" 1142 0 basechar 0
LayerCount: 3
Fore
SplineSet
530 -30 m 0
 224 -30 50 135 50 335 c 0
 50 535 272 680 578 680 c 0
 848 680 998 545 998 345 c 1
 998 145 840 -30 530 -30 c 0
746 345 m 0
 746 385 678 400 578 400 c 0
 478 400 410 385 410 345 c 0
 410 305 478 290 578 290 c 0
 678 290 746 305 746 345 c 0
1106 377 m 2
 1106 317 1142 258 1214 258 c 9
 1134 -30 l 1
 868 -10 746 182 746 247 c 9
 776 266 l 25
 776 428 l 25
 746 450 l 25
 746 658 l 17
 746 718 710 761 578 761 c 0
 352 761 262 695 262 695 c 1
 98 966 l 1
 98 966 292 1080 578 1080 c 0
 873 1080 1106 978 1106 628 c 1
 1106 377 l 2
EndSplineSet
Substitution2: "sous-table 'smcp' Bas-de-casse vers petites capitales dans Latin lookup 0" a.sc
Substitution2: "'ss04' Simplified a and g lookups0-1" a.ss04
Colour: ff00
EndChar

StartChar: g
Encoding: 103 103 24
Width: 1232
VWidth: 997
Flags: HMW
AnchorPoint: "bottom_center" 589 -361 basechar 0
AnchorPoint: "top_center" 589 1040 basechar 0
LayerCount: 4
Fore
SplineSet
743 980 m 5
 778 1041 867 1120 1017 1120 c 4
 1088 1120 1151 1108 1207 1084 c 5
 1100 741 l 5
 1062 780 1004 800 921 800 c 4
 791 800 755 742 755 632 c 13
 743 980 l 5
589 520 m 4
 589 280 l 4
 494 280 439 275 439 260 c 4
 439 245 459 240 589 240 c 4
 589 -80 l 4
 341 -80 134 30 134 240 c 4
 134 440 421 520 589 520 c 4
1207 -100 m 4
 1207 -320 1022 -470 589 -470 c 4
 156 -470 25 -315 25 -114 c 4
 25 107 307 160 589 160 c 4
 589 -20 l 4
 439 -20 385 -58 385 -95 c 4
 385 -132 444 -150 589 -150 c 4
 734 -150 847 -150 847 -110 c 4
 847 -80 735 -80 589 -80 c 4
 589 240 l 4
 1014 240 1207 100 1207 -100 c 4
493 675 m 4
 493 627 529 600 589 600 c 4
 649 600 685 627 685 675 c 4
 685 723 649 750 589 750 c 4
 529 750 493 723 493 675 c 4
133 675 m 4
 133 894 326 1070 589 1070 c 4
 852 1070 1045 894 1045 675 c 4
 1045 456 852 280 589 280 c 4
 326 280 133 456 133 675 c 4
EndSplineSet
Layer: 2
SplineSet
521 -460 m 4
 881 -460 1036 -330 1036 -150 c 4
 1036 30 881 160 521 160 c 4
 201 160 51 10 51 -150 c 4
 51 -310 161 -460 521 -460 c 4
521 0 m 4
 769 0 856 -50 856 -150 c 4
 856 -250 769 -300 521 -300 c 4
 273 -300 231 -225 231 -150 c 4
 231 -75 273 0 521 0 c 4
321 680 m 4
 321 560 401 460 521 460 c 4
 641 460 721 560 721 680 c 4
 721 800 641 900 521 900 c 4
 401 900 321 800 321 680 c 4
141 680 m 4
 141 899 302 1060 521 1060 c 4
 740 1060 901 899 901 680 c 4
 901 461 740 300 521 300 c 4
 302 300 141 461 141 680 c 4
EndSplineSet
Layer: 3
SplineSet
605.309570312 967.537109375 m 5
 678.329101562 1023.9375 762.196289062 1060 862 1060 c 4
 930 1060 985 1049 1036 1028 c 5
 988 849 l 5
 945 883 893 900 822 900 c 4
 774.765625 900 734.5546875 892.494140625 700.93359375 877.462890625 c 5
 605.309570312 967.537109375 l 5
521 160 m 4
 521 0 l 4
 281 0 141 70 141 230 c 4
 141 390 281 460 521 460 c 4
 521 300 l 4
 363 300 321 270 321 230 c 4
 321 190 363 160 521 160 c 4
EndSplineSet
Substitution2: "sous-table 'smcp' Bas-de-casse vers petites capitales dans Latin lookup 0" g.sc
Substitution2: "'ss04' Simplified a and g lookups0-1" g.ss04
Colour: ff00
EndChar

StartChar: z
Encoding: 122 122 25
Width: 1032
Flags: HMW
AnchorPoint: "bottom_center" 516 0 basechar 0
AnchorPoint: "top_center" 516 1040 basechar 0
LayerCount: 3
Fore
SplineSet
70 1040 m 5
 962 1040 l 5
 962 752 l 5
 548 720 l 5
 70 720 l 5
 70 1040 l 5
958 320 m 5
 958 0 l 5
 70 0 l 5
 70 288 l 5
 484 320 l 5
 958 320 l 5
544 320 m 5
 70 288 l 5
 488 720 l 5
 962 752 l 5
 544 320 l 5
EndSplineSet
Substitution2: "sous-table 'smcp' Bas-de-casse vers petites capitales dans Latin lookup 0" z.sc
Colour: ff00
EndChar

StartChar: A
Encoding: 65 65 27
Width: 1530
VWidth: 1000
Flags: HMW
AnchorPoint: "bottom_ypogegrammeni" 769 -90 basechar 0
AnchorPoint: "top_left" 527 1480 basechar 0
AnchorPoint: "bottom_center" 769 0 basechar 0
AnchorPoint: "top_center" 769 1380 basechar 0
AnchorPoint: "bottom_right" 1495 0 basechar 0
LayerCount: 4
Fore
SplineSet
316 688 m 1
 1187 688 l 1
 1187 352 l 1
 316 352 l 1
 316 688 l 1
769 1080 m 1
 427 0 l 1
 35 0 l 1
 527 1480 l 1
 1003 1480 l 1
 1495 0 l 1
 1103 0 l 1
 769 1080 l 1
EndSplineSet
Substitution2: "sous-table 'c2sc' Capitales vers petites capitales dans Latin lookup 0" a.sc
Colour: ffff
EndChar

StartChar: V
Encoding: 86 86 28
Width: 1530
VWidth: 1000
Flags: HMW
AnchorPoint: "bottom_center" 765 0 basechar 0
AnchorPoint: "top_center" 765 1380 basechar 0
LayerCount: 4
Fore
SplineSet
773 400 m 1
 1103 1480 l 1
 1495 1480 l 1
 1003 0 l 1
 527 0 l 1
 35 1480 l 1
 427 1480 l 1
 773 400 l 1
EndSplineSet
Layer: 2
SplineSet
567 0 m 5
 206 1040 l 5
 392 1040 l 5
 660 224 l 5
 928 1040 l 5
 1114 1040 l 5
 753 0 l 5
 567 0 l 5
EndSplineSet
Substitution2: "sous-table 'c2sc' Capitales vers petites capitales dans Latin lookup 0" v.sc
Colour: ffff
EndChar

StartChar: H
Encoding: 72 72 29
Width: 1482
Flags: HMW
AnchorPoint: "top_center" 743 1362 basechar 0
AnchorPoint: "bottom_center" 743 -18 basechar 0
AnchorPoint: "top_left" 70 1480 basechar 0
AnchorPoint: "bottom_cedilla" 260 -38 basechar 0
AnchorPoint: "bottom_ypogegrammeni" 743 -108 basechar 0
LayerCount: 4
Fore
SplineSet
70 1480 m 29
 450 1480 l 29
 450 908 l 29
 1032 908 l 29
 1032 1480 l 29
 1412 1480 l 29
 1412 0 l 29
 1032 0 l 29
 1032 572 l 29
 450 572 l 29
 450 0 l 29
 70 0 l 29
 70 1480 l 29
EndSplineSet
Substitution2: "sous-table 'c2sc' Capitales vers petites capitales dans Latin lookup 0" h.sc
Colour: ffff
EndChar

StartChar: O
Encoding: 79 79 30
Width: 1620
Flags: HMW
AnchorPoint: "top_center" 810 1380 basechar 0
AnchorPoint: "top_right" 1424 1480 basechar 0
AnchorPoint: "bottom_center" 810 0 basechar 0
AnchorPoint: "bottom_right" 1042 0 basechar 0
AnchorPoint: "top_left_O1" 578 1480 basechar 0
AnchorPoint: "top_left_O2" 199 1224 basechar 0
LayerCount: 4
Fore
SplineSet
430 740 m 0
 430 490 560 306 810 306 c 0
 1060 306 1190 490 1190 740 c 0
 1190 990 1060 1174 810 1174 c 0
 560 1174 430 990 430 740 c 0
50 740 m 0
 50 1190 350 1510 810 1510 c 0
 1270 1510 1570 1190 1570 740 c 0
 1570 290 1270 -30 810 -30 c 0
 350 -30 50 290 50 740 c 0
EndSplineSet
Substitution2: "sous-table 'c2sc' Capitales vers petites capitales dans Latin lookup 0" o.sc
Colour: ffff
EndChar

StartChar: E
Encoding: 69 69 31
Width: 1254
Flags: HMW
AnchorPoint: "bottom_cedilla" 627 -20 basechar 0
AnchorPoint: "top_left" 70 1480 basechar 0
AnchorPoint: "bottom_right" 1184 0 basechar 0
AnchorPoint: "bottom_center" 627 0 basechar 0
AnchorPoint: "top_center" 627 1380 basechar 0
LayerCount: 4
Fore
SplineSet
1070 908 m 17
 1070 572 l 9
 450 572 l 17
 450 336 l 1
 1184 336 l 1
 1184 0 l 1
 70 0 l 25
 70 1480 l 1
 1184 1480 l 17
 1184 1144 l 1
 450 1144 l 1
 450 908 l 9
 1070 908 l 17
EndSplineSet
Substitution2: "sous-table 'c2sc' Capitales vers petites capitales dans Latin lookup 0" e.sc
Colour: ffff
EndChar

StartChar: F
Encoding: 70 70 32
Width: 1219
Flags: HMW
AnchorPoint: "top_center" 627 1380 basechar 0
AnchorPoint: "bottom_center" 260 0 basechar 0
LayerCount: 4
Fore
SplineSet
450 219 m 1
 450 0 l 1
 70 0 l 25
 70 1480 l 5
 1184 1480 l 17
 1184 1144 l 1
 450 1144 l 1
 450 908 l 9
 1070 908 l 17
 1070 572 l 9
 450 572 l 17
 450 219 l 1
EndSplineSet
Substitution2: "sous-table 'c2sc' Capitales vers petites capitales dans Latin lookup 0" f.sc
Colour: ffff
EndChar

StartChar: P
Encoding: 80 80 33
Width: 1258
Flags: HMW
AnchorPoint: "top_center" 619 1380 basechar 0
AnchorPoint: "bottom_center" 260 0 basechar 0
AnchorPoint: "top_left" 70 1480 basechar 0
LayerCount: 4
Fore
SplineSet
450 1144 m 29
 450 824 l 29
 637 824 l 21
 757 824 828 874 828 984 c 4
 828 1094 757 1144 637 1144 c 13
 450 1144 l 29
70 0 m 5
 70 1480 l 5
 637 1480 l 5
 1023 1480 1208 1239 1208 984 c 4
 1208 729 1023 488 637 488 c 5
 450 488 l 5
 450 0 l 29
 70 0 l 5
EndSplineSet
Substitution2: "sous-table 'c2sc' Capitales vers petites capitales dans Latin lookup 0" p.sc
Colour: ffff
EndChar

StartChar: N
Encoding: 78 78 34
Width: 1482
Flags: HMW
AnchorPoint: "bottom_center" 742 0 basechar 0
AnchorPoint: "top_center" 742 1380 basechar 0
LayerCount: 4
Fore
SplineSet
434 1480 m 1
 1032 652 l 25
 1032 1480 l 1
 1412 1480 l 25
 1412 0 l 25
 1048 0 l 1
 450 828 l 1
 450 0 l 1
 70 0 l 25
 70 1480 l 1
 434 1480 l 1
EndSplineSet
Substitution2: "sous-table 'c2sc' Capitales vers petites capitales dans Latin lookup 0" n.sc
Colour: ffff
EndChar

StartChar: L
Encoding: 76 76 35
Width: 1254
Flags: HMW
AnchorPoint: "bottom_center" 627 0 basechar 0
AnchorPoint: "top_center" 260 1380 basechar 0
LayerCount: 4
Fore
SplineSet
450 1480 m 1
 450 336 l 1
 1184 336 l 1
 1184 0 l 1
 70 0 l 25
 70 1480 l 1
 450 1480 l 1
EndSplineSet
Substitution2: "sous-table 'c2sc' Capitales vers petites capitales dans Latin lookup 0" l.sc
Colour: ffff
EndChar

StartChar: I
Encoding: 73 73 36
Width: 924
Flags: HMW
AnchorPoint: "top_center" 462 1380 basechar 0
AnchorPoint: "bottom_center" 462 0 basechar 0
AnchorPoint: "bottom_right" 652 0 basechar 0
AnchorPoint: "top_left" 70 1480 basechar 0
LayerCount: 4
Fore
SplineSet
70 1480 m 29
 854 1480 l 29
 854 1144 l 29
 652 1144 l 29
 652 336 l 29
 854 336 l 29
 854 0 l 29
 70 0 l 29
 70 336 l 29
 272 336 l 29
 272 1144 l 29
 70 1144 l 29
 70 1480 l 29
EndSplineSet
Substitution2: "sous-table 'c2sc' Capitales vers petites capitales dans Latin lookup 0" i.sc
Substitution2: "'ss03' Simplified G and I lookups0-1" I.ss03
Colour: ffff
EndChar

StartChar: D
Encoding: 68 68 37
Width: 1486
Flags: HMW
AnchorPoint: "bottom_cedilla" 597 -20 basechar 0
AnchorPoint: "bottom_center" 692 0 basechar 0
AnchorPoint: "top_center" 692 1380 basechar 0
LayerCount: 4
Fore
SplineSet
450 1144 m 25
 450 336 l 25
 670 336 l 17
 874 336 1056 467 1056 740 c 0
 1056 1013 864 1144 670 1144 c 9
 450 1144 l 25
670 0 m 1
 298 0 l 25
 70 0 l 1
 70 1480 l 1
 670 1480 l 1
 1126 1480 1436 1190 1436 740 c 0
 1436 290 1126 0 670 0 c 1
EndSplineSet
Substitution2: "sous-table 'c2sc' Capitales vers petites capitales dans Latin lookup 0" d.sc
Colour: ffff
EndChar

StartChar: B
Encoding: 66 66 38
Width: 1372
Flags: HMW
AnchorPoint: "bottom_center" 622 0 basechar 0
AnchorPoint: "top_center" 622 1380 basechar 0
LayerCount: 4
Fore
SplineSet
751 1480 m 1
 1075 1480 1245 1280 1245 1060 c 0
 1245 840 1015 656 751 656 c 1
 751 976 l 17
 841 976 865 1012 865 1062 c 0
 865 1112 841 1144 751 1144 c 9
 450 1144 l 1
 450 1480 l 25
 751 1480 l 1
450 336 m 25
 751 336 l 17
 871 336 942 416 942 496 c 0
 942 576 871 656 751 656 c 9
 450 656 l 25
 450 336 l 25
70 1480 m 1
 450 1480 l 25
 450 976 l 1
 751 976 l 1
 1117 976 1322 751 1322 496 c 0
 1322 241 1117 0 751 0 c 1
 70 0 l 1
 70 1480 l 1
EndSplineSet
Layer: 2
SplineSet
567 740 m 5
 567 908 l 21
 692 908 789 987 789 1112 c 4
 789 1237 692 1312 567 1312 c 13
 285 1312 l 5
 285 1480 l 29
 567 1480 l 5
 787 1480 979 1330 979 1110 c 4
 979 890 787 740 567 740 c 5
EndSplineSet
Substitution2: "sous-table 'c2sc' Capitales vers petites capitales dans Latin lookup 0" b.sc
Colour: ffff
EndChar

StartChar: T
Encoding: 84 84 39
Width: 1482
Flags: HMW
AnchorPoint: "bottom_cedilla" 741 -20 basechar 0
AnchorPoint: "bottom_center" 741 0 basechar 0
AnchorPoint: "top_center" 741 1380 basechar 0
LayerCount: 4
Fore
SplineSet
931 0 m 25
 551 0 l 25
 551 1144 l 29
 70 1144 l 29
 70 1480 l 29
 1412 1480 l 29
 1412 1144 l 29
 931 1144 l 29
 931 0 l 25
EndSplineSet
Substitution2: "sous-table 'c2sc' Capitales vers petites capitales dans Latin lookup 0" t.sc
Colour: ffff
EndChar

StartChar: R
Encoding: 82 82 40
Width: 1318
Flags: HMW
AnchorPoint: "bottom_center" 619 0 basechar 0
AnchorPoint: "top_center" 619 1380 basechar 0
LayerCount: 4
Fore
SplineSet
395 643 m 1
 812 660 l 1
 1288 0 l 1
 848 0 l 1
 395 643 l 1
450 1144 m 25
 450 824 l 25
 637 824 l 17
 757 824 828 874 828 984 c 0
 828 1094 757 1144 637 1144 c 9
 450 1144 l 25
70 0 m 1
 70 1480 l 1
 637 1480 l 1
 1023 1480 1208 1239 1208 984 c 0
 1208 729 1023 488 637 488 c 1
 450 488 l 1
 450 0 l 25
 70 0 l 1
EndSplineSet
Layer: 2
SplineSet
892 0 m 5
 1062 0 l 5
 723 634 l 29
 553 634 l 29
 892 0 l 5
EndSplineSet
Substitution2: "sous-table 'c2sc' Capitales vers petites capitales dans Latin lookup 0" r.sc
Colour: ffff
EndChar

StartChar: C
Encoding: 67 67 41
Width: 1535
Flags: HMW
AnchorPoint: "bottom_cedilla" 810 -20 basechar 0
AnchorPoint: "bottom_center" 810 0 basechar 0
AnchorPoint: "top_center" 810 1380 basechar 0
LayerCount: 4
Fore
SplineSet
1160 930 m 1
 1109 1078 991 1174 810 1174 c 0
 560 1174 430 990 430 740 c 0
 430 490 560 306 810 306 c 0
 991 306 1109 402 1160 550 c 1
 1485 360 l 1
 1365 120 1125 -30 810 -30 c 0
 350 -30 50 290 50 740 c 0
 50 1190 350 1510 810 1510 c 0
 1125 1510 1365 1360 1485 1120 c 1
 1160 930 l 1
EndSplineSet
Substitution2: "sous-table 'c2sc' Capitales vers petites capitales dans Latin lookup 0" c.sc
Colour: ffff
EndChar

StartChar: G
Encoding: 71 71 42
Width: 1563
Flags: HMW
AnchorPoint: "top_center" 810 1380 basechar 0
AnchorPoint: "bottom_center" 810 0 basechar 0
LayerCount: 4
Fore
SplineSet
1156 930 m 5
 1105 1078 991 1174 810 1174 c 0
 560 1174 430 990 430 740 c 0
 430 490 560 306 810 306 c 0
 991 306 1105 402 1156 550 c 5
 1321 360 l 5
 1201 120 1125 -30 810 -30 c 0
 350 -30 50 290 50 740 c 0
 50 1190 350 1510 810 1510 c 0
 1125 1510 1365 1360 1485 1120 c 1
 1156 930 l 5
748 824 m 29
 1493 824 l 29
 1493 0 l 29
 1133 0 l 21
 1133 227 l 5
 1113 253 l 5
 1113 488 l 13
 748 488 l 29
 748 824 l 29
EndSplineSet
Substitution2: "sous-table 'c2sc' Capitales vers petites capitales dans Latin lookup 0" g.sc
Substitution2: "'ss03' Simplified G and I lookups0-1" G.ss03
Colour: ffff
EndChar

StartChar: Q
Encoding: 81 81 43
Width: 1620
Flags: HMW
AnchorPoint: "top_center" 810 1380 basechar 0
AnchorPoint: "bottom_center" 810 0 basechar 0
LayerCount: 4
Fore
SplineSet
430 740 m 0
 430 490 560 306 810 306 c 0
 1060 306 1190 490 1190 740 c 0
 1190 990 1060 1174 810 1174 c 0
 560 1174 430 990 430 740 c 0
50 740 m 0
 50 1190 350 1510 810 1510 c 0
 1270 1510 1570 1190 1570 740 c 0
 1570 290 1270 -30 810 -30 c 0
 350 -30 50 290 50 740 c 0
1570 124 m 1
 1322 -124 l 1
 742 456 l 1
 990 704 l 1
 1570 124 l 1
EndSplineSet
Layer: 2
SplineSet
1135.31445312 319.685546875 m 5
 938.69921875 516.30078125 l 5
 830.356445312 407.643554688 l 5
 1034 204 l 5
 1143.48144531 94.5185546875 l 5
 1347.125 -109.125 l 5
 1455.78222656 -0.7822265625 l 5
 1259.16699219 195.833007812 l 5
 1135.31445312 319.685546875 l 5
EndSplineSet
Substitution2: "sous-table 'c2sc' Capitales vers petites capitales dans Latin lookup 0" q.sc
Colour: ffff
EndChar

StartChar: U
Encoding: 85 85 44
Width: 1482
Flags: HMW
AnchorPoint: "top_center" 741 1380 basechar 0
AnchorPoint: "top_right" 1412 1480 basechar 0
AnchorPoint: "bottom_center" 741 0 basechar 0
AnchorPoint: "bottom_right" 973 0 basechar 0
LayerCount: 4
Fore
SplineSet
450 1480 m 25
 450 600 l 17
 450 390 591 306 741 306 c 0
 891 306 1032 390 1032 600 c 9
 1032 1480 l 25
 1412 1480 l 25
 1412 600 l 17
 1412 240 1173 -30 741 -30 c 0
 309 -30 70 240 70 600 c 9
 70 1480 l 25
 450 1480 l 25
EndSplineSet
Substitution2: "sous-table 'c2sc' Capitales vers petites capitales dans Latin lookup 0" u.sc
Colour: ffff
EndChar

StartChar: M
Encoding: 77 77 45
Width: 1710
VWidth: 1000
Flags: HMW
AnchorPoint: "bottom_center" 849 0 basechar 0
AnchorPoint: "top_center" 849 1380 basechar 0
LayerCount: 4
Fore
SplineSet
849 720 m 1
 1276 1480 l 1
 1514 1188 l 1
 938 160 l 1
 760 160 l 1
 187 1188 l 1
 434 1480 l 1
 849 720 l 1
1640 1480 m 1
 1640 0 l 1
 1260 0 l 1
 1260 1322 l 1
 1276 1480 l 1
 1640 1480 l 1
70 1480 m 1
 434 1480 l 1
 450 1275 l 1
 450 0 l 1
 70 0 l 1
 70 1480 l 1
EndSplineSet
Substitution2: "sous-table 'c2sc' Capitales vers petites capitales dans Latin lookup 0" m.sc
Colour: ffff
EndChar

StartChar: Z
Encoding: 90 90 46
Width: 1374
VWidth: 1000
Flags: HMW
AnchorPoint: "bottom_center" 687 0 basechar 0
AnchorPoint: "top_center" 690 1380 basechar 0
LayerCount: 4
Fore
SplineSet
253 0 m 1
 70 302 l 1
 1121 1480 l 1
 1304 1176 l 1
 253 0 l 1
493 336 m 1
 1304 336 l 1
 1304 0 l 1
 860 0 514 0 70 0 c 1
 70 302 l 1
 493 336 l 1
94 1480 m 1
 538 1480 860 1480 1304 1480 c 1
 1304 1176 l 1
 891 1144 l 1
 94 1144 l 1
 94 1480 l 1
EndSplineSet
Layer: 2
SplineSet
813 900 m 1
 267 140 l 1
 813 140 l 1
 813 0 l 1
 94 0 l 1
 94 140 l 1
 640 900 l 1
 94 900 l 1
 94 1040 l 1
 813 1040 l 1
 813 900 l 1
EndSplineSet
Substitution2: "sous-table 'c2sc' Capitales vers petites capitales dans Latin lookup 0" z.sc
Colour: ffff
EndChar

StartChar: X
Encoding: 88 88 47
Width: 1572
VWidth: 1000
Flags: HMW
AnchorPoint: "bottom_center" 786 0 basechar 0
AnchorPoint: "top_center" 786 1380 basechar 0
LayerCount: 4
Fore
SplineSet
784 487 m 5
 463 0 l 1
 35 0 l 1
 562 740 l 5
 35 1480 l 1
 463 1480 l 1
 786 988 l 5
 1109 1480 l 5
 1537 1480 l 5
 1010 740 l 5
 1537 0 l 5
 1109 0 l 5
 784 487 l 5
EndSplineSet
Substitution2: "sous-table 'c2sc' Capitales vers petites capitales dans Latin lookup 0" x.sc
Colour: ffff
EndChar

StartChar: Y
Encoding: 89 89 48
Width: 1572
VWidth: 1000
Flags: HMW
AnchorPoint: "top_center" 786 1380 basechar 0
AnchorPoint: "bottom_center" 786 0 basechar 0
AnchorPoint: "top_left" 71 1480 basechar 0
LayerCount: 4
Back
SplineSet
671 617.358398438 m 1
 1081 0 l 1
 1297 0 l 1
 807 740 l 1
 1297 1480 l 1
 1081 1480 l 1
 673 858 l 1
 257 1480 l 1
 41 1480 l 1
 548 740 l 1
 40 0 l 1
 257 0 l 1
 671 617.358398438 l 1
EndSplineSet
Fore
SplineSet
596 0 m 29
 596 834 l 29
 976 834 l 29
 976 0 l 29
 596 0 l 29
789 426 m 5
 680 578 l 5
 35 1480 l 5
 463 1480 l 5
 786 988 l 5
 1109 1480 l 5
 1537 1480 l 5
 789 426 l 5
EndSplineSet
Substitution2: "sous-table 'c2sc' Capitales vers petites capitales dans Latin lookup 0" y.sc
Colour: ffff
EndChar

StartChar: W
Encoding: 87 87 49
Width: 2282
VWidth: 1000
Flags: HMW
AnchorPoint: "bottom_center" 1141 0 basechar 0
AnchorPoint: "top_center" 1141 1380 basechar 0
LayerCount: 4
Fore
SplineSet
1615 560 m 1
 1855 1480 l 1
 2247 1480 l 1
 1822 0 l 1
 1449 0 l 1
 1141 910 l 1
 833 0 l 1
 460 0 l 1
 35 1480 l 1
 427 1480 l 1
 667 560 l 1
 974 1480 l 1
 1308 1480 l 1
 1615 560 l 1
EndSplineSet
Substitution2: "sous-table 'c2sc' Capitales vers petites capitales dans Latin lookup 0" w.sc
Colour: ffff
EndChar

StartChar: J
Encoding: 74 74 50
Width: 1285
VWidth: 1000
Flags: HMW
AnchorPoint: "bottom_center" 629 0 basechar 0
AnchorPoint: "top_center" 1025 1380 basechar 0
LayerCount: 4
Fore
SplineSet
437 569 m 5
 437 569 430 543 430 485 c 4
 430 385 514 306 629 306 c 0
 744 306 835 385 835 485 c 0
 835 1480 l 1
 1215 1480 l 1
 1215 485 l 2
 1215 165 965 -30 629 -30 c 0
 293 -30 50 165 50 485 c 4
 437 569 l 5
EndSplineSet
Substitution2: "sous-table 'c2sc' Capitales vers petites capitales dans Latin lookup 0" j.sc
Colour: ffff
EndChar

StartChar: K
Encoding: 75 75 51
Width: 1463
Flags: HMW
AnchorPoint: "bottom_center" 741 0 basechar 0
AnchorPoint: "top_center" 741 1380 basechar 0
LayerCount: 4
Back
SplineSet
1193 0 m 1
 1001 0 l 1
 -12 1480 l 1
 180 1480 l 1
 1193 0 l 1
EndSplineSet
Fore
SplineSet
453 801 m 1
 792 925 l 1
 1458 0 l 1
 1018 0 l 1
 453 801 l 1
450 450 m 1
 450 0 l 1
 70 0 l 1
 70 1480 l 1
 450 1480 l 1
 450 940 l 1
 978 1480 l 1
 1050 1480 1386 1480 1458 1480 c 1
 450 450 l 1
EndSplineSet
Substitution2: "sous-table 'c2sc' Capitales vers petites capitales dans Latin lookup 0" k.sc
Colour: ffff
EndChar

StartChar: S
Encoding: 83 83 52
Width: 1327
VWidth: 1000
Flags: HMW
AnchorPoint: "bottom_center" 662 0 basechar 0
AnchorPoint: "top_center" 662 1380 basechar 0
LayerCount: 4
Fore
SplineSet
662 1174 m 0
 522 1174 458 1132 458 1052 c 0
 458 992 556 973 662 945 c 0
 1029 847 1277 725 1277 445 c 0
 1277 165 1072 -30 662 -30 c 0
 357 -30 93 91 50 361 c 1
 423 461 l 0
 423 361 512 306 662 306 c 0
 812 306 897 355 897 445 c 0
 897 535 768 549 662 577 c 0
 314 670 78 792 78 1052 c 0
 78 1312 292 1510 662 1510 c 0
 967 1510 1206 1394 1249 1124 c 1
 876 1024 l 0
 876 1124 802 1174 662 1174 c 0
EndSplineSet
Substitution2: "sous-table 'c2sc' Capitales vers petites capitales dans Latin lookup 0" s.sc
Colour: ffff
EndChar

StartChar: eight
Encoding: 56 56 53
Width: 1278
VWidth: 1000
Flags: HMW
LayerCount: 4
Back
SplineSet
293 1094 m 0
 293 1231 395 1332 570 1332 c 0
 745 1332 847 1231 847 1094 c 0
 847 957 745 856 570 856 c 4
 395 856 293 957 293 1094 c 0
103 1098 m 0
 103 875 295 696 570 696 c 4
 845 696 1037 875 1037 1098 c 0
 1037 1321 845 1500 570 1500 c 0
 295 1500 103 1321 103 1098 c 0
250 422 m 4
 250 578 370 696 570 696 c 4
 770 696 892 578 892 422 c 4
 892 266 770 148 570 148 c 4
 370 148 250 266 250 422 c 4
60 418 m 4
 60 175 270 -20 570 -20 c 4
 870 -20 1082 175 1082 418 c 4
 1082 661 870 856 570 856 c 4
 270 856 60 661 60 418 c 4
EndSplineSet
Fore
SplineSet
45 453 m 0
 45 685 245 781 245 781 c 1
 245 781 99 839 99 1058 c 0
 99 1341 319 1510 639 1510 c 0
 959 1510 1179 1341 1179 1058 c 0
 1179 839 1033 781 1033 781 c 1
 1033 781 1233 685 1233 453 c 0
 1233 120 999 -30 639 -30 c 0
 279 -30 45 120 45 453 c 0
479 1050 m 4
 479 970 554 936 639 936 c 1
 724 936 799 970 799 1050 c 0
 799 1130 764 1174 639 1174 c 0
 514 1174 479 1130 479 1050 c 4
639 616 m 1
 489 616 425 561 425 461 c 0
 425 361 489 306 639 306 c 0
 789 306 853 361 853 461 c 0
 853 561 789 616 639 616 c 1
EndSplineSet
Substitution2: "'ss02' Alternative numbers set 2 lookups0-1" eight.cv18
Substitution2: "'ss01' Alternative numbers set 1 lookups0-1" eight.cv08
Substitution2: "sous-table 'sups' Exposant lookups0" eight.superior
Substitution2: "'cv18' Alternative digit 8 2-1" eight.cv18
Substitution2: "'cv08' Alternative digit 8 1-1" eight.cv08
Substitution2: "'dnom' D+AOkA-nominateurs lookups0-1" eight.dnom
Substitution2: "sous-table 'subs' Indice lookups0" eight.subscript
Substitution2: "'numr' Numerators lookups0-1" eight.numr
Substitution2: "'tnum' Tabular Numbers lookups0-1" eight.tnum
Substitution2: "'onum' Oldstyle Figures lookups0-1" eight.onum
Substitution2: "'pnum' Proportional Numbers lookups0-1" eight.pnum
Colour: ffff
EndChar

StartChar: six
Encoding: 54 54 54
Width: 1278
VWidth: 1000
Flags: HMW
LayerCount: 4
Fore
SplineSet
796 1510 m 0
 1038 1510 1210 1370 1210 1370 c 1
 1052 1077 l 1
 1052 1077 969 1174 709 1174 c 0
 559 1174 403 1016 403 716 c 4
 403 486 518 282 518 282 c 1
 188 194 l 1
 188 194 46 376 46 696 c 0
 46 1206 314 1510 796 1510 c 0
456 491 m 0
 456 371 534 306 654 306 c 0
 774 306 852 371 852 491 c 0
 852 611 774 676 654 676 c 0
 534 676 456 611 456 491 c 0
102 491 m 1
 192 491 l 1
 192 614 345 1012 654 1012 c 0
 1003 1012 1232 802 1232 491 c 0
 1232 180 1003 -30 654 -30 c 0
 305 -30 102 200 102 491 c 1
EndSplineSet
Substitution2: "'ss02' Alternative numbers set 2 lookups0-1" six.cv16
Substitution2: "'ss01' Alternative numbers set 1 lookups0-1" six.cv06
Substitution2: "'pnum' Proportional Numbers lookups0-1" six.pnum
Substitution2: "sous-table 'sups' Exposant lookups0" six.superior
Substitution2: "'cv16' Alternative digit 6 2-1" six.cv16
Substitution2: "'cv06' Alternative digit 6 1-1" six.cv06
Substitution2: "'dnom' D+AOkA-nominateurs lookups0-1" six.dnom
Substitution2: "sous-table 'subs' Indice lookups0" six.subscript
Substitution2: "'numr' Numerators lookups0-1" six.numr
Substitution2: "'tnum' Tabular Numbers lookups0-1" six.tnum
Substitution2: "'onum' Oldstyle Figures lookups0-1" six.onum
Colour: ffff
EndChar

StartChar: nine
Encoding: 57 57 55
Width: 1278
VWidth: 1000
Flags: HMW
LayerCount: 4
Fore
SplineSet
482 -30 m 0
 240 -30 68 110 68 110 c 1
 226 403 l 1
 226 403 309 306 569 306 c 0
 719 306 875 464 875 764 c 4
 875 994 760 1198 760 1198 c 1
 1090 1286 l 1
 1090 1286 1232 1104 1232 784 c 0
 1232 274 964 -30 482 -30 c 0
822 989 m 0
 822 1109 744 1174 624 1174 c 0
 504 1174 426 1109 426 989 c 0
 426 869 504 804 624 804 c 0
 744 804 822 869 822 989 c 0
1176 989 m 1
 1086 989 l 1
 1086 866 933 468 624 468 c 0
 275 468 46 678 46 989 c 0
 46 1300 275 1510 624 1510 c 0
 973 1510 1176 1280 1176 989 c 1
EndSplineSet
Substitution2: "'ss02' Alternative numbers set 2 lookups0-1" nine.cv19
Substitution2: "'ss01' Alternative numbers set 1 lookups0-1" nine.cv09
Substitution2: "sous-table 'sups' Exposant lookups0" nine.superior
Substitution2: "'cv19' Alternative digit 9 2-1" nine.cv19
Substitution2: "'cv09' Alternative digit 9 1-1" nine.cv09
Substitution2: "'dnom' D+AOkA-nominateurs lookups0-1" nine.dnom
Substitution2: "sous-table 'subs' Indice lookups0" nine.subscript
Substitution2: "'numr' Numerators lookups0-1" nine.numr
Substitution2: "'tnum' Tabular Numbers lookups0-1" nine.tnum
Substitution2: "'onum' Oldstyle Figures lookups0-1" nine.onum
Substitution2: "'pnum' Proportional Numbers lookups0-1" nine.pnum
Colour: ffff
EndChar

StartChar: three
Encoding: 51 51 56
Width: 1278
VWidth: 1000
Flags: HMW
LayerCount: 4
Fore
SplineSet
638 936 m 26
 723 936 798 970 798 1050 c 0
 798 1130 763 1174 638 1174 c 0
 513 1174 460 1130 460 1050 c 0
 89 1150 l 1
 134 1377 336 1510 638 1510 c 0
 958 1510 1178 1341 1178 1058 c 0
 1178 839 1032 781 1032 781 c 1
 1032 781 1232 685 1232 453 c 4
 1232 120 998 -30 638 -30 c 4
 353 -30 89 91 46 361 c 5
 419 461 l 4
 419 361 488 306 638 306 c 4
 788 306 852 361 852 461 c 4
 852 561 788 616 638 616 c 2
 524 616 l 17
 524 936 l 9
 638 936 l 26
EndSplineSet
Substitution2: "'ss02' Alternative numbers set 2 lookups0-1" three.cv13
Substitution2: "'ss01' Alternative numbers set 1 lookups0-1" three.cv03
Substitution2: "'pnum' Proportional Numbers lookups0-1" three.pnum
Substitution2: "sous-table 'sups' Exposant lookups0" three.superior
Substitution2: "'cv13' Alternative digit 3 2-1" three.cv13
Substitution2: "'cv03' Alternative digit 3 1-1" three.cv03
Substitution2: "'onum' Oldstyle Figures lookups0-1" three.onum
Substitution2: "'tnum' Tabular Numbers lookups0-1" three.tnum
Substitution2: "'numr' Numerators lookups0-1" three.numr
Substitution2: "sous-table 'subs' Indice lookups0" three.subscript
Substitution2: "'dnom' D+AOkA-nominateurs lookups0-1" three.dnom
Colour: ffff
EndChar

StartChar: zero
Encoding: 48 48 57
Width: 1278
Flags: HMW
LayerCount: 4
Fore
SplineSet
436 740 m 0
 436 445 506 306 639 306 c 0
 772 306 842 445 842 740 c 4
 842 1035 772 1174 639 1174 c 0
 506 1174 436 1035 436 740 c 0
56 740 m 0
 56 1240 279 1510 639 1510 c 0
 999 1510 1222 1240 1222 740 c 4
 1222 240 999 -30 639 -30 c 0
 279 -30 56 240 56 740 c 0
EndSplineSet
Substitution2: "'ss02' Alternative numbers set 2 lookups0-1" zero.cv20
Substitution2: "'ss01' Alternative numbers set 1 lookups0-1" zero.cv10
Substitution2: "'pnum' Proportional Numbers lookups0-1" zero.pnum
Substitution2: "sous-table 'subs' Indice lookups0" zero.subscript
Substitution2: "'cv20' Alternative digit 0 2-1" zero.cv20
Substitution2: "'cv10' Alternative digit 0 1-1" zero.cv10
Substitution2: "'zero' Slashed Zero lookups0-1" zero.zero
Substitution2: "'onum' Oldstyle Figures lookups0-1" zero.onum
Substitution2: "'tnum' Tabular Numbers lookups0-1" zero.tnum
Substitution2: "'numr' Numerators lookups0-1" zero.numr
Substitution2: "'dnom' D+AOkA-nominateurs lookups0-1" zero.dnom
Substitution2: "sous-table 'sups' Exposant lookups0" zero.superior
Colour: ffff
EndChar

StartChar: two
Encoding: 50 50 58
Width: 1278
VWidth: 1000
Flags: HMW
LayerCount: 4
Fore
SplineSet
468 906 m 5
 81 990 l 4
 81 1310 307 1510 643 1510 c 4
 979 1510 1205 1310 1205 1030 c 4
 825 1030 l 4
 825 1120 738 1174 643 1174 c 4
 528 1174 461 1090 461 990 c 4
 461 932 468 906 468 906 c 5
64 0 m 1
 64 160 84 465 643 788 c 0
 823 892 825 950 825 1030 c 5
 1205 1030 l 5
 1205 739 1020 628 743 468 c 0
 483 318 444 90 444 0 c 1
 377 0 131 0 64 0 c 1
344 336 m 1
 1214 336 l 1
 1214 0 l 1
 444 0 l 1
 344 336 l 1
EndSplineSet
Substitution2: "'ss02' Alternative numbers set 2 lookups0-1" two.cv12
Substitution2: "'ss01' Alternative numbers set 1 lookups0-1" two.cv02
Substitution2: "'pnum' Proportional Numbers lookups0-1" two.pnum
Substitution2: "sous-table 'sups' Exposant lookups0" two.superior
Substitution2: "'cv12' Alternative digit 2 2-1" two.cv12
Substitution2: "'cv02' Alternative digit 2 1-1" two.cv02
Substitution2: "'dnom' D+AOkA-nominateurs lookups0-1" two.dnom
Substitution2: "sous-table 'subs' Indice lookups0" two.subscript
Substitution2: "'onum' Oldstyle Figures lookups0-1" two.onum
Substitution2: "'tnum' Tabular Numbers lookups0-1" two.tnum
Substitution2: "'numr' Numerators lookups0-1" two.numr
Colour: ffff
EndChar

StartChar: seven
Encoding: 55 55 59
Width: 1278
Flags: HMW
LayerCount: 4
Fore
SplineSet
772 1144 m 1
 1228 1172 l 1
 1228 1172 710 837 622 0 c 1
 551 0 313 0 242 0 c 1
 326 840 772 1144 772 1144 c 1
50 1144 m 1
 50 1480 l 1
 1228 1480 l 1
 1228 1172 l 1
 772 1144 l 1
 50 1144 l 1
EndSplineSet
Substitution2: "'ss02' Alternative numbers set 2 lookups0-1" seven.cv17
Substitution2: "'ss01' Alternative numbers set 1 lookups0-1" seven.cv07
Substitution2: "'pnum' Proportional Numbers lookups0-1" seven.pnum
Substitution2: "sous-table 'sups' Exposant lookups0" seven.superior
Substitution2: "'cv17' Alternative digit 7 2-1" seven.cv17
Substitution2: "'cv07' Alternative digit 7 1-1" seven.cv07
Substitution2: "'dnom' D+AOkA-nominateurs lookups0-1" seven.dnom
Substitution2: "sous-table 'subs' Indice lookups0" seven.subscript
Substitution2: "'numr' Numerators lookups0-1" seven.numr
Substitution2: "'tnum' Tabular Numbers lookups0-1" seven.tnum
Substitution2: "'onum' Oldstyle Figures lookups0-1" seven.onum
Colour: ffff
EndChar

StartChar: four
Encoding: 52 52 60
Width: 1278
Flags: HMW
LayerCount: 4
Fore
SplineSet
70 572 m 1
 502 1480 l 1
 908 1480 l 1
 481 572 l 1
 688 572 l 1
 688 808 l 1
 1068 808 l 1
 1068 572 l 1
 1208 572 l 1
 1208 236 l 1
 1068 236 l 1
 1068 0 l 1
 688 0 l 1
 688 236 l 1
 70 236 l 1
 70 572 l 1
EndSplineSet
Substitution2: "'ss02' Alternative numbers set 2 lookups0-1" four.cv14
Substitution2: "'ss01' Alternative numbers set 1 lookups0-1" four.cv04
Substitution2: "'pnum' Proportional Numbers lookups0-1" four.pnum
Substitution2: "sous-table 'sups' Exposant lookups0" four.superior
Substitution2: "'cv14' Alternative digit 4 2-1" four.cv14
Substitution2: "'cv04' Alternative digit 4 1-1" four.cv04
Substitution2: "'dnom' D+AOkA-nominateurs lookups0-1" four.dnom
Substitution2: "sous-table 'subs' Indice lookups0" four.subscript
Substitution2: "'numr' Numerators lookups0-1" four.numr
Substitution2: "'tnum' Tabular Numbers lookups0-1" four.tnum
Substitution2: "'onum' Oldstyle Figures lookups0-1" four.onum
Colour: ffff
EndChar

StartChar: five
Encoding: 53 53 61
Width: 1278
VWidth: 1000
Flags: HMW
LayerCount: 4
Fore
SplineSet
437 615 m 1
 243 678 l 1
 325 829 424 1012 647 1012 c 0
 996 1012 1224 802 1224 491 c 0
 1224 180 996 -30 646 -30 c 0
 351 -30 97 91 54 361 c 1
 427 461 l 0
 427 361 496 306 646 306 c 0
 767 306 844 371 844 491 c 0
 844 611 747 676 627 676 c 0
 573 676 480 668 437 615 c 1
456 678 m 5
 243 678 l 1
 112 720 l 1
 220 1480 l 1
 277 1480 517 1480 574 1480 c 1
 456 678 l 5
363 1144 m 1
 574 1480 l 1
 1152 1480 l 1
 1152 1144 l 1
 363 1144 l 1
EndSplineSet
Substitution2: "'ss02' Alternative numbers set 2 lookups0-1" five.cv15
Substitution2: "'ss01' Alternative numbers set 1 lookups0-1" five.cv05
Substitution2: "'pnum' Proportional Numbers lookups0-1" five.pnum
Substitution2: "sous-table 'sups' Exposant lookups0" five.superior
Substitution2: "'cv15' Alternative digit 5 2-1" five.cv15
Substitution2: "'cv05' Alternative digit 5 1-1" five.cv05
Substitution2: "'dnom' D+AOkA-nominateurs lookups0-1" five.dnom
Substitution2: "sous-table 'subs' Indice lookups0" five.subscript
Substitution2: "'numr' Numerators lookups0-1" five.numr
Substitution2: "'tnum' Tabular Numbers lookups0-1" five.tnum
Substitution2: "'onum' Oldstyle Figures lookups0-1" five.onum
Colour: ffff
EndChar

StartChar: one
Encoding: 49 49 62
Width: 1278
Flags: HMW
LayerCount: 4
Fore
SplineSet
580 848 m 1
 200 848 l 1
 200 1184 l 1
 296 1184 l 2
 470 1184 604 1300 604 1448 c 2
 604 1480 l 1
 960 1480 l 1
 960 1040 l 1
 960 0 l 1
 580 0 l 1
 580 848 l 1
EndSplineSet
Substitution2: "'ss09' Bar below digit 1-1" one.ss09
Substitution2: "'ss02' Alternative numbers set 2 lookups0-1" one.cv11
Substitution2: "'ss01' Alternative numbers set 1 lookups0-1" one.cv01
Substitution2: "sous-table 'sups' Exposant lookups0" one.superior
Substitution2: "'cv11' Alternative digit 1 2-1" one.cv11
Substitution2: "'cv01' Alternative digit 1 1-1" one.cv01
Substitution2: "'dnom' D+AOkA-nominateurs lookups0-1" one.dnom
Substitution2: "'pnum' Proportional Numbers lookups0-1" one.pnum
Substitution2: "'onum' Oldstyle Figures lookups0-1" one.onum
Substitution2: "'tnum' Tabular Numbers lookups0-1" one.tnum
Substitution2: "'numr' Numerators lookups0-1" one.numr
Substitution2: "sous-table 'subs' Indice lookups0" one.subscript
Colour: ffff
EndChar

StartChar: period
Encoding: 46 46 63
Width: 540
VWidth: 1000
Flags: HMW
LayerCount: 4
Fore
SplineSet
70 170 m 4
 70 281 159 370 270 370 c 4
 381 370 470 281 470 170 c 4
 470 59 381 -30 270 -30 c 4
 159 -30 70 59 70 170 c 4
EndSplineSet
Colour: ff00
EndChar

StartChar: comma
Encoding: 44 44 64
Width: 565
Flags: HMW
LayerCount: 4
Back
SplineSet
105 -150 m 4xf0
 105 -80 161 -20 231 -20 c 4
 301 -20 359 -80 359 -150 c 4
 359 -220 301 -278 231 -278 c 4
 161 -278 105 -220 105 -150 c 4xf0
EndSplineSet
Fore
SplineSet
50 170 m 4
 50 281 139 370 250 370 c 4
 361 370 450 281 450 170 c 4
 450 59 361 -30 250 -30 c 4
 139 -30 50 59 50 170 c 4
65 -141 m 5
 194 -121 291 -56 291 32 c 4
 291 76 252 170 252 170 c 5
 250 370 l 5
 363 370 515 298 515 32 c 4
 515 -179 284 -343 125 -371 c 5
 65 -141 l 5
EndSplineSet
Colour: ff00
EndChar

StartChar: colon
Encoding: 58 58 65
Width: 540
VWidth: 1000
Flags: HMW
LayerCount: 4
Fore
SplineSet
70 930 m 0
 70 1041 159 1130 270 1130 c 0
 381 1130 470 1041 470 930 c 0
 470 819 381 730 270 730 c 0
 159 730 70 819 70 930 c 0
70 170 m 4
 70 281 159 370 270 370 c 4
 381 370 470 281 470 170 c 4
 470 59 381 -30 270 -30 c 4
 159 -30 70 59 70 170 c 4
EndSplineSet
Colour: ff00
EndChar

StartChar: semicolon
Encoding: 59 59 66
Width: 605
VWidth: 1000
Flags: HMW
LayerCount: 4
Fore
SplineSet
70 170 m 4
 70 281 159 370 270 370 c 4
 381 370 470 281 470 170 c 4
 470 59 381 -30 270 -30 c 4
 159 -30 70 59 70 170 c 4
85 -141 m 5
 214 -121 311 -56 311 32 c 4
 311 76 272 170 272 170 c 5
 270 370 l 5
 383 370 535 298 535 32 c 4
 535 -179 304 -343 145 -371 c 5
 85 -141 l 5
70 930 m 0
 70 1041 159 1130 270 1130 c 0
 381 1130 470 1041 470 930 c 0
 470 819 381 730 270 730 c 0
 159 730 70 819 70 930 c 0
EndSplineSet
Colour: ff00
EndChar

StartChar: slash
Encoding: 47 47 67
Width: 1211
VWidth: 1000
Flags: HMW
LayerCount: 4
Fore
SplineSet
1176 1640 m 1
 415 -200 l 1
 35 -200 l 5
 796 1640 l 5
 1176 1640 l 1
EndSplineSet
Colour: ff00
EndChar

StartChar: parenleft
Encoding: 40 40 68
Width: 877
Flags: HMW
LayerCount: 4
Fore
SplineSet
50 658 m 4
 50 1258 504 1583 684 1658 c 1
 852 1369 l 1
 716 1318 410 1078 410 658 c 0
 410 240 716 0 852 -51 c 1
 684 -340 l 1
 504 -265 50 60 50 658 c 4
EndSplineSet
Colour: ff00
EndChar

StartChar: exclam
Encoding: 33 33 69
Width: 552
Flags: HMW
LayerCount: 4
Fore
SplineSet
76 160 m 0
 76 271 165 360 276 360 c 0
 387 360 476 271 476 160 c 0
 476 49 387 -40 276 -40 c 0
 165 -40 76 49 76 160 c 0
70 1480 m 5
 482 1480 l 5
 436 452 l 5
 116 452 l 5
 70 1480 l 5
EndSplineSet
Colour: ff00
EndChar

StartChar: question
Encoding: 63 63 70
Width: 1204
VWidth: 1000
Flags: HMW
LayerCount: 4
Fore
SplineSet
602 1190 m 4
 497 1190 410 1127 410 1027 c 4
 410 969 417 943 417 943 c 5
 50 1027 l 4
 50 1347 306 1510 602 1510 c 4
 898 1510 1154 1325 1154 1025 c 4
 1154 725 938 540 602 540 c 0
 602 876 l 0
 697 876 794 905 794 1025 c 4
 794 1145 687 1190 602 1190 c 4
408 160 m 0
 408 271 497 360 608 360 c 0
 719 360 808 271 808 160 c 0
 808 49 719 -40 608 -40 c 0
 497 -40 408 49 408 160 c 0
428 452 m 1
 428 876 l 1
 788 876 l 1
 788 452 l 1
 428 452 l 1
EndSplineSet
Colour: ff00
EndChar

StartChar: quotesingle
Encoding: 39 39 71
Width: 508
Flags: HMW
LayerCount: 4
Fore
SplineSet
94 968 m 25
 70 1480 l 25
 438 1480 l 25
 414 968 l 25
 94 968 l 25
EndSplineSet
Colour: ff00
EndChar

StartChar: quotedbl
Encoding: 34 34 72
Width: 1036
Flags: HMW
LayerCount: 4
Fore
SplineSet
622 968 m 29
 598 1480 l 29
 966 1480 l 29
 942 968 l 29
 622 968 l 29
94 968 m 25
 70 1480 l 25
 438 1480 l 25
 414 968 l 25
 94 968 l 25
EndSplineSet
Colour: ff00
EndChar

StartChar: bracketleft
Encoding: 91 91 73
Width: 883
Flags: HMW
LayerCount: 4
Fore
SplineSet
848 1320 m 25
 430 1320 l 25
 430 0 l 25
 848 0 l 25
 848 -320 l 25
 70 -320 l 25
 70 1640 l 25
 848 1640 l 25
 848 1320 l 25
EndSplineSet
Colour: ff00
EndChar

StartChar: bracketright
Encoding: 93 93 74
Width: 883
Flags: HMW
LayerCount: 4
Fore
SplineSet
35 1320 m 25
 35 1640 l 25
 813 1640 l 25
 813 -320 l 25
 35 -320 l 25
 35 0 l 25
 453 0 l 25
 453 1320 l 25
 35 1320 l 25
EndSplineSet
Colour: ff00
EndChar

StartChar: parenright
Encoding: 41 41 75
Width: 877
Flags: HMW
LayerCount: 4
Fore
SplineSet
827 658 m 0
 827 60 373 -265 193 -340 c 1
 25 -51 l 1
 161 0 467 240 467 658 c 0
 467 1078 161 1318 25 1369 c 1
 193 1658 l 1
 373 1583 827 1258 827 658 c 0
EndSplineSet
Colour: ff00
EndChar

StartChar: braceleft
Encoding: 123 123 76
Width: 779
VWidth: 1000
Flags: HMW
LayerCount: 4
Fore
SplineSet
582 152 m 2
 582 52 654 -20 754 -20 c 0
 754 -340 l 0
 454 -340 222 -148 222 152 c 2
 222 302 l 18
 222 402 150 500 50 500 c 0
 50 820 l 0
 350 820 582 602 582 302 c 2
 582 152 l 2
582 1168 m 6
 582 1018 l 2
 582 718 350 500 50 500 c 0
 50 820 l 0
 150 820 222 918 222 1018 c 10
 222 1168 l 2
 222 1468 454 1660 754 1660 c 0
 754 1340 l 0
 654 1340 582 1268 582 1168 c 6
EndSplineSet
Colour: ff00
EndChar

StartChar: braceright
Encoding: 125 125 77
Width: 779
VWidth: 1000
Flags: HMW
LayerCount: 4
Fore
SplineSet
197 152 m 2
 197 302 l 2
 197 602 429 820 729 820 c 0
 729 500 l 0
 629 500 557 402 557 302 c 10
 557 152 l 2
 557 -148 325 -340 25 -340 c 0
 25 -20 l 0
 125 -20 197 52 197 152 c 2
197 1168 m 6
 197 1268 125 1340 25 1340 c 0
 25 1660 l 0
 325 1660 557 1468 557 1168 c 2
 557 1018 l 18
 557 918 629 820 729 820 c 0
 729 500 l 0
 429 500 197 718 197 1018 c 2
 197 1168 l 6
EndSplineSet
Colour: ff00
EndChar

StartChar: backslash
Encoding: 92 92 78
Width: 1211
VWidth: 1000
Flags: HMW
LayerCount: 4
Fore
SplineSet
35 1640 m 1
 415 1640 l 1
 1176 -200 l 1
 796 -200 l 1
 35 1640 l 1
EndSplineSet
Colour: ff00
EndChar

StartChar: bar
Encoding: 124 124 79
Width: 500
Flags: HMW
LayerCount: 4
Fore
SplineSet
430 1660 m 29
 430 -440 l 25
 70 -440 l 1
 70 1660 l 5
 430 1660 l 29
EndSplineSet
Colour: ff00
EndChar

StartChar: numbersign
Encoding: 35 35 80
Width: 1602
VWidth: 1000
Flags: HMW
LayerCount: 4
Fore
SplineSet
70 320 m 1
 70 640 l 1
 1486 640 l 1
 1486 320 l 1
 70 320 l 1
116 840 m 1
 116 1160 l 1
 1532 1160 l 1
 1532 840 l 1
 116 840 l 1
1013 1480 m 1
 1379 1480 l 1
 1146 0 l 1
 1078 0 848 0 780 0 c 1
 1013 1480 l 1
456 1480 m 1
 822 1480 l 1
 589 0 l 1
 521 0 291 0 223 0 c 1
 456 1480 l 1
EndSplineSet
Colour: ff00
EndChar

StartChar: gravecomb
Encoding: 768 768 83
Width: 0
VWidth: 1000
Flags: HMW
AnchorPoint: "circumflex_left" 697 1092 mark 0
AnchorPoint: "top_center" 642 1040 mark 0
LayerCount: 4
Fore
SplineSet
474 1224 m 5
 248 1480 l 5
 652 1480 l 5
 830 1224 l 5
 474 1224 l 5
EndSplineSet
Colour: ffff00
EndChar

StartChar: acutecomb
Encoding: 769 769 84
Width: 0
VWidth: 1000
Flags: HMW
AnchorPoint: "circumflex_right" 587 1092 mark 0
AnchorPoint: "top_center" 642 1040 mark 0
LayerCount: 4
Fore
SplineSet
810 1224 m 5
 454 1224 l 5
 632 1480 l 5
 1036 1480 l 5
 810 1224 l 5
EndSplineSet
Colour: ffff00
EndChar

StartChar: uni0302
Encoding: 770 770 85
Width: 0
VWidth: 1000
Flags: HMW
AnchorPoint: "top_center" 642 1040 mark 0
LayerCount: 4
Fore
SplineSet
699 1224 m 5
 539 1480 l 5
 845 1480 l 5
 1050 1224 l 5
 699 1224 l 5
585 1224 m 5
 234 1224 l 5
 439 1480 l 5
 745 1480 l 5
 585 1224 l 5
EndSplineSet
Colour: ffff00
EndChar

StartChar: tildecomb
Encoding: 771 771 86
Width: 0
VWidth: 1000
Flags: HMW
AnchorPoint: "top_center" 642 1040 mark 0
LayerCount: 4
Fore
SplineSet
488 1204 m 1
 279 1260 l 1
 296 1377 389 1499 545 1499 c 0
 635 1499 689 1436 731 1436 c 0
 776 1436 788 1478 788 1499 c 1
 997 1443 l 1
 980 1326 887 1204 731 1204 c 0
 641 1204 587 1267 545 1267 c 0
 494 1267 488 1225 488 1204 c 1
EndSplineSet
Colour: ffff00
EndChar

StartChar: uni0308
Encoding: 776 776 87
Width: 0
VWidth: 1000
Flags: HMW
AnchorPoint: "top_center" 642 1040 mark 0
AnchorPoint: "dieresis_center" 641 1350 basechar 0
LayerCount: 4
Fore
SplineSet
755 1352 m 4
 755 1463 844 1552 955 1552 c 4
 1066 1552 1155 1463 1155 1352 c 4
 1155 1241 1066 1152 955 1152 c 4
 844 1152 755 1241 755 1352 c 4
125 1352 m 4
 125 1463 214 1552 325 1552 c 4
 436 1552 525 1463 525 1352 c 4
 525 1241 436 1152 325 1152 c 4
 214 1152 125 1241 125 1352 c 4
EndSplineSet
Colour: ff00
EndChar

StartChar: uni030A
Encoding: 778 778 88
Width: 0
VWidth: 997
Flags: HMW
AnchorPoint: "top_center" 642 1040 mark 0
LayerCount: 4
Fore
SplineSet
436 1347 m 4
 436 1457 522 1542 642 1542 c 4
 762 1542 848 1457 848 1347 c 4
 848 1237 762 1152 642 1152 c 4
 522 1152 436 1237 436 1347 c 4
596 1347 m 4
 596 1321 616 1302 642 1302 c 4
 668 1302 687 1321 687 1347 c 4
 687 1373 668 1392 642 1392 c 4
 616 1392 596 1373 596 1347 c 4
EndSplineSet
Colour: ffc71c
EndChar

StartChar: ccedilla
Encoding: 231 231 89
Width: 1139
Flags: HMW
LayerCount: 4
Back
SplineSet
483 -220 m 4
 483 -244 504 -263 536 -263 c 4
 568 -263 589 -244 589 -220 c 4
 589 -196 568 -177 536 -177 c 4
 504 -177 483 -196 483 -220 c 4
356 -220 m 4
 356 -130 436 -60 536 -60 c 4
 636 -60 716 -130 716 -220 c 4
 716 -310 636 -380 536 -380 c 4
 436 -380 356 -310 356 -220 c 4
EndSplineSet
Fore
Refer: 90 807 N 1 0 0 1 -102 0 2
Refer: 10 99 N 1 0 0 1 0 0 3
Substitution2: "sous-table 'smcp' Bas-de-casse vers petites capitales dans Latin lookup 0" ccedilla.sc
Colour: ff
EndChar

StartChar: uni0327
Encoding: 807 807 90
Width: 0
VWidth: 1000
Flags: HMW
AnchorPoint: "bottom_cedilla" 704 -20 mark 0
LayerCount: 4
Fore
SplineSet
516 -314 m 1
 645 -239 l 1
 667 -268 707 -272 722 -272 c 0
 757 -272 778 -261 778 -246 c 0
 778 -231 757 -220 722 -220 c 0
 707 -220 688 -223 675 -232 c 1
 545 -170 l 5
 580 -120 624 -60 722 -60 c 4
 842 -60 938 -146 938 -246 c 0
 938 -346 872 -432 722 -432 c 0
 622 -432 562 -375 516 -314 c 1
647 0 m 1
 807 0 l 5
 682 -205 l 5
 675 -232 l 1
 546 -171 l 1
 647 0 l 1
EndSplineSet
Colour: ffc71c
EndChar

StartChar: dotlessi
Encoding: 305 305 141
Width: 500
Flags: HMW
AnchorPoint: "top_center" 250 1040 basechar 0
AnchorPoint: "bottom_center" 250 0 basechar 0
AnchorPoint: "bottom_right" 430 0 basechar 0
LayerCount: 4
Fore
SplineSet
70 0 m 1
 70 1040 l 1
 430 1040 l 1
 430 0 l 1
 70 0 l 1
EndSplineSet
LCarets2: 1 0
Ligature2: "'liga' Soft Dotted i j" i uni030A
Colour: ff00
EndChar

StartChar: dollar
Encoding: 36 36 142
Width: 1327
VWidth: 1000
Flags: HMW
LayerCount: 4
Fore
SplineSet
662 1174 m 0
 522 1174 458 1132 458 1052 c 0
 458 992 556 973 662 945 c 0
 1029 847 1277 725 1277 445 c 0
 1277 165 1072 -30 662 -30 c 0
 357 -30 93 91 50 361 c 1
 423 461 l 0
 423 361 512 306 662 306 c 0
 812 306 897 355 897 445 c 0
 897 535 768 549 662 577 c 0
 314 670 78 792 78 1052 c 0
 78 1312 292 1510 662 1510 c 0
 967 1510 1206 1394 1249 1124 c 1
 876 1024 l 0
 876 1124 802 1174 662 1174 c 0
814 1660 m 29
 814 -180 l 29
 510 -180 l 5
 510 1660 l 5
 814 1660 l 29
EndSplineSet
Substitution2: "'ss08' Alternative ampersand, dollar and cent lookups0-1" dollar.ss08
Colour: ffff
EndChar

StartChar: plus
Encoding: 43 43 143
Width: 1278
Flags: HMW
LayerCount: 4
Fore
SplineSet
459 1230 m 1
 819 1230 l 1
 819 90 l 17
 459 90 l 1
 459 1230 l 1
70 500 m 1
 70 820 l 1
 1208 820 l 21
 1208 500 l 5
 70 500 l 1
EndSplineSet
Substitution2: "'ss07' Bigger basic math operators lookups0-1" plus.ss07
Colour: ff00
EndChar

StartChar: hyphen
Encoding: 45 45 144
Width: 1038
Flags: HMW
LayerCount: 4
Fore
SplineSet
70 500 m 5
 70 820 l 1
 968 820 l 17
 968 500 l 5
 70 500 l 5
EndSplineSet
Substitution2: "'ss07' Bigger basic math operators lookups0-1" hyphen.ss07
Colour: ff00
EndChar

StartChar: equal
Encoding: 61 61 145
Width: 1278
Flags: HMW
LayerCount: 4
Fore
SplineSet
1208 1070 m 21
 1208 750 l 5
 70 750 l 5
 70 1070 l 5
 1208 1070 l 21
70 250 m 5
 70 570 l 5
 1208 570 l 21
 1208 250 l 5
 70 250 l 5
EndSplineSet
Colour: ff00
EndChar

StartChar: percent
Encoding: 37 37 146
Width: 2144
VWidth: 1000
Flags: HMW
LayerCount: 4
Fore
SplineSet
399 1116 m 0
 399 1066 434 1032 484 1032 c 0
 534 1032 568 1066 568 1116 c 0
 568 1166 534 1200 484 1200 c 0
 434 1200 399 1166 399 1116 c 0
50 1116 m 0
 50 1341 259 1520 484 1520 c 0
 709 1520 918 1341 918 1116 c 0
 918 891 709 712 484 712 c 0
 259 712 50 891 50 1116 c 0
1575 364 m 0
 1575 314 1610 280 1660 280 c 0
 1710 280 1744 314 1744 364 c 0
 1744 414 1710 448 1660 448 c 0
 1610 448 1575 414 1575 364 c 0
1226 364 m 0
 1226 589 1435 768 1660 768 c 0
 1885 768 2094 589 2094 364 c 0
 2094 139 1885 -40 1660 -40 c 0
 1435 -40 1226 139 1226 364 c 0
1602 1302 m 5
 850 0 l 1
 542 178 l 1
 1294 1480 l 1
 1602 1302 l 5
EndSplineSet
Colour: ff00
EndChar

StartChar: degree
Encoding: 176 176 147
Width: 968
VWidth: 1000
Flags: HMW
LayerCount: 4
Fore
SplineSet
399 1116 m 0
 399 1066 434 1032 484 1032 c 4
 534 1032 568 1066 568 1116 c 4
 568 1166 534 1200 484 1200 c 4
 434 1200 399 1166 399 1116 c 0
50 1116 m 0
 50 1346 254 1520 484 1520 c 4
 714 1520 918 1346 918 1116 c 4
 918 886 714 712 484 712 c 4
 254 712 50 886 50 1116 c 0
EndSplineSet
Colour: ff00
EndChar

StartChar: ampersand
Encoding: 38 38 148
Width: 1498
VWidth: 1000
Flags: HMW
LayerCount: 4
Back
SplineSet
986 600 m 4
 986 360 846 140 566 140 c 4
 366 140 246 262 246 418 c 4
 66 418 l 4
 66 175 266 -20 566 -20 c 4
 986 -20 1149 265 1169 550 c 5
 986 600 l 4
EndSplineSet
Fore
SplineSet
290 815 m 5
 290 815 170 929 170 1083 c 0
 170 1262 290 1510 650 1510 c 0
 1010 1510 1130 1287 1130 1147 c 0
 770 1107 l 0
 770 1167 730 1190 650 1190 c 0
 570 1190 530 1153 530 1083 c 0
 530 1053 540 1027 576 989 c 1
 1448 0 l 1
 1363 0 1105 0 1020 0 c 1
 290 815 l 5
409 423 m 0
 409 347 472 290 692 290 c 0
 962 290 1059 517 1059 667 c 0
 1401 573 l 1
 1381 288 1150 -30 650 -30 c 0
 290 -30 50 120 50 423 c 0
 50 656 304 789 650 989 c 0
 702 1019 770 1067 770 1107 c 1
 1130 1147 l 1
 1130 917 996 817 650 617 c 0
 563 567 409 506 409 423 c 0
EndSplineSet
Layer: 2
SplineSet
281.7890625 895.231445312 m 5
 226.015625 970.026367188 194 1045.75 194 1148 c 0
 194 1367 366 1500 566 1500 c 0
 766 1500 938 1367 938 1148 c 0
 758 1148 l 0
 758 1268 674 1340 566 1340 c 0
 458 1340 374 1288 374 1148 c 0
 374 1068 389.116210938 1031.30761719 426.055664062 984.02734375 c 5
 281.7890625 895.231445312 l 5
758 1148 m 1
 938 1148 l 1025
EndSplineSet
Layer: 3
SplineSet
425 986 m 1
 282 895 l 1
 1007 0 l 5
 1078.33300781 0 1149.66699219 0 1221 0 c 5
 425 986 l 1
66 418 m 1
 66 661 306.192382812 776 566 926 c 0
 695.904296875 1001 758 1028 758 1148 c 1
 938 1148 l 1
 938 948 765.185546875 855 566 740 c 0
 392.794921875 640 246 561 246 418 c 1
 66 418 l 1
EndSplineSet
Substitution2: "'ss08' Alternative ampersand, dollar and cent lookups0-1" ampersand.ss08
Colour: ff00
EndChar

StartChar: asterisk
Encoding: 42 42 149
Width: 1186
Flags: HMW
LayerCount: 4
Back
SplineSet
404 1070 m 21
 484 1070 l 5
 564 1070 l 13
 576 1480 l 29
 392 1480 l 29
 404 1070 l 21
EndSplineSet
Fore
SplineSet
50 951 m 29
 163 1301 l 29
 643 1120 l 21
 593 968 l 5
 544 816 l 13
 50 951 l 29
441 446 m 29
 143 662 l 29
 464 1062 l 21
 593 968 l 5
 722 874 l 13
 441 446 l 29
1043 662 m 29
 745 446 l 29
 464 874 l 21
 593 968 l 5
 722 1062 l 13
 1043 662 l 29
1023 1301 m 29
 1136 951 l 29
 642 816 l 21
 593 968 l 5
 543 1120 l 13
 1023 1301 l 29
409 1480 m 29
 777 1480 l 29
 753 968 l 21
 593 968 l 5
 433 968 l 13
 409 1480 l 29
EndSplineSet
Colour: ff00
EndChar

StartChar: less
Encoding: 60 60 150
Width: 1278
Flags: HMW
LayerCount: 4
Fore
SplineSet
70 498 m 1
 70 822 l 1
 1208 1274 l 5
 1208 930 l 5
 472 660 l 1
 1208 390 l 5
 1208 46 l 5
 70 498 l 1
EndSplineSet
Colour: ff00
EndChar

StartChar: greater
Encoding: 62 62 151
Width: 1278
Flags: HMW
LayerCount: 4
Fore
SplineSet
1208 498 m 1
 70 46 l 5
 70 390 l 5
 806 660 l 1
 70 930 l 5
 70 1274 l 5
 1208 822 l 1
 1208 498 l 1
EndSplineSet
Colour: ff00
EndChar

StartChar: at
Encoding: 64 64 152
Width: 2080
VWidth: 1000
Flags: HMW
LayerCount: 4
Back
SplineSet
1193.51367188 580 m 4
 1168.63769531 403 1066.14648438 307 916.146484375 307 c 4
 766.146484375 307 690.637695312 403 715.513671875 580 c 4
 740.389648438 757 842.741210938 852 992.741210938 852 c 4
 1142.74121094 852 1218.38964844 757 1193.51367188 580 c 4
1355.51367188 580 m 4
 1320.37890625 330 1143.79980469 148 893.799804688 148 c 4
 643.799804688 148 500.37890625 330 535.513671875 580 c 4
 570.6484375 830 765.227539062 1012 1015.22753906 1012 c 4
 1115.22753906 1012 1185.86816406 956.568359375 1234.48632812 900 c 5
 1241.23242188 948 1247.97851562 996 1247.97851562 996 c 5
 1413.97851562 996 l 5
 1413.97851562 996 1406.67089844 944 1395.14648438 862 c 5
 1355.51367188 580 l 4
EndSplineSet
Fore
SplineSet
1030 1510 m 3
 1590 1510 2030 1180 2030 660 c 0
 1670 660 l 17
 1670 980 1440 1190 1040 1190 c 0
 640 1190 410 900 410 580 c 0
 410 260 640 -30 1040 -30 c 0
 1213 -30 1356 16 1463 106 c 1
 1676 -148 l 1
 1504 -280 1284 -350 1040 -350 c 0
 480 -350 50 60 50 580 c 0
 50 1100 470 1510 1030 1510 c 3
1033 713 m 0
 973 713 928 670 915 580 c 0
 913 569 913 559 913 549 c 0
 913 480 942 457 995 457 c 0
 1055 457 1097 490 1113 580 c 0
 1115 591 1115 601 1115 611 c 0
 1115 680 1086 713 1033 713 c 0
1058 1023 m 0
 1139 1023 1174 971 1179 963 c 1
 1185 1004 l 25
 1534 1004 l 17
 1463 580 l 0
 1420 335 1200 137 950 137 c 0
 720 137 551 299 551 521 c 0
 551 540 552 580 555 600 c 0
 590 850 808 1023 1058 1023 c 0
1531 128 m 0
 1304 128 1106 254 1106 497 c 0
 1106 523 1107 538 1113 580 c 1
 1463 580 l 1
 1463 580 1460 558 1460 546 c 0
 1460 507 1473 447 1556 447 c 0
 1640 447 1670 561 1670 660 c 1
 2030 660 l 1
 2030 360 1819 128 1531 128 c 0
EndSplineSet
Colour: ff00
EndChar

StartChar: asciicircum
Encoding: 94 94 153
Width: 1176
VWidth: 1000
Flags: HMW
LayerCount: 4
Fore
SplineSet
754 656 m 1
 589 1080 l 5
 422 656 l 1
 50 656 l 1
 412 1480 l 1
 764 1480 l 1
 1126 656 l 1
 754 656 l 1
EndSplineSet
Colour: ff00
EndChar

StartChar: underscore
Encoding: 95 95 154
Width: 1278
Flags: HMW
LayerCount: 4
Fore
SplineSet
0 0 m 1
 1278 0 l 5
 1278 -320 l 5
 0 -320 l 1
 0 0 l 1
EndSplineSet
Colour: ff00
EndChar

StartChar: grave
Encoding: 96 96 155
Width: 652
VWidth: 1000
Flags: HMW
AnchorPoint: "dieresis_center" 439 1140 mark 0
AnchorPoint: "top_left" 730 1480 mark 0
AnchorPoint: "top_left_O2" 717 1224 mark 0
AnchorPoint: "top_center" 439 1040 mark 0
LayerCount: 4
Fore
SplineSet
261 1224 m 5
 35 1480 l 5
 439 1480 l 5
 617 1224 l 5
 261 1224 l 5
EndSplineSet
Colour: ffff00
EndChar

StartChar: asciitilde
Encoding: 126 126 156
Width: 1278
VWidth: 1000
Flags: HMW
LayerCount: 4
Fore
SplineSet
384 427 m 5
 70 520 l 5
 98 715 218 885 478 885 c 4
 628 885 725 747 800 747 c 4
 875 747 894 850 894 885 c 5
 1208 792 l 5
 1180 597 1060 427 800 427 c 4
 650 427 553 565 478 565 c 4
 403 565 384 462 384 427 c 5
EndSplineSet
Substitution2: "'ss07' Bigger basic math operators lookups0-1" asciitilde.ss07
Colour: ff00
EndChar

StartChar: exclamdown
Encoding: 161 161 157
Width: 552
Flags: HMW
LayerCount: 4
Fore
SplineSet
476 880 m 0
 476 769 387 680 276 680 c 0
 165 680 76 769 76 880 c 0
 76 991 165 1080 276 1080 c 0
 387 1080 476 991 476 880 c 0
482 -440 m 1
 70 -440 l 1
 116 588 l 1
 436 588 l 1
 482 -440 l 1
EndSplineSet
Colour: ff00
EndChar

StartChar: cent
Encoding: 162 162 158
Width: 1137
VWidth: 1000
Flags: HMW
LayerCount: 4
Fore
SplineSet
937 1220 m 25
 557 -180 l 25
 261 -180 l 1
 641 1220 l 1
 937 1220 l 25
410 520 m 0
 410 383 463 290 600 290 c 0
 704 290 759 344 780 430 c 1
 1087 252 l 1
 999 79 821 -30 600 -30 c 0
 280 -30 50 200 50 520 c 0
 50 840 279 1070 599 1070 c 0
 820 1070 999 961 1087 788 c 1
 780 610 l 1
 759 696 704 750 600 750 c 0
 463 750 410 657 410 520 c 0
EndSplineSet
Substitution2: "'ss08' Alternative ampersand, dollar and cent lookups0-1" cent.ss08
Colour: ff00
EndChar

StartChar: sterling
Encoding: 163 163 159
Width: 1452
VWidth: 1000
Flags: HMW
LayerCount: 4
Fore
SplineSet
346 560 m 1
 854 560 l 1
 854 880 l 1
 346 880 l 1
 50 880 l 1
 50 834 50 606 50 560 c 1
 346 560 l 1
529 1010 m 0
 529 1130 656 1184 751 1184 c 0
 866 1184 973 1110 973 1000 c 0
 973 942 966 916 966 916 c 1
 1333 1000 l 0
 1333 1320 1087 1520 751 1520 c 0
 415 1520 170 1320 170 1040 c 0
 170 808 322 774 322 594 c 0
 322 474 194 356 82 281 c 1
 359 61 l 1
 411 121 662 430 662 650 c 4
 662 810 529 840 529 1010 c 0
1314 351 m 1
 1278 331 1148 280 1052 280 c 0
 865 280 790 388 550 388 c 0
 382 388 190 316 82 281 c 1
 169 -40 l 1
 302 14 408 68 550 68 c 0
 737 68 812 -40 1052 -40 c 0
 1196 -40 1347 3 1402 30 c 1
 1314 351 l 1
EndSplineSet
Layer: 2
SplineSet
138 1040 m 4
 138 768 246 700 246 520 c 4
 246 400 192 215 138 104 c 5
 319 65 l 5
 354 155 426 340 426 540 c 4
 426 740 318 800 318 1040 c 4
 138 1040 l 4
EndSplineSet
Colour: ff00
EndChar

StartChar: currency
Encoding: 164 164 160
Width: 1278
Flags: HMW
LayerCount: 4
Fore
SplineSet
958 753 m 1
 728 975 l 1
 1001 1248 l 1
 1227 1022 l 1
 958 753 l 1
282 529 m 1
 505 300 l 1
 277 72 l 1
 51 298 l 1
 282 529 l 1
722 351 m 1
 920 605 l 1
 1228 297 l 1
 1002 71 l 1
 722 351 l 1
572 953 m 5
 333 740 l 1
 50 1023 l 1
 276 1249 l 1
 572 953 l 5
154 656 m 0
 154 907 371 1116 634 1116 c 0
 897 1116 1114 907 1114 656 c 0
 1114 405 897 196 634 196 c 0
 371 196 154 405 154 656 c 0
514 656 m 0
 514 576 554 516 634 516 c 0
 714 516 754 576 754 656 c 0
 754 736 714 796 634 796 c 0
 554 796 514 736 514 656 c 0
EndSplineSet
Colour: ff00
EndChar

StartChar: yen
Encoding: 165 165 161
Width: 1572
VWidth: 1000
Flags: HMW
LayerCount: 4
Fore
SplineSet
229 532 m 1
 229 836 l 1
 1343 836 l 17
 1343 532 l 1
 229 532 l 1
229 168 m 1
 229 472 l 1
 1343 472 l 17
 1343 168 l 1
 229 168 l 1
596 0 m 29
 596 834 l 25
 976 834 l 25
 976 0 l 25
 596 0 l 29
789 426 m 1
 659 608 l 1
 35 1480 l 1
 463 1480 l 1
 786 988 l 1
 1109 1480 l 1
 1537 1480 l 1
 789 426 l 1
EndSplineSet
Colour: ffff
EndChar

StartChar: brokenbar
Encoding: 166 166 162
Width: 460
Flags: HMW
LayerCount: 4
Fore
SplineSet
70 480 m 1
 390 480 l 1
 390 -320 l 9
 70 -320 l 1
 70 480 l 1
390 840 m 1
 70 840 l 1
 70 1640 l 1
 390 1640 l 17
 390 840 l 1
EndSplineSet
Colour: ff00
EndChar

StartChar: section
Encoding: 167 167 163
Width: 1292
VWidth: 1000
Flags: HMW
LayerCount: 4
Fore
SplineSet
646 713 m 0
 496 713 431 646 431 568 c 0
 431 490 539 462 646 439 c 0
 1018 360 1222 217 1222 -33 c 0
 1222 -283 1056 -470 646 -470 c 0
 341 -470 110 -362 70 -107 c 1
 423 -7 l 0
 423 -87 496 -150 646 -150 c 0
 796 -150 862 -111 862 -33 c 0
 862 45 753 78 646 101 c 4
 274 180 71 318 71 568 c 0
 71 818 236 971 646 971 c 0
 646 713 l 0
646 359 m 4
 796 359 862 426 862 504 c 0
 862 582 753 610 646 633 c 0
 294 708 122 855 122 1075 c 0
 122 1295 296 1510 646 1510 c 0
 916 1510 1141 1385 1174 1149 c 1
 821 1049 l 0
 821 1129 786 1190 646 1190 c 0
 506 1190 482 1147 482 1075 c 0
 482 1023 539 994 646 971 c 0
 1018 892 1222 754 1222 504 c 0
 1222 254 1056 101 646 101 c 4
 646 359 l 4
EndSplineSet
Colour: ff00
EndChar

StartChar: dieresis
Encoding: 168 168 164
Width: 1100
VWidth: 1000
Flags: HMW
LayerCount: 4
Fore
SplineSet
665 1352 m 0
 665 1463 754 1552 865 1552 c 0
 976 1552 1065 1463 1065 1352 c 0
 1065 1241 976 1152 865 1152 c 0
 754 1152 665 1241 665 1352 c 0
35 1352 m 0
 35 1463 124 1552 235 1552 c 0
 346 1552 435 1463 435 1352 c 0
 435 1241 346 1152 235 1152 c 0
 124 1152 35 1241 35 1352 c 0
EndSplineSet
Colour: ff00
EndChar

StartChar: copyright
Encoding: 169 169 165
Width: 1720
VWidth: 1528
Flags: HMW
LayerCount: 4
Fore
SplineSet
220 740 m 0
 220 380 500 100 860 100 c 0
 1220 100 1500 380 1500 740 c 0
 1500 1100 1220 1380 860 1380 c 0
 500 1380 220 1100 220 740 c 0
100 740 m 0
 100 1160 440 1500 860 1500 c 0
 1280 1500 1620 1160 1620 740 c 0
 1620 320 1280 -20 860 -20 c 0
 440 -20 100 320 100 740 c 0
677 738 m 4
 677 858 740 947 860 947 c 0
 944 947 1002 909 1027 843 c 1
 1258 975 l 1
 1185 1109 1044 1187 860 1187 c 0
 586 1187 406 1013 406 739 c 0
 406 465 586 291 860 291 c 0
 1044 291 1185 369 1258 503 c 1
 1027 635 l 1
 1002 569 944 531 860 531 c 0
 740 531 677 618 677 738 c 4
EndSplineSet
Colour: ff8000
EndChar

StartChar: registered
Encoding: 174 174 166
Width: 1720
VWidth: 1528
Flags: HMW
LayerCount: 4
Fore
SplineSet
220 740 m 0
 220 380 500 100 860 100 c 0
 1220 100 1500 380 1500 740 c 0
 1500 1100 1220 1380 860 1380 c 0
 500 1380 220 1100 220 740 c 0
100 740 m 0
 100 1160 440 1500 860 1500 c 0
 1280 1500 1620 1160 1620 740 c 0
 1620 320 1280 -20 860 -20 c 0
 440 -20 100 320 100 740 c 0
513 311 m 1
 513 1169 l 1
 873 1169 l 2
 1111 1169 1234 1018 1234 859 c 0
 1234 700 1103 550 873 550 c 2
 783 550 l 1
 783 311 l 1
 513 311 l 1
783 929 m 1
 783 790 l 1
 873 790 l 2
 933 790 963 812 963 860 c 0
 963 908 933 929 873 929 c 2
 783 929 l 1
761 632 m 5
 1017 700 l 1
 1280 311 l 1
 972 311 l 1
 761 632 l 5
EndSplineSet
Colour: ff8000
EndChar

StartChar: questiondown
Encoding: 191 191 167
Width: 1264
VWidth: 1000
Flags: HMW
LayerCount: 4
Fore
SplineSet
632 -150 m 4
 547 -150 440 -105 440 15 c 4
 440 135 537 164 632 164 c 4
 632 500 l 4
 296 500 80 315 80 15 c 4
 80 -285 336 -470 632 -470 c 0
 928 -470 1184 -307 1184 13 c 4
 817 97 l 5
 817 97 824 71 824 13 c 4
 824 -87 737 -150 632 -150 c 4
826 880 m 0
 826 769 737 680 626 680 c 0
 515 680 426 769 426 880 c 0
 426 991 515 1080 626 1080 c 0
 737 1080 826 991 826 880 c 0
806 588 m 5
 446 588 l 5
 446 164 l 5
 806 164 l 5
 806 588 l 5
EndSplineSet
Colour: ff00
EndChar

StartChar: acute
Encoding: 180 180 169
Width: 710
VWidth: 1000
Flags: HMW
AnchorPoint: "top_left" 730 1480 mark 0
AnchorPoint: "top_left_O2" 518 1224 mark 0
AnchorPoint: "dieresis_center" 242 1140 mark 0
AnchorPoint: "top_center" 242 1040 mark 0
LayerCount: 4
Fore
SplineSet
420 1224 m 5
 646 1480 l 5
 242 1480 l 5
 64 1224 l 5
 420 1224 l 5
EndSplineSet
Colour: ffff00
EndChar

StartChar: two.superior
Encoding: 178 178 170
Width: 956
VWidth: 1528
Flags: HMW
LayerCount: 4
Fore
SplineSet
102 810 m 1
 102 937 115 1119 478 1288 c 0
 532 1313 586 1333 586 1376 c 0
 586 1425 533 1446 478 1446 c 0
 411 1446 383 1407 383 1360 c 4
 383 1319 392 1300 392 1300 c 5
 112 1360 l 1
 112 1561 269 1686 478 1686 c 0
 687 1686 854 1579 854 1401 c 0
 854 1223 757 1176 596 1101 c 0
 551 1080 519 1065 506 1050 c 1
 854 1050 l 1
 854 810 l 1
 339 810 l 1
 170 810 l 1
 102 810 l 1
EndSplineSet
Substitution2: "'tnum' Tabular Numbers lookups0-1" two.superior.tnum
Substitution2: "'pnum' Proportional Numbers lookups0-1" two.superior.pnum
Colour: ff8000
EndChar

StartChar: three.superior
Encoding: 179 179 171
Width: 956
VWidth: 1528
Flags: HMW
LayerCount: 4
Fore
SplineSet
477 1352 m 6
 547 1352 574 1371 574 1399 c 4
 574 1427 547 1446 477 1446 c 4
 407 1446 380 1417 380 1379 c 4
 114 1452 l 5
 131 1604 264 1686 477 1686 c 4
 704 1686 842 1593 842 1420 c 4
 842 1300 763 1263 763 1263 c 5
 763 1263 880 1222 880 1075 c 4
 880 885 725 792 477 792 c 4
 241 792 102 895 77 1047 c 5
 346 1120 l 4
 346 1066 389 1032 477 1032 c 4
 565 1032 610 1056 610 1100 c 4
 610 1144 565 1168 477 1168 c 6
 407 1168 l 13
 407 1352 l 29
 477 1352 l 6
EndSplineSet
Substitution2: "'tnum' Tabular Numbers lookups0-1" three.superior.tnum
Substitution2: "'pnum' Proportional Numbers lookups0-1" three.superior.pnum
Colour: ff8000
EndChar

StartChar: one.superior
Encoding: 185 185 172
Width: 956
VWidth: 1528
Flags: HMW
LayerCount: 4
Fore
SplineSet
388 1266 m 1
 168 1266 l 1
 168 1506 l 1
 224 1506 l 2
 326 1506 405 1576 405 1652 c 2
 405 1668 l 1
 658 1668 l 1
 658 1413 l 1
 658 810 l 1
 388 810 l 1
 388 1266 l 1
EndSplineSet
Substitution2: "'pnum' Proportional Numbers lookups0-1" one.superior.pnum
Substitution2: "'tnum' Tabular Numbers lookups0-1" one.superior.tnum
Colour: ff8000
EndChar

StartChar: zero.superior
Encoding: 8304 8304 173
Width: 956
VWidth: 1528
Flags: HMW
LayerCount: 4
Fore
SplineSet
352 1239 m 4
 352 1083 406 1032 478 1032 c 0
 550 1032 604 1083 604 1239 c 0
 604 1395 550 1446 478 1446 c 0
 406 1446 352 1395 352 1239 c 4
82 1238 m 0
 82 1528 240 1686 478 1686 c 0
 716 1686 874 1528 874 1238 c 0
 874 948 716 792 478 792 c 0
 240 792 82 948 82 1238 c 0
EndSplineSet
Substitution2: "'tnum' Tabular Numbers lookups0-1" zero.superior.tnum
Substitution2: "'pnum' Proportional Numbers lookups0-1" zero.superior.pnum
Colour: ff8000
EndChar

StartChar: four.superior
Encoding: 8308 8308 174
Width: 956
VWidth: 1528
Flags: HMW
LayerCount: 4
Fore
SplineSet
649 1668 m 1
 355 1668 l 1
 93 1164 l 1
 93 924 l 1
 489 924 l 1
 489 810 l 1
 759 810 l 1
 759 924 l 1
 863 924 l 1
 863 1164 l 1
 759 1164 l 1
 759 1278 l 1
 489 1278 l 1
 489 1164 l 1
 381 1164 l 1
 649 1668 l 1
EndSplineSet
Substitution2: "'pnum' Proportional Numbers lookups0-1" four.superior.pnum
Substitution2: "'tnum' Tabular Numbers lookups0-1" four.superior.tnum
Colour: ff8000
EndChar

StartChar: five.superior
Encoding: 8309 8309 175
Width: 956
VWidth: 1528
Flags: HMW
LayerCount: 4
Fore
SplineSet
310 1668 m 5
 439 1668 l 1
 805 1668 l 1
 805 1428 l 1
 399 1428 l 1
 389 1356 l 1
 414 1378 433 1386 493 1386 c 0
 718 1386 861 1289 861 1089 c 0
 861 889 702 792 477 792 c 0
 241 792 120 895 95 1047 c 1
 364 1120 l 0
 364 1066 389 1032 477 1032 c 0
 547 1032 590 1058 590 1104 c 0
 590 1150 547 1176 477 1176 c 0
 407 1176 403 1168 367 1141 c 1
 123 1206 l 1
 181 1668 l 1
 310 1668 l 5
EndSplineSet
Substitution2: "'pnum' Proportional Numbers lookups0-1" five.superior.pnum
Substitution2: "'tnum' Tabular Numbers lookups0-1" five.superior.tnum
Colour: ff8000
EndChar

StartChar: six.superior
Encoding: 8310 8310 176
Width: 956
VWidth: 1528
Flags: HMW
LayerCount: 4
Fore
SplineSet
357 1334 m 5
 389 1375 414 1392 511 1392 c 0
 736 1392 866 1286 866 1092 c 0
 866 898 718 792 488 792 c 0
 346 792 237 832 174 930 c 0
 121 1013 90 1109 90 1212 c 0
 90 1494 214 1686 574 1686 c 0
 735 1686 831 1606 831 1606 c 1
 714 1400 l 1
 714 1400 636 1446 524 1446 c 0
 412 1446 370 1395 357 1334 c 5
382 1107 m 0
 382 1057 428 1032 488 1032 c 0
 548 1032 595 1057 595 1107 c 0
 595 1157 548 1182 488 1182 c 0
 428 1182 382 1157 382 1107 c 0
EndSplineSet
Substitution2: "'pnum' Proportional Numbers lookups0-1" six.superior.pnum
Substitution2: "'tnum' Tabular Numbers lookups0-1" six.superior.tnum
Colour: ff8000
EndChar

StartChar: seven.superior
Encoding: 8311 8311 177
Width: 956
VWidth: 1528
Flags: HMW
LayerCount: 4
Fore
SplineSet
108 1429 m 1
 108 1668 l 1
 848 1668 l 1
 848 1449 l 1
 848 1449 561 1266 510 810 c 1
 459 810 290 810 239 810 c 1
 296 1265 527 1429 527 1429 c 1
 108 1429 l 1
EndSplineSet
Substitution2: "'tnum' Tabular Numbers lookups0-1" seven.superior.tnum
Substitution2: "'pnum' Proportional Numbers lookups0-1" seven.superior.pnum
Colour: ff8000
EndChar

StartChar: eight.superior
Encoding: 8312 8312 178
Width: 956
VWidth: 1528
Flags: HMW
LayerCount: 4
Fore
SplineSet
76 1075 m 0
 76 1222 190 1263 190 1263 c 1
 190 1263 112 1300 112 1420 c 0
 112 1593 250 1686 477 1686 c 0
 704 1686 842 1593 842 1420 c 0
 842 1300 763 1263 763 1263 c 1
 763 1263 880 1222 880 1075 c 0
 880 885 725 792 477 792 c 0
 229 792 76 885 76 1075 c 0
380 1399 m 0
 380 1371 407 1352 477 1352 c 0
 547 1352 574 1371 574 1399 c 0
 574 1427 547 1446 477 1446 c 0
 407 1446 380 1427 380 1399 c 0
477 1168 m 4
 389 1168 346 1144 346 1100 c 0
 346 1056 389 1032 477 1032 c 0
 565 1032 610 1056 610 1100 c 0
 610 1144 565 1168 477 1168 c 4
EndSplineSet
Substitution2: "'tnum' Tabular Numbers lookups0-1" eight.superior.tnum
Substitution2: "'pnum' Proportional Numbers lookups0-1" eight.superior.pnum
Colour: ff8000
EndChar

StartChar: nine.superior
Encoding: 8313 8313 179
Width: 956
VWidth: 1528
Flags: HMW
LayerCount: 4
Fore
SplineSet
599 1144 m 5
 567 1103 542 1086 445 1086 c 0
 220 1086 90 1192 90 1386 c 0
 90 1580 238 1686 468 1686 c 0
 610 1686 719 1646 782 1548 c 0
 835 1465 866 1369 866 1266 c 0
 866 984 742 792 382 792 c 0
 221 792 125 872 125 872 c 1
 242 1078 l 1
 242 1078 320 1032 432 1032 c 0
 544 1032 586 1083 599 1144 c 5
574 1371 m 0
 574 1421 528 1446 468 1446 c 0
 408 1446 361 1421 361 1371 c 0
 361 1321 408 1296 468 1296 c 0
 528 1296 574 1321 574 1371 c 0
EndSplineSet
Substitution2: "'pnum' Proportional Numbers lookups0-1" nine.superior.pnum
Substitution2: "'tnum' Tabular Numbers lookups0-1" nine.superior.tnum
Colour: ff8000
EndChar

StartChar: ordfeminine
Encoding: 170 170 180
Width: 952
VWidth: 1528
Flags: HMW
LayerCount: 4
Fore
SplineSet
100 681 m 5
 100 921 l 5
 852 921 l 5
 852 681 l 5
 100 681 l 5
615 1060 m 1
 587 1016 510 980 425 980 c 0
 248 980 147 1081 147 1212 c 0
 147 1343 276 1421 453 1421 c 0
 472 1421 504 1416 530 1404 c 1
 529 1412 507 1436 453 1436 c 0
 322 1436 256 1404 256 1404 c 1
 175 1591 l 1
 175 1591 297 1646 453 1646 c 0
 624 1646 759 1606 759 1401 c 2
 759 1342 l 1
 759 1313 l 1
 759 1266 l 2
 759 1231 780 1196 822 1196 c 1
 775 979 l 1
 704 986 652 1021 615 1060 c 1
520 1230 m 0
 520 1238 503 1240 453 1240 c 0
 403 1240 385 1238 385 1230 c 0
 385 1222 403 1220 453 1220 c 0
 503 1220 520 1222 520 1230 c 0
EndSplineSet
Substitution2: "'ss04' Simplified a and g lookups0-1" ordfeminine.ss04
Colour: ff8000
EndChar

StartChar: ordmasculine
Encoding: 186 186 181
Width: 952
VWidth: 1528
Flags: HMW
LayerCount: 4
Fore
SplineSet
476 1619 m 4
 276 1619 135 1499 135 1299 c 4
 135 1099 276 980 476 980 c 4
 676 980 817 1099 817 1299 c 4
 817 1499 676 1619 476 1619 c 4
476 1220 m 4
 426 1220 405 1249 405 1299 c 4
 405 1349 426 1379 476 1379 c 4
 526 1379 547 1349 547 1299 c 4
 547 1249 526 1220 476 1220 c 4
100 681 m 5
 100 921 l 5
 852 921 l 5
 852 681 l 5
 100 681 l 5
EndSplineSet
Colour: ff8000
EndChar

StartChar: guillemotleft
Encoding: 171 171 182
Width: 1460
VWidth: 1000
Flags: HMW
LayerCount: 4
Fore
SplineSet
1017 196 m 1
 667 660 l 1
 1017 1126 l 1
 1425 1126 l 5
 1071 660 l 5
 1425 196 l 5
 1017 196 l 1
385 196 m 1
 35 660 l 1
 385 1126 l 1
 793 1126 l 1
 439 660 l 1
 793 196 l 1
 385 196 l 1
EndSplineSet
Colour: ff00
EndChar

StartChar: logicalnot
Encoding: 172 172 183
Width: 1278
Flags: HMW
LayerCount: 4
Fore
SplineSet
848 647 m 5
 848 260 l 1
 1208 260 l 1
 1208 820 l 1
 848 647 l 5
70 500 m 1
 1048 500 l 1
 1208 820 l 9
 70 820 l 1
 70 500 l 1
EndSplineSet
Colour: ff00
EndChar

StartChar: guillemotright
Encoding: 187 187 184
Width: 1460
VWidth: 1000
Flags: HMW
LayerCount: 4
Fore
SplineSet
443 196 m 1
 793 660 l 1
 443 1126 l 1
 35 1126 l 1
 389 660 l 1
 35 196 l 1
 443 196 l 1
1075 196 m 1
 1425 660 l 1
 1075 1126 l 1
 667 1126 l 1
 1021 660 l 1
 667 196 l 1
 1075 196 l 1
EndSplineSet
Colour: ff00
EndChar

StartChar: plusminus
Encoding: 177 177 185
Width: 1278
Flags: HMW
LayerCount: 4
Fore
SplineSet
70 0 m 1
 1208 0 l 5
 1208 -320 l 5
 70 -320 l 1
 70 0 l 1
459 1230 m 1
 459 90 l 1
 819 90 l 9
 819 1230 l 1
 459 1230 l 1
70 500 m 1
 1208 500 l 1
 1208 820 l 9
 70 820 l 1
 70 500 l 1
EndSplineSet
Colour: ff00
EndChar

StartChar: paragraph
Encoding: 182 182 186
Width: 1318
VWidth: 1000
Flags: HMW
LayerCount: 4
Fore
SplineSet
1178 1500 m 1
 567 1500 l 1
 567 1340 l 1
 1178 1340 l 1
 1178 1500 l 1
866 1439 m 1
 866 -440 l 1
 1018 -440 l 1
 1018 1439 l 1
 866 1439 l 1
506 1440 m 5
 506 -440 l 1
 658 -440 l 1
 658 1440 l 1
 577 1440 l 1
 506 1440 l 5
100 1058 m 0
 100 788 297 616 567 616 c 0
 567 1500 l 0
 297 1500 100 1328 100 1058 c 0
EndSplineSet
Colour: ff00
EndChar

StartChar: periodcentered
Encoding: 183 183 187
Width: 500
VWidth: 1000
Flags: HMW
LayerCount: 4
Fore
SplineSet
50 660 m 4
 50 771 139 860 250 860 c 4
 361 860 450 771 450 660 c 4
 450 549 361 460 250 460 c 4
 139 460 50 549 50 660 c 4
EndSplineSet
Colour: ff00
EndChar

StartChar: cedilla
Encoding: 184 184 188
Width: 492
VWidth: 1000
Flags: HMW
LayerCount: 4
Fore
SplineSet
35 -314 m 1
 164 -239 l 1
 186 -268 226 -272 241 -272 c 0
 276 -272 297 -261 297 -246 c 0
 297 -231 276 -220 241 -220 c 0
 226 -220 207 -223 194 -232 c 1
 64 -170 l 1
 99 -120 143 -60 241 -60 c 0
 361 -60 457 -146 457 -246 c 0
 457 -346 391 -432 241 -432 c 0
 141 -432 81 -375 35 -314 c 1
166 0 m 1
 326 0 l 1
 201 -205 l 1
 194 -232 l 1
 65 -171 l 1
 166 0 l 1
EndSplineSet
Colour: ffc71c
EndChar

StartChar: threequarters
Encoding: 190 190 189
Width: 2228
VWidth: 1548
Flags: HMW
LayerCount: 4
Fore
SplineSet
460 1164 m 2
 530 1164 557 1183 557 1211 c 0
 557 1239 530 1258 460 1258 c 0
 390 1258 363 1229 363 1191 c 0
 97 1264 l 1
 114 1416 247 1498 460 1498 c 0
 687 1498 825 1405 825 1232 c 0
 825 1112 746 1075 746 1075 c 1
 746 1075 863 1034 863 887 c 0
 863 697 708 604 460 604 c 0
 224 604 85 707 60 859 c 1
 329 932 l 0
 329 878 372 844 460 844 c 0
 548 844 593 868 593 912 c 0
 593 956 548 980 460 980 c 2
 390 980 l 9
 390 1164 l 25
 460 1164 l 2
1939 858 m 1
 1645 858 l 1
 1383 354 l 1
 1383 114 l 1
 1779 114 l 1
 1779 0 l 1
 2049 0 l 1
 2049 114 l 1
 2153 114 l 1
 2153 354 l 1
 2049 354 l 1
 2049 468 l 1
 1779 468 l 1
 1779 354 l 1
 1671 354 l 1
 1939 858 l 1
868 67 m 1
 652 191 l 1
 1360 1413 l 1
 1576 1289 l 1
 868 67 l 1
EndSplineSet
Colour: ff8000
EndChar

StartChar: onequarter
Encoding: 188 188 190
Width: 2228
VWidth: 1548
Flags: HMW
LayerCount: 4
Fore
SplineSet
1939 858 m 1
 1645 858 l 1
 1383 354 l 1
 1383 114 l 1
 1779 114 l 1
 1779 0 l 1
 2049 0 l 1
 2049 114 l 1
 2153 114 l 1
 2153 354 l 1
 2049 354 l 1
 2049 468 l 1
 1779 468 l 5
 1779 354 l 5
 1671 354 l 1
 1939 858 l 1
383 1078 m 1
 163 1078 l 1
 163 1318 l 1
 219 1318 l 2
 321 1318 400 1388 400 1464 c 2
 400 1480 l 1
 653 1480 l 1
 653 1225 l 1
 653 622 l 1
 383 622 l 1
 383 1078 l 1
868 67 m 1
 652 191 l 1
 1360 1413 l 1
 1576 1289 l 1
 868 67 l 1
EndSplineSet
Substitution2: "'ss09' Bar below digit 1-1" onequarter.ss09
Colour: ff8000
EndChar

StartChar: onehalf
Encoding: 189 189 191
Width: 2228
VWidth: 1548
Flags: HMW
LayerCount: 4
Fore
SplineSet
1392 0 m 1
 1392 127 1405 309 1768 478 c 0
 1822 503 1876 523 1876 566 c 0
 1876 615 1823 636 1768 636 c 0
 1701 636 1672 597 1672 550 c 4
 1672 509 1681 490 1681 490 c 5
 1402 550 l 1
 1402 751 1559 876 1768 876 c 0
 1977 876 2144 769 2144 591 c 0
 2144 413 2047 366 1886 291 c 0
 1841 270 1809 255 1796 240 c 1
 2144 240 l 1
 2144 0 l 1
 1629 0 l 1
 1460 0 l 1
 1392 0 l 1
383 1078 m 1
 163 1078 l 1
 163 1318 l 1
 219 1318 l 2
 321 1318 400 1388 400 1464 c 2
 400 1480 l 1
 653 1480 l 1
 653 1225 l 1
 653 622 l 1
 383 622 l 1
 383 1078 l 1
868 67 m 1
 652 191 l 1
 1360 1413 l 1
 1576 1289 l 1
 868 67 l 1
EndSplineSet
Substitution2: "'ss09' Bar below digit 1-1" onehalf.ss09
Colour: ff8000
EndChar

StartChar: uni2156
Encoding: 8534 8534 192
Width: 2228
VWidth: 1548
Flags: HMW
LayerCount: 4
Fore
SplineSet
1414 396 m 1
 1472 858 l 1
 1601 858 l 1
 1730 858 l 1
 2096 858 l 1
 2096 618 l 1
 1690 618 l 1
 1680 546 l 1
 1705 568 1724 576 1784 576 c 0
 2009 576 2152 479 2152 279 c 0
 2152 79 1993 -18 1768 -18 c 0
 1532 -18 1411 85 1386 237 c 1
 1655 310 l 0
 1655 256 1680 222 1768 222 c 0
 1838 222 1881 248 1881 294 c 0
 1881 340 1838 366 1768 366 c 0
 1698 366 1694 358 1658 331 c 1
 1414 396 l 1
84 622 m 1
 84 749 97 931 460 1100 c 0
 514 1125 568 1145 568 1188 c 0
 568 1237 515 1258 460 1258 c 0
 393 1258 364 1219 364 1172 c 4
 364 1131 373 1112 373 1112 c 5
 94 1172 l 1
 94 1373 251 1498 460 1498 c 0
 669 1498 836 1391 836 1213 c 0
 836 1035 739 988 578 913 c 0
 533 892 501 877 488 862 c 1
 836 862 l 1
 836 622 l 1
 321 622 l 1
 152 622 l 1
 84 622 l 1
868 67 m 1
 652 191 l 1
 1360 1413 l 1
 1576 1289 l 1
 868 67 l 1
EndSplineSet
Colour: ff8000
EndChar

StartChar: twothirds
Encoding: 8532 8532 193
Width: 2228
VWidth: 1548
Flags: HMW
LayerCount: 4
Fore
SplineSet
1768 542 m 2
 1838 542 1865 561 1865 589 c 0
 1865 617 1838 636 1768 636 c 0
 1698 636 1671 607 1671 569 c 0
 1405 642 l 1
 1422 794 1555 876 1768 876 c 0
 1995 876 2133 783 2133 610 c 0
 2133 490 2054 453 2054 453 c 1
 2054 453 2171 412 2171 265 c 0
 2171 75 2016 -18 1768 -18 c 0
 1532 -18 1393 85 1368 237 c 1
 1637 310 l 0
 1637 256 1680 222 1768 222 c 0
 1856 222 1901 246 1901 290 c 0
 1901 334 1856 358 1768 358 c 2
 1698 358 l 9
 1698 542 l 25
 1768 542 l 2
84 622 m 1
 84 749 97 931 460 1100 c 0
 514 1125 568 1145 568 1188 c 0
 568 1237 515 1258 460 1258 c 0
 393 1258 364 1219 364 1172 c 4
 364 1131 373 1112 373 1112 c 5
 94 1172 l 1
 94 1373 251 1498 460 1498 c 0
 669 1498 836 1391 836 1213 c 0
 836 1035 739 988 578 913 c 0
 533 892 501 877 488 862 c 1
 836 862 l 1
 836 622 l 1
 321 622 l 1
 152 622 l 1
 84 622 l 1
868 67 m 1
 652 191 l 1
 1360 1413 l 1
 1576 1289 l 1
 868 67 l 1
EndSplineSet
Colour: ff8000
EndChar

StartChar: uni215F
Encoding: 8543 8543 194
Width: 2228
VWidth: 1548
Flags: HMW
LayerCount: 4
Fore
SplineSet
383 1078 m 1
 163 1078 l 1
 163 1318 l 1
 219 1318 l 2
 321 1318 400 1388 400 1464 c 2
 400 1480 l 1
 653 1480 l 1
 653 1225 l 1
 653 622 l 1
 383 622 l 1
 383 1078 l 1
868 67 m 5
 652 191 l 1
 1360 1413 l 1
 1576 1289 l 1
 868 67 l 5
EndSplineSet
Substitution2: "'ss09' Bar below digit 1-1" uni215F.ss09
Colour: ff8000
EndChar

StartChar: uni2150
Encoding: 8528 8528 195
Width: 2228
VWidth: 1548
Flags: HMW
LayerCount: 4
Fore
SplineSet
1378 619 m 1
 1378 858 l 1
 2118 858 l 1
 2118 639 l 1
 2118 639 1831 456 1780 0 c 1
 1729 0 1560 0 1509 0 c 1
 1566 455 1797 619 1797 619 c 1
 1378 619 l 1
383 1078 m 1
 163 1078 l 1
 163 1318 l 1
 219 1318 l 2
 321 1318 400 1388 400 1464 c 2
 400 1480 l 1
 653 1480 l 1
 653 1225 l 1
 653 622 l 1
 383 622 l 1
 383 1078 l 1
868 67 m 5
 652 191 l 1
 1360 1413 l 1
 1576 1289 l 1
 868 67 l 5
EndSplineSet
Substitution2: "'ss09' Bar below digit 1-1" uni2150.ss09
Colour: ff8000
EndChar

StartChar: uni2151
Encoding: 8529 8529 196
Width: 2228
VWidth: 1548
Flags: HMW
LayerCount: 4
Fore
SplineSet
1899 334 m 1
 1867 293 1842 276 1745 276 c 0
 1520 276 1390 382 1390 576 c 0
 1390 770 1538 876 1768 876 c 0
 1910 876 2019 836 2082 738 c 0
 2135 655 2166 559 2166 456 c 0
 2166 174 2042 -18 1682 -18 c 0
 1521 -18 1425 62 1425 62 c 1
 1542 268 l 1
 1542 268 1620 222 1732 222 c 0
 1844 222 1886 273 1899 334 c 1
1874 561 m 0
 1874 611 1828 636 1768 636 c 0
 1708 636 1661 611 1661 561 c 0
 1661 511 1708 486 1768 486 c 0
 1828 486 1874 511 1874 561 c 0
383 1078 m 1
 163 1078 l 1
 163 1318 l 1
 219 1318 l 2
 321 1318 400 1388 400 1464 c 2
 400 1480 l 1
 653 1480 l 1
 653 1225 l 1
 653 622 l 1
 383 622 l 1
 383 1078 l 1
868 67 m 5
 652 191 l 1
 1360 1413 l 1
 1576 1289 l 1
 868 67 l 5
EndSplineSet
Substitution2: "'ss09' Bar below digit 1-1" uni2151.ss09
Colour: ff8000
EndChar

StartChar: uni2152
Encoding: 8530 8530 197
Width: 2793
VWidth: 1548
Flags: HMW
LayerCount: 4
Fore
SplineSet
2187 429 m 0
 2187 273 2241 222 2313 222 c 0
 2385 222 2439 273 2439 429 c 0
 2439 585 2385 636 2313 636 c 0
 2241 636 2187 585 2187 429 c 0
1917 428 m 4
 1917 718 2075 876 2313 876 c 0
 2551 876 2709 718 2709 428 c 0
 2709 138 2551 -18 2313 -18 c 0
 2075 -18 1917 138 1917 428 c 4
1532 456 m 1
 1312 456 l 1
 1312 696 l 1
 1368 696 l 2
 1470 696 1549 766 1549 842 c 2
 1549 858 l 1
 1802 858 l 1
 1802 603 l 1
 1802 0 l 1
 1532 0 l 1
 1532 456 l 1
383 1078 m 1
 163 1078 l 1
 163 1318 l 1
 219 1318 l 2
 321 1318 400 1388 400 1464 c 2
 400 1480 l 1
 653 1480 l 1
 653 1225 l 1
 653 622 l 1
 383 622 l 1
 383 1078 l 1
868 67 m 1
 652 191 l 1
 1360 1413 l 1
 1576 1289 l 1
 868 67 l 1
EndSplineSet
Substitution2: "'ss09' Bar below digit 1-1" uni2152.ss09
Substitution2: "'zero' Slashed Zero lookups0-1" uni2152.zero
Colour: ff8000
EndChar

StartChar: onethird
Encoding: 8531 8531 198
Width: 2228
VWidth: 1548
Flags: HMW
LayerCount: 4
Fore
SplineSet
1768 542 m 2
 1838 542 1865 561 1865 589 c 0
 1865 617 1838 636 1768 636 c 0
 1698 636 1671 607 1671 569 c 0
 1405 642 l 1
 1422 794 1555 876 1768 876 c 0
 1995 876 2133 783 2133 610 c 0
 2133 490 2054 453 2054 453 c 1
 2054 453 2171 412 2171 265 c 0
 2171 75 2016 -18 1768 -18 c 0
 1532 -18 1393 85 1368 237 c 1
 1637 310 l 0
 1637 256 1680 222 1768 222 c 0
 1856 222 1901 246 1901 290 c 0
 1901 334 1856 358 1768 358 c 2
 1698 358 l 9
 1698 542 l 25
 1768 542 l 2
383 1078 m 1
 163 1078 l 1
 163 1318 l 1
 219 1318 l 2
 321 1318 400 1388 400 1464 c 2
 400 1480 l 1
 653 1480 l 1
 653 1225 l 1
 653 622 l 1
 383 622 l 1
 383 1078 l 1
868 67 m 5
 652 191 l 1
 1360 1413 l 1
 1576 1289 l 1
 868 67 l 5
EndSplineSet
Substitution2: "'ss09' Bar below digit 1-1" onethird.ss09
Colour: ff8000
EndChar

StartChar: uni2159
Encoding: 8537 8537 199
Width: 2228
VWidth: 1548
Flags: HMW
LayerCount: 4
Fore
SplineSet
1637 524 m 5
 1669 565 1694 582 1791 582 c 4
 2016 582 2146 476 2146 282 c 4
 2146 88 1998 -18 1768 -18 c 4
 1626 -18 1517 22 1454 120 c 4
 1401 203 1370 299 1370 402 c 4
 1370 684 1494 876 1854 876 c 4
 2015 876 2111 796 2111 796 c 5
 1994 590 l 5
 1994 590 1916 636 1804 636 c 4
 1692 636 1650 585 1637 524 c 5
1662 297 m 4
 1662 247 1708 222 1768 222 c 4
 1828 222 1875 247 1875 297 c 4
 1875 347 1828 372 1768 372 c 4
 1708 372 1662 347 1662 297 c 4
383 1078 m 1
 163 1078 l 1
 163 1318 l 1
 219 1318 l 2
 321 1318 400 1388 400 1464 c 2
 400 1480 l 1
 653 1480 l 1
 653 1225 l 1
 653 622 l 1
 383 622 l 1
 383 1078 l 1
868 67 m 1
 652 191 l 1
 1360 1413 l 1
 1576 1289 l 1
 868 67 l 1
EndSplineSet
Substitution2: "'ss09' Bar below digit 1-1" uni2159.ss09
Colour: ff8000
EndChar

StartChar: oneeighth
Encoding: 8539 8539 200
Width: 2228
VWidth: 1548
Flags: HMW
LayerCount: 4
Fore
SplineSet
1367 265 m 4
 1367 412 1481 453 1481 453 c 5
 1481 453 1403 490 1403 610 c 4
 1403 783 1541 876 1768 876 c 4
 1995 876 2133 783 2133 610 c 4
 2133 490 2054 453 2054 453 c 5
 2054 453 2171 412 2171 265 c 4
 2171 75 2016 -18 1768 -18 c 4
 1520 -18 1367 75 1367 265 c 4
1671 589 m 4
 1671 561 1698 542 1768 542 c 4
 1838 542 1865 561 1865 589 c 4
 1865 617 1838 636 1768 636 c 4
 1698 636 1671 617 1671 589 c 4
1768 358 m 4
 1680 358 1637 334 1637 290 c 4
 1637 246 1680 222 1768 222 c 4
 1856 222 1901 246 1901 290 c 4
 1901 334 1856 358 1768 358 c 4
383 1078 m 1
 163 1078 l 1
 163 1318 l 1
 219 1318 l 2
 321 1318 400 1388 400 1464 c 2
 400 1480 l 1
 653 1480 l 1
 653 1225 l 1
 653 622 l 1
 383 622 l 1
 383 1078 l 1
868 67 m 1
 652 191 l 1
 1360 1413 l 1
 1576 1289 l 1
 868 67 l 1
EndSplineSet
Substitution2: "'ss09' Bar below digit 1-1" oneeighth.ss09
Colour: ff8000
EndChar

StartChar: uni2155
Encoding: 8533 8533 201
Width: 2228
VWidth: 1548
Flags: HMW
LayerCount: 4
Fore
SplineSet
1414 396 m 1
 1472 858 l 1
 1601 858 l 1
 1730 858 l 1
 2096 858 l 1
 2096 618 l 1
 1690 618 l 1
 1680 546 l 1
 1705 568 1724 576 1784 576 c 0
 2009 576 2152 479 2152 279 c 0
 2152 79 1993 -18 1768 -18 c 0
 1532 -18 1411 85 1386 237 c 1
 1655 310 l 0
 1655 256 1680 222 1768 222 c 0
 1838 222 1881 248 1881 294 c 0
 1881 340 1838 366 1768 366 c 0
 1698 366 1694 358 1658 331 c 1
 1414 396 l 1
383 1078 m 1
 163 1078 l 1
 163 1318 l 1
 219 1318 l 2
 321 1318 400 1388 400 1464 c 2
 400 1480 l 1
 653 1480 l 1
 653 1225 l 1
 653 622 l 1
 383 622 l 1
 383 1078 l 1
868 67 m 5
 652 191 l 1
 1360 1413 l 1
 1576 1289 l 1
 868 67 l 5
EndSplineSet
Substitution2: "'ss09' Bar below digit 1-1" uni2155.ss09
Colour: ff8000
EndChar

StartChar: uni2157
Encoding: 8535 8535 202
Width: 2228
VWidth: 1548
Flags: HMW
LayerCount: 4
Fore
SplineSet
1414 396 m 1
 1472 858 l 1
 1601 858 l 1
 1730 858 l 1
 2096 858 l 1
 2096 618 l 1
 1690 618 l 1
 1680 546 l 1
 1705 568 1724 576 1784 576 c 0
 2009 576 2152 479 2152 279 c 0
 2152 79 1993 -18 1768 -18 c 0
 1532 -18 1411 85 1386 237 c 1
 1655 310 l 0
 1655 256 1680 222 1768 222 c 0
 1838 222 1881 248 1881 294 c 0
 1881 340 1838 366 1768 366 c 0
 1698 366 1694 358 1658 331 c 1
 1414 396 l 1
460 1164 m 6
 530 1164 557 1183 557 1211 c 0
 557 1239 530 1258 460 1258 c 0
 390 1258 363 1229 363 1191 c 0
 97 1264 l 1
 114 1416 247 1498 460 1498 c 0
 687 1498 825 1405 825 1232 c 0
 825 1112 746 1075 746 1075 c 1
 746 1075 863 1034 863 887 c 0
 863 697 708 604 460 604 c 0
 224 604 85 707 60 859 c 1
 329 932 l 0
 329 878 372 844 460 844 c 0
 548 844 593 868 593 912 c 0
 593 956 548 980 460 980 c 2
 390 980 l 9
 390 1164 l 25
 460 1164 l 6
868 67 m 1
 652 191 l 1
 1360 1413 l 1
 1576 1289 l 1
 868 67 l 1
EndSplineSet
Colour: ff8000
EndChar

StartChar: uni2158
Encoding: 8536 8536 203
Width: 2228
VWidth: 1548
Flags: HMW
LayerCount: 4
Fore
SplineSet
1414 396 m 1
 1472 858 l 1
 1601 858 l 1
 1730 858 l 1
 2096 858 l 1
 2096 618 l 1
 1690 618 l 1
 1680 546 l 1
 1705 568 1724 576 1784 576 c 0
 2009 576 2152 479 2152 279 c 0
 2152 79 1993 -18 1768 -18 c 0
 1532 -18 1411 85 1386 237 c 1
 1655 310 l 0
 1655 256 1680 222 1768 222 c 0
 1838 222 1881 248 1881 294 c 0
 1881 340 1838 366 1768 366 c 0
 1698 366 1694 358 1658 331 c 1
 1414 396 l 1
631 1480 m 1
 337 1480 l 1
 75 976 l 1
 75 736 l 1
 471 736 l 1
 471 622 l 1
 741 622 l 1
 741 736 l 1
 845 736 l 1
 845 976 l 1
 741 976 l 1
 741 1090 l 1
 479 1090 l 1
 479 976 l 1
 363 976 l 1
 631 1480 l 1
868 67 m 5
 652 191 l 1
 1360 1413 l 1
 1576 1289 l 1
 868 67 l 5
EndSplineSet
Colour: ff8000
EndChar

StartChar: uni215A
Encoding: 8538 8538 204
Width: 2228
VWidth: 1548
Flags: HMW
LayerCount: 4
Fore
SplineSet
1637 524 m 5
 1669 565 1694 582 1791 582 c 4
 2016 582 2146 476 2146 282 c 4
 2146 88 1998 -18 1768 -18 c 4
 1626 -18 1517 22 1454 120 c 4
 1401 203 1370 299 1370 402 c 4
 1370 684 1494 876 1854 876 c 4
 2015 876 2111 796 2111 796 c 5
 1994 590 l 5
 1994 590 1916 636 1804 636 c 4
 1692 636 1650 585 1637 524 c 5
1662 297 m 4
 1662 247 1708 222 1768 222 c 4
 1828 222 1875 247 1875 297 c 4
 1875 347 1828 372 1768 372 c 4
 1708 372 1662 347 1662 297 c 4
106 1018 m 1
 164 1480 l 1
 293 1480 l 1
 422 1480 l 1
 788 1480 l 1
 788 1240 l 1
 382 1240 l 1
 372 1168 l 1
 397 1190 416 1198 476 1198 c 0
 701 1198 844 1101 844 901 c 0
 844 701 685 604 460 604 c 0
 224 604 103 707 78 859 c 1
 347 932 l 0
 347 878 372 844 460 844 c 0
 530 844 573 870 573 916 c 0
 573 962 530 988 460 988 c 0
 390 988 386 980 350 953 c 1
 106 1018 l 1
868 67 m 1
 652 191 l 1
 1360 1413 l 1
 1576 1289 l 1
 868 67 l 1
EndSplineSet
Colour: ff8000
EndChar

StartChar: threeeighths
Encoding: 8540 8540 205
Width: 2228
VWidth: 1548
Flags: HMW
LayerCount: 4
Fore
SplineSet
1367 265 m 4
 1367 412 1481 453 1481 453 c 5
 1481 453 1403 490 1403 610 c 4
 1403 783 1541 876 1768 876 c 4
 1995 876 2133 783 2133 610 c 4
 2133 490 2054 453 2054 453 c 5
 2054 453 2171 412 2171 265 c 4
 2171 75 2016 -18 1768 -18 c 4
 1520 -18 1367 75 1367 265 c 4
1671 589 m 4
 1671 561 1698 542 1768 542 c 4
 1838 542 1865 561 1865 589 c 4
 1865 617 1838 636 1768 636 c 4
 1698 636 1671 617 1671 589 c 4
1768 358 m 4
 1680 358 1637 334 1637 290 c 4
 1637 246 1680 222 1768 222 c 4
 1856 222 1901 246 1901 290 c 4
 1901 334 1856 358 1768 358 c 4
460 1164 m 2
 530 1164 557 1183 557 1211 c 0
 557 1239 530 1258 460 1258 c 0
 390 1258 363 1229 363 1191 c 0
 97 1264 l 1
 114 1416 247 1498 460 1498 c 0
 687 1498 825 1405 825 1232 c 0
 825 1112 746 1075 746 1075 c 1
 746 1075 863 1034 863 887 c 0
 863 697 708 604 460 604 c 0
 224 604 85 707 60 859 c 1
 329 932 l 0
 329 878 372 844 460 844 c 0
 548 844 593 868 593 912 c 0
 593 956 548 980 460 980 c 2
 390 980 l 9
 390 1164 l 25
 460 1164 l 2
868 67 m 1
 652 191 l 1
 1360 1413 l 1
 1576 1289 l 1
 868 67 l 1
EndSplineSet
Colour: ff8000
EndChar

StartChar: fiveeighths
Encoding: 8541 8541 206
Width: 2228
VWidth: 1548
Flags: HMW
LayerCount: 4
Fore
SplineSet
1367 265 m 4
 1367 412 1481 453 1481 453 c 5
 1481 453 1403 490 1403 610 c 4
 1403 783 1541 876 1768 876 c 4
 1995 876 2133 783 2133 610 c 4
 2133 490 2054 453 2054 453 c 5
 2054 453 2171 412 2171 265 c 4
 2171 75 2016 -18 1768 -18 c 4
 1520 -18 1367 75 1367 265 c 4
1671 589 m 4
 1671 561 1698 542 1768 542 c 4
 1838 542 1865 561 1865 589 c 4
 1865 617 1838 636 1768 636 c 4
 1698 636 1671 617 1671 589 c 4
1768 358 m 4
 1680 358 1637 334 1637 290 c 4
 1637 246 1680 222 1768 222 c 4
 1856 222 1901 246 1901 290 c 4
 1901 334 1856 358 1768 358 c 4
106 1018 m 1
 164 1480 l 1
 293 1480 l 1
 422 1480 l 1
 788 1480 l 1
 788 1240 l 1
 382 1240 l 1
 372 1168 l 1
 397 1190 416 1198 476 1198 c 0
 701 1198 844 1101 844 901 c 0
 844 701 685 604 460 604 c 0
 224 604 103 707 78 859 c 1
 347 932 l 0
 347 878 372 844 460 844 c 0
 530 844 573 870 573 916 c 0
 573 962 530 988 460 988 c 0
 390 988 386 980 350 953 c 1
 106 1018 l 1
868 67 m 1
 652 191 l 1
 1360 1413 l 1
 1576 1289 l 1
 868 67 l 1
EndSplineSet
Colour: ff8000
EndChar

StartChar: seveneighths
Encoding: 8542 8542 207
Width: 2228
VWidth: 1548
Flags: HMW
LayerCount: 4
Fore
SplineSet
1367 265 m 4
 1367 412 1481 453 1481 453 c 5
 1481 453 1403 490 1403 610 c 4
 1403 783 1541 876 1768 876 c 4
 1995 876 2133 783 2133 610 c 4
 2133 490 2054 453 2054 453 c 5
 2054 453 2171 412 2171 265 c 4
 2171 75 2016 -18 1768 -18 c 4
 1520 -18 1367 75 1367 265 c 4
1671 589 m 4
 1671 561 1698 542 1768 542 c 4
 1838 542 1865 561 1865 589 c 4
 1865 617 1838 636 1768 636 c 4
 1698 636 1671 617 1671 589 c 4
1768 358 m 4
 1680 358 1637 334 1637 290 c 4
 1637 246 1680 222 1768 222 c 4
 1856 222 1901 246 1901 290 c 4
 1901 334 1856 358 1768 358 c 4
90 1241 m 1
 90 1480 l 1
 830 1480 l 1
 830 1261 l 1
 830 1261 543 1078 492 622 c 1
 441 622 272 622 221 622 c 1
 278 1077 509 1241 509 1241 c 1
 90 1241 l 1
868 67 m 1
 652 191 l 1
 1360 1413 l 1
 1576 1289 l 1
 868 67 l 1
EndSplineSet
Colour: ff8000
EndChar

StartChar: uni2189
Encoding: 8585 8585 208
Width: 2228
VWidth: 1548
Flags: HMW
LayerCount: 4
Fore
SplineSet
334 1051 m 0
 334 895 388 844 460 844 c 0
 532 844 586 895 586 1051 c 0
 586 1207 532 1258 460 1258 c 0
 388 1258 334 1207 334 1051 c 0
64 1050 m 0
 64 1340 222 1498 460 1498 c 0
 698 1498 856 1340 856 1050 c 0
 856 760 698 604 460 604 c 0
 222 604 64 760 64 1050 c 0
1768 542 m 6
 1838 542 1865 561 1865 589 c 0
 1865 617 1838 636 1768 636 c 0
 1698 636 1671 607 1671 569 c 0
 1405 642 l 1
 1422 794 1555 876 1768 876 c 0
 1995 876 2133 783 2133 610 c 0
 2133 490 2054 453 2054 453 c 1
 2054 453 2171 412 2171 265 c 0
 2171 75 2016 -18 1768 -18 c 0
 1532 -18 1393 85 1368 237 c 1
 1637 310 l 0
 1637 256 1680 222 1768 222 c 0
 1856 222 1901 246 1901 290 c 0
 1901 334 1856 358 1768 358 c 2
 1698 358 l 9
 1698 542 l 25
 1768 542 l 6
868 67 m 1
 652 191 l 1
 1360 1413 l 1
 1576 1289 l 1
 868 67 l 1
EndSplineSet
Substitution2: "'zero' Slashed Zero lookups0-1" uni2189.zero
Colour: ff8000
EndChar

StartChar: AE
Encoding: 198 198 209
Width: 2351
Flags: HMW
AnchorPoint: "top_center" 1564 1380 basechar 0
AnchorPoint: "bottom_center" 1167 0 basechar 0
LayerCount: 4
Fore
SplineSet
876 1144 m 1
 876 1480 l 1
 1299 1480 l 1
 1299 1144 l 1
 876 1144 l 1
580 688 m 1
 1167 688 l 1
 1167 352 l 1
 580 352 l 1
 580 688 l 1
35 0 m 1
 876 1480 l 1
 1299 1480 l 1
 475 0 l 1
 35 0 l 1
2167 908 m 17
 2167 572 l 9
 1547 572 l 17
 1547 336 l 1
 2281 336 l 1
 2281 0 l 1
 1167 0 l 25
 1167 1480 l 1
 2281 1480 l 17
 2281 1144 l 1
 1547 1144 l 1
 1547 908 l 9
 2167 908 l 17
EndSplineSet
Colour: ffff
EndChar

StartChar: multiply
Encoding: 215 215 210
Width: 1278
Flags: HMW
LayerCount: 4
Fore
SplineSet
123 950 m 5
 929 144 l 5
 1155 370 l 13
 349 1176 l 5
 123 950 l 5
350 145 m 5
 1154 949 l 5
 928 1175 l 13
 124 371 l 5
 350 145 l 5
EndSplineSet
Substitution2: "'ss07' Bigger basic math operators lookups0-1" multiply.ss07
Colour: ff00
EndChar

StartChar: Eth
Encoding: 208 208 211
Width: 1626
Flags: HMW
LayerCount: 4
Fore
SplineSet
860 620 m 5
 860 860 l 5
 0 860 l 5
 0 814 0 666 0 620 c 5
 860 620 l 5
590 1144 m 25
 810 1144 l 17
 1004 1144 1196 1013 1196 740 c 0
 1196 467 1014 336 810 336 c 9
 590 336 l 25
 590 1144 l 25
810 0 m 1
 1266 0 1576 290 1576 740 c 0
 1576 1190 1266 1480 810 1480 c 1
 210 1480 l 1
 210 0 l 1
 438 0 l 25
 810 0 l 1
EndSplineSet
Colour: ffff
EndChar

StartChar: Oslash
Encoding: 216 216 212
Width: 1688
Flags: HMW
AnchorPoint: "bottom_center" 844 0 basechar 0
AnchorPoint: "top_center" 844 1380 basechar 0
LayerCount: 4
Fore
SplineSet
1341 1650 m 1
 1594 1454 l 25
 347 -170 l 25
 94 26 l 1
 1341 1650 l 1
464 740 m 0
 464 490 594 306 844 306 c 0
 1094 306 1224 490 1224 740 c 0
 1224 990 1094 1174 844 1174 c 0
 594 1174 464 990 464 740 c 0
84 740 m 0
 84 1190 384 1510 844 1510 c 0
 1304 1510 1604 1190 1604 740 c 0
 1604 290 1304 -30 844 -30 c 0
 384 -30 84 290 84 740 c 0
EndSplineSet
Substitution2: "sous-table 'c2sc' Capitales vers petites capitales dans Latin lookup 0" oslash.sc
Colour: ffff
EndChar

StartChar: Thorn
Encoding: 222 222 213
Width: 1258
Flags: HMW
LayerCount: 4
Fore
SplineSet
450 899 m 1
 450 579 l 1
 637 579 l 17
 757 579 828 629 828 739 c 0
 828 849 757 899 637 899 c 9
 450 899 l 1
70 0 m 5
 70 1193 l 1
 70 1480 l 1
 450 1480 l 1
 450 1235 l 1
 637 1235 l 1
 1023 1235 1208 994 1208 739 c 0
 1208 484 1023 243 637 243 c 1
 450 243 l 1
 450 0 l 25
 70 0 l 5
EndSplineSet
Substitution2: "sous-table 'c2sc' Capitales vers petites capitales dans Latin lookup 0" thorn.sc
Colour: ffff
EndChar

StartChar: thorn
Encoding: 254 254 214
Width: 1250
VWidth: 1000
Flags: HMW
LayerCount: 4
Fore
SplineSet
420 518 m 0
 420 388 493 290 630 290 c 0
 767 290 840 390 840 520 c 0
 840 650 767 750 630 750 c 0
 493 750 420 648 420 518 c 0
70 520 m 25
 70 1480 l 1
 430 1480 l 1
 430 1480 430 960 430 920 c 1
 440 959 545 1070 695 1070 c 0
 1015 1070 1200 840 1200 520 c 0
 1200 200 1015 -30 695 -30 c 0
 545 -30 440 81 430 120 c 1
 430 -440 l 1
 70 -440 l 1
 70 520 l 25
EndSplineSet
Substitution2: "sous-table 'smcp' Bas-de-casse vers petites capitales dans Latin lookup 0" thorn.sc
Colour: ff00
EndChar

StartChar: ae
Encoding: 230 230 215
Width: 1896
VWidth: 1000
Flags: HMW
AnchorPoint: "bottom_center" 931 0 basechar 0
AnchorPoint: "top_center" 971 1040 basechar 0
LayerCount: 4
Fore
SplineSet
872 660 m 1
 1778 660 l 1
 1476 400 l 1
 872 400 l 1
 872 660 l 1
1485 368 m 1
 1792 242 l 1
 1700 65 1518 -30 1296 -30 c 0
 975 -30 746 200 746 520 c 0
 746 840 976 1070 1296 1070 c 0
 1616 1070 1846 840 1846 520 c 0
 1846 479 1841 438 1834 400 c 1
 1476 400 l 1
 1490 435 1516 476 1516 520 c 0
 1516 657 1433 750 1296 750 c 0
 1159 750 1080 657 1080 520 c 0
 1080 390 1158 290 1296 290 c 0
 1410 290 1467 329 1485 368 c 1
530 -30 m 0
 224 -30 50 135 50 335 c 0
 50 535 272 680 578 680 c 0
 848 680 1018 545 1018 345 c 1
 1018 145 900 -30 530 -30 c 0
746 345 m 0
 746 385 678 400 578 400 c 0
 478 400 410 385 410 345 c 0
 410 305 478 290 578 290 c 0
 678 290 746 305 746 345 c 0
1106 257 m 29
 746 450 l 25
 746 658 l 17
 746 718 710 761 578 761 c 0
 352 761 262 695 262 695 c 1
 98 966 l 1
 98 966 292 1080 578 1080 c 0
 873 1080 1106 978 1106 628 c 1
 1106 257 l 29
EndSplineSet
Substitution2: "sous-table 'smcp' Bas-de-casse vers petites capitales dans Latin lookup 0" ae.sc
Substitution2: "'ss04' Simplified a and g lookups0-1" ae.ss04
Colour: ff00
EndChar

StartChar: oslash
Encoding: 248 248 216
Width: 1180
VWidth: 1000
Flags: HMW
AnchorPoint: "bottom_center" 590 0 basechar 0
AnchorPoint: "top_center" 590 1040 basechar 0
LayerCount: 4
Fore
SplineSet
923 1209 m 1
 1178 1016 l 1
 255 -170 l 9
 2 26 l 1
 923 1209 l 1
400 520 m 0
 400 390 453 290 590 290 c 0
 727 290 780 383 780 520 c 0
 780 657 727 750 590 750 c 0
 453 750 400 657 400 520 c 0
40 520 m 0
 40 840 270 1070 590 1070 c 0
 910 1070 1140 840 1140 520 c 0
 1140 200 910 -30 590 -30 c 0
 270 -30 40 200 40 520 c 0
EndSplineSet
Substitution2: "sous-table 'smcp' Bas-de-casse vers petites capitales dans Latin lookup 0" oslash.sc
Colour: ff00
EndChar

StartChar: divide
Encoding: 247 247 217
Width: 1278
Flags: HMW
LayerCount: 4
Fore
SplineSet
439 230 m 4
 439 341 528 430 639 430 c 4
 750 430 839 341 839 230 c 4
 839 119 750 30 639 30 c 4
 528 30 439 119 439 230 c 4
439 1090 m 4
 439 1201 528 1290 639 1290 c 4
 750 1290 839 1201 839 1090 c 4
 839 979 750 890 639 890 c 4
 528 890 439 979 439 1090 c 4
70 500 m 1
 70 820 l 1
 1208 820 l 17
 1208 500 l 1
 70 500 l 1
EndSplineSet
Substitution2: "'ss07' Bigger basic math operators lookups0-1" divide.ss07
Colour: ff00
EndChar

StartChar: germandbls
Encoding: 223 223 218
Width: 1300
VWidth: 1000
Flags: HMW
LayerCount: 4
Back
SplineSet
635 856 m 0
 935 856 1172 661 1172 418 c 0
 1172 175 935 -20 635 -20 c 4
 553 -20 477 -6 411 20 c 5
 457 187 l 5
 506 161 565 148 635 148 c 4
 835 148 982 262 982 418 c 0
 982 574 835 688 635 688 c 0
 635 856 l 0
EndSplineSet
Fore
SplineSet
682 290 m 0
 640 290 614 296 555 329 c 1
 490 10 l 1
 530 -3 632 -30 682 -30 c 0
 1041 -30 1250 176 1250 456 c 0
 1250 736 978 932 618 932 c 0
 618 612 l 0
 738 612 890 576 890 456 c 0
 890 336 802 290 682 290 c 0
430 1056 m 0
 430 1136 516 1190 606 1190 c 0
 696 1190 782 1141 782 1056 c 0
 782 981 748 932 618 932 c 0
 678 692 l 4
 904 692 1142 801 1142 1056 c 0
 1142 1311 912 1510 606 1510 c 0
 300 1510 70 1311 70 1056 c 0
 70 801 70 0 70 0 c 9
 430 0 l 17
 430 0 430 976 430 1056 c 0
EndSplineSet
Substitution2: "sous-table 'smcp' Bas-de-casse vers petites capitales dans Latin lookup 0" germandbls.sc
Colour: ff00
EndChar

StartChar: eth
Encoding: 240 240 219
Width: 1296
VWidth: 1000
Flags: HMW
LayerCount: 4
Fore
SplineSet
842 1257 m 1
 993 1330 l 1
 923 1465 l 1
 753 1385 l 1
 347 1190 l 1
 416 1052 l 1
 842 1257 l 1
347 1260 m 1
 465 1193 906 1080 906 520 c 4
 1246 520 l 0
 1246 1000 946 1352 492 1540 c 1
 347 1260 l 1
410 520 m 0
 410 660 498 750 648 750 c 0
 798 750 886 660 886 520 c 0
 886 380 798 290 648 290 c 0
 498 290 410 380 410 520 c 0
50 520 m 0
 50 208 291 -30 648 -30 c 0
 1005 -30 1246 208 1246 520 c 0
 1246 520 1109 520 1086 520 c 1
 1086 832 878 1070 648 1070 c 0
 291 1070 50 832 50 520 c 0
EndSplineSet
Colour: ff00
EndChar

StartChar: macron
Encoding: 175 175 220
Width: 802
VWidth: 1000
Flags: HMW
LayerCount: 4
Fore
SplineSet
35 1192 m 5
 35 1472 l 5
 767 1472 l 5
 767 1192 l 5
 35 1192 l 5
EndSplineSet
Colour: ff00
EndChar

StartChar: uni0304
Encoding: 772 772 221
Width: 0
VWidth: 1000
Flags: HMW
AnchorPoint: "top_center" 643 1040 mark 0
LayerCount: 4
Fore
SplineSet
277 1212 m 5
 277 1402 l 1
 1009 1402 l 1
 1009 1212 l 5
 277 1212 l 5
EndSplineSet
Colour: ffff00
EndChar

StartChar: uni0306
Encoding: 774 774 224
Width: 0
VWidth: 1000
Flags: HMW
AnchorPoint: "top_center" 642 1040 mark 0
LayerCount: 4
Fore
SplineSet
642 1194 m 4
 432 1194 306 1340 306 1480 c 5
 564 1480 l 5
 564 1450 592 1404 642 1404 c 4
 692 1404 718 1450 718 1480 c 5
 978 1480 l 5
 978 1340 852 1194 642 1194 c 4
EndSplineSet
Colour: ffff00
EndChar

StartChar: uni0328
Encoding: 808 808 226
Width: 0
VWidth: 1000
Flags: HMW
AnchorPoint: "bottom_right" 642 0 mark 0
LayerCount: 4
Fore
SplineSet
599 -225 m 5
 677 -368 l 5
 620 -418 569 -432 505 -432 c 4
 405 -432 292 -374 292 -224 c 4
 292 -64 494 65 542 100 c 4
 642 0 l 4
 534 -78 462 -137 462 -204 c 4
 462 -230 483 -261 515 -261 c 4
 559 -261 579 -256 599 -225 c 5
EndSplineSet
Layer: 2
SplineSet
654 -225 m 1
 712 -326 l 1
 657 -364 614 -380 550 -380 c 0
 450 -380 360 -310 360 -220 c 0
 360 -130 411 -62 519 0 c 0
 687 0 l 0
 579 -78 487 -137 487 -204 c 0
 487 -240 514 -263 550 -263 c 0
 586 -263 620 -250 654 -225 c 1
EndSplineSet
Colour: ffc71c
EndChar

StartChar: uni0307
Encoding: 775 775 229
Width: 0
VWidth: 1000
Flags: HMW
AnchorPoint: "top_center" 642 1040 mark 0
LayerCount: 4
Fore
SplineSet
442 1352 m 4
 442 1463 531 1552 642 1552 c 4
 753 1552 842 1463 842 1352 c 4
 842 1241 753 1152 642 1152 c 4
 531 1152 442 1241 442 1352 c 4
EndSplineSet
Colour: ff00
EndChar

StartChar: uni030C
Encoding: 780 780 230
Width: 0
VWidth: 1000
Flags: HMW
AnchorPoint: "top_center" 642 1040 mark 0
LayerCount: 4
Fore
SplineSet
585 1480 m 5
 745 1224 l 5
 439 1224 l 5
 234 1480 l 5
 585 1480 l 5
699 1480 m 5
 1050 1480 l 5
 845 1224 l 5
 539 1224 l 5
 699 1480 l 5
EndSplineSet
Colour: ffff00
EndChar

StartChar: uni0237
Encoding: 567 567 317
Width: 665
Flags: HMW
AnchorPoint: "bottom_center" 311 -360 basechar 0
AnchorPoint: "top_center" 415 1040 basechar 0
LayerCount: 4
Fore
SplineSet
105 -134 m 5
 118 -143 148 -150 167 -150 c 4
 219 -150 235 -128 235 -78 c 6
 235 0 l 1
 235 138 l 1
 235 1040 l 1
 595 1040 l 1
 595 138 l 1
 595 0 l 1
 595 -78 l 6
 595 -378 351 -470 167 -470 c 4
 79 -470 31 -439 5 -426 c 5
 105 -134 l 5
EndSplineSet
Substitution2: "sous-table 'smcp' Bas-de-casse vers petites capitales dans Latin lookup 0" uni0237.sc
Colour: ff00
EndChar

StartChar: oe
Encoding: 339 339 319
Width: 1940
VWidth: 1000
Flags: HMW
LayerCount: 4
Fore
SplineSet
916 660 m 1
 1822 660 l 1
 1520 400 l 1
 916 400 l 1
 916 660 l 1
1529 368 m 1
 1836 242 l 1
 1744 65 1562 -30 1340 -30 c 0
 1019 -30 790 200 790 520 c 0
 790 840 1020 1070 1340 1070 c 0
 1660 1070 1890 840 1890 520 c 0
 1890 479 1885 438 1878 400 c 1
 1520 400 l 1
 1534 435 1560 476 1560 520 c 0
 1560 657 1477 750 1340 750 c 0
 1203 750 1110 657 1110 520 c 0
 1110 390 1202 290 1340 290 c 0
 1454 290 1511 329 1529 368 c 1
410 520 m 0
 410 390 463 290 600 290 c 0
 737 290 790 383 790 520 c 0
 790 657 737 750 600 750 c 0
 463 750 410 657 410 520 c 0
50 520 m 0
 50 840 280 1070 600 1070 c 0
 920 1070 1150 840 1150 520 c 0
 1150 200 920 -30 600 -30 c 0
 280 -30 50 200 50 520 c 0
EndSplineSet
Substitution2: "sous-table 'smcp' Bas-de-casse vers petites capitales dans Latin lookup 0" oe.sc
Colour: ff00
EndChar

StartChar: OE
Encoding: 338 338 320
Width: 2374
Flags: HMW
LayerCount: 4
Fore
SplineSet
430 740 m 0
 430 490 560 306 810 306 c 0
 1060 306 1190 490 1190 740 c 0
 1190 990 1060 1174 810 1174 c 0
 560 1174 430 990 430 740 c 0
50 740 m 0
 50 1190 350 1510 810 1510 c 0
 1270 1510 1570 1190 1570 740 c 0
 1570 290 1270 -30 810 -30 c 0
 350 -30 50 290 50 740 c 0
2190 908 m 21
 2190 572 l 9
 1570 572 l 17
 1570 336 l 1
 2304 336 l 1
 2304 0 l 1
 1190 0 l 25
 1190 1480 l 1
 2304 1480 l 17
 2304 1144 l 1
 1570 1144 l 1
 1570 908 l 9
 2190 908 l 21
EndSplineSet
Colour: ffff
EndChar

StartChar: dcaron
Encoding: 271 271 322
Width: 1575
VWidth: 1000
Flags: HMW
LayerCount: 4
Fore
SplineSet
1296 1390 m 4
 1296 1457 1349 1510 1416 1510 c 4
 1483 1510 1536 1457 1536 1390 c 4
 1536 1323 1483 1270 1416 1270 c 4
 1349 1270 1296 1323 1296 1390 c 4
1305 1193 m 5
 1382 1205 1441 1254 1441 1307 c 4
 1441 1333 1417 1390 1417 1390 c 5
 1416 1510 l 5
 1484 1510 1575 1467 1575 1307 c 4
 1575 1180 1436 1082 1341 1065 c 5
 1305 1193 l 5
820 510 m 0
 820 640 757 750 620 750 c 0
 483 750 410 650 410 520 c 0
 410 390 483 290 620 290 c 0
 751 290 820 380 820 510 c 0
1180 168 m 1
 1180 66 1204 0 1204 0 c 1
 856 0 l 1
 856 0 832 60 832 120 c 1
 832 80 705 -30 555 -30 c 0
 235 -30 50 200 50 520 c 0
 50 840 235 1070 555 1070 c 0
 705 1070 810 959 820 920 c 1
 820 1480 l 1
 1180 1480 l 1
 1180 168 l 1
EndSplineSet
Substitution2: "sous-table 'smcp' Bas-de-casse vers petites capitales dans Latin lookup 0" dcaron.sc
Colour: ff00
EndChar

StartChar: dcroat
Encoding: 273 273 323
Width: 1390
VWidth: 1000
Flags: HMW
LayerCount: 4
Fore
SplineSet
1390 1120 m 5
 550 1120 l 5
 550 1166 550 1314 550 1360 c 5
 1390 1360 l 5
 1390 1120 l 5
820 510 m 0
 820 640 757 750 620 750 c 0
 483 750 410 650 410 520 c 0
 410 390 483 290 620 290 c 0
 751 290 820 380 820 510 c 0
1180 168 m 1
 1180 66 1204 0 1204 0 c 1
 856 0 l 1
 856 0 832 60 832 120 c 1
 832 80 705 -30 555 -30 c 0
 235 -30 50 200 50 520 c 0
 50 840 235 1070 555 1070 c 0
 705 1070 810 959 820 920 c 1
 820 1480 l 1
 1180 1480 l 1
 1180 168 l 1
EndSplineSet
Substitution2: "sous-table 'smcp' Bas-de-casse vers petites capitales dans Latin lookup 0" dcroat.sc
Colour: ff00
EndChar

StartChar: Hbar
Encoding: 294 294 324
Width: 1678
Flags: HMW
LayerCount: 4
Fore
SplineSet
1678 1004 m 5
 0 1004 l 5
 0 1050 0 1198 0 1244 c 5
 1678 1244 l 5
 1678 1004 l 5
168 1480 m 25
 548 1480 l 25
 548 908 l 25
 1130 908 l 25
 1130 1480 l 25
 1510 1480 l 25
 1510 0 l 25
 1130 0 l 25
 1130 572 l 25
 548 572 l 25
 548 0 l 25
 168 -10 l 25
 168 1480 l 25
EndSplineSet
Substitution2: "sous-table 'c2sc' Capitales vers petites capitales dans Latin lookup 0" hbar.sc
Colour: ffff
EndChar

StartChar: hbar
Encoding: 295 295 325
Width: 1332
VWidth: 1000
Flags: HMW
LayerCount: 4
Fore
SplineSet
840 1120 m 5
 0 1120 l 5
 0 1166 0 1314 0 1360 c 5
 840 1360 l 5
 840 1120 l 5
902 0 m 1
 902 572 l 2
 902 682 866 750 736 750 c 0
 606 750 570 682 570 572 c 2
 570 0 l 1
 210 0 l 1
 210 1480 l 1
 558 1480 l 1
 558 920 l 1
 593 981 682 1070 832 1070 c 0
 1096 1070 1262 892 1262 572 c 1
 1262 0 l 1
 902 0 l 1
EndSplineSet
Substitution2: "sous-table 'smcp' Bas-de-casse vers petites capitales dans Latin lookup 0" hbar.sc
Colour: ff00
EndChar

StartChar: Lcaron
Encoding: 317 317 332
Width: 1254
Flags: HMW
LayerCount: 4
Fore
SplineSet
566 1390 m 4
 566 1457 619 1510 686 1510 c 4
 753 1510 806 1457 806 1390 c 4
 806 1323 753 1270 686 1270 c 4
 619 1270 566 1323 566 1390 c 4
575 1193 m 5
 652 1205 711 1254 711 1307 c 4
 711 1333 687 1390 687 1390 c 5
 686 1510 l 5
 754 1510 845 1467 845 1307 c 4
 845 1180 706 1082 611 1065 c 5
 575 1193 l 5
450 1480 m 1
 450 336 l 1
 1184 336 l 1
 1184 0 l 1
 70 0 l 25
 70 1480 l 1
 450 1480 l 1
EndSplineSet
Substitution2: "sous-table 'c2sc' Capitales vers petites capitales dans Latin lookup 0" lcaron.sc
Colour: ffff
EndChar

StartChar: lcaron
Encoding: 318 318 333
Width: 825
Flags: HMW
LayerCount: 4
Fore
SplineSet
546 1390 m 0
 546 1457 599 1510 666 1510 c 0
 733 1510 786 1457 786 1390 c 0
 786 1323 733 1270 666 1270 c 0
 599 1270 546 1323 546 1390 c 0
555 1193 m 1
 632 1205 691 1254 691 1307 c 0
 691 1333 667 1390 667 1390 c 1
 666 1510 l 1
 734 1510 825 1467 825 1307 c 0
 825 1180 686 1082 591 1065 c 1
 555 1193 l 1
560 306 m 5
 660 14 l 5
 634 1 586 -30 498 -30 c 4
 314 -30 70 62 70 362 c 6
 70 440 l 1
 70 578 l 1
 70 1480 l 1
 430 1480 l 1
 430 578 l 1
 430 440 l 1
 430 362 l 6
 430 312 446 290 498 290 c 4
 517 290 547 297 560 306 c 5
EndSplineSet
Substitution2: "sous-table 'smcp' Bas-de-casse vers petites capitales dans Latin lookup 0" lcaron.sc
Colour: ff00
EndChar

StartChar: Lslash
Encoding: 321 321 334
Width: 1359
Flags: HMW
LayerCount: 4
Fore
SplineSet
825 1245 m 5
 825 956 l 5
 -35 460 l 5
 -35 749 l 5
 825 1245 l 5
555 1480 m 1
 555 336 l 1
 1289 336 l 1
 1289 0 l 1
 175 0 l 25
 175 1480 l 1
 555 1480 l 1
EndSplineSet
Substitution2: "sous-table 'c2sc' Capitales vers petites capitales dans Latin lookup 0" lslash.sc
Colour: ffff
EndChar

StartChar: lslash
Encoding: 322 322 335
Width: 835
Flags: HMW
LayerCount: 4
Fore
SplineSet
815 1199 m 5
 815 910 l 5
 35 461 l 5
 35 750 l 5
 815 1199 l 5
735 306 m 1
 835 14 l 1
 809 1 761 -30 673 -30 c 0
 489 -30 245 62 245 362 c 2
 245 440 l 1
 245 578 l 1
 245 1480 l 1
 605 1480 l 1
 605 578 l 1
 605 440 l 1
 605 362 l 2
 605 312 621 290 673 290 c 0
 692 290 722 297 735 306 c 1
EndSplineSet
Substitution2: "sous-table 'smcp' Bas-de-casse vers petites capitales dans Latin lookup 0" lslash.sc
Colour: ff00
EndChar

StartChar: Eng
Encoding: 330 330 339
Width: 1482
Flags: HMW
LayerCount: 4
Fore
SplineSet
1412 -78 m 2
 1412 -378 1244 -470 980 -470 c 0
 892 -470 844 -439 818 -426 c 1
 918 -134 l 1
 931 -143 961 -150 980 -150 c 0
 1032 -150 1048 -128 1048 -78 c 2
 1048 0 l 1
 1412 0 l 1
 1412 -78 l 2
434 1480 m 1
 1032 652 l 25
 1032 1480 l 1
 1412 1480 l 25
 1412 0 l 25
 1048 0 l 1
 450 828 l 1
 450 0 l 1
 70 0 l 25
 70 1480 l 1
 434 1480 l 1
EndSplineSet
Substitution2: "sous-table 'c2sc' Capitales vers petites capitales dans Latin lookup 0" eng.sc
Colour: ffff
EndChar

StartChar: eng
Encoding: 331 331 340
Width: 1192
VWidth: 1000
Flags: HMW
LayerCount: 4
Fore
SplineSet
1122 -78 m 2
 1122 -378 958 -470 694 -470 c 0
 606 -470 558 -439 532 -426 c 1
 632 -134 l 1
 645 -143 675 -150 694 -150 c 0
 746 -150 762 -128 762 -78 c 2
 762 0 l 1
 1122 0 l 1
 1122 -78 l 2
762 572 m 2
 762 682 726 750 596 750 c 0
 466 750 430 682 430 572 c 2
 430 0 l 1
 70 0 l 1
 70 1040 l 1
 418 1040 l 1
 418 920 l 1
 453 981 542 1070 692 1070 c 0
 956 1070 1122 892 1122 572 c 1
 1122 0 l 1
 762 0 l 1
 762 572 l 2
EndSplineSet
Substitution2: "sous-table 'smcp' Bas-de-casse vers petites capitales dans Latin lookup 0" eng.sc
Colour: ff00
EndChar

StartChar: afii57929
Encoding: 700 700 341
Width: 565
VWidth: 1000
Flags: HMW
LayerCount: 4
Fore
SplineSet
50 1308 m 0
 50 1419 139 1508 250 1508 c 0
 361 1508 450 1419 450 1308 c 0
 450 1197 361 1108 250 1108 c 0
 139 1108 50 1197 50 1308 c 0
65 997 m 1
 194 1017 291 1082 291 1170 c 0
 291 1214 252 1308 252 1308 c 1
 250 1508 l 1
 363 1508 515 1436 515 1170 c 0
 515 959 284 795 125 767 c 1
 65 997 l 1
EndSplineSet
Colour: ff00
EndChar

StartChar: uni030B
Encoding: 779 779 342
Width: 0
VWidth: 1000
Flags: HMW
AnchorPoint: "top_center" 642 1040 mark 0
LayerCount: 4
Fore
SplineSet
1061 1224 m 5
 705 1224 l 1
 883 1480 l 1
 1287 1480 l 1
 1061 1224 l 5
481 1224 m 1
 125 1224 l 1
 303 1480 l 1
 707 1480 l 1
 481 1224 l 1
EndSplineSet
Colour: ffff00
EndChar

StartChar: tcaron
Encoding: 357 357 349
Width: 1337
VWidth: 1000
Flags: HMW
LayerCount: 4
Fore
SplineSet
1058 1427 m 0
 1058 1494 1111 1547 1178 1547 c 0
 1245 1547 1298 1494 1298 1427 c 0
 1298 1360 1245 1307 1178 1307 c 0
 1111 1307 1058 1360 1058 1427 c 0
1067 1230 m 1
 1144 1242 1203 1291 1203 1344 c 0
 1203 1370 1179 1427 1179 1427 c 1
 1178 1547 l 1
 1246 1547 1337 1504 1337 1344 c 0
 1337 1217 1198 1119 1103 1102 c 1
 1067 1230 l 1
97 1028 m 1
 217 1028 301 1106 301 1226 c 1
 301 1320 l 1
 637 1320 l 1
 637 1040 l 1
 942 1040 l 1
 942 720 l 1
 637 720 l 1
 637 440 l 2
 637 340 685 290 775 290 c 0
 835 290 910 313 942 345 c 1
 1033 22 l 1
 977 -2 892 -30 771 -30 c 0
 411 -30 277 160 277 440 c 2
 277 720 l 1
 25 720 l 1
 25 740 25 1008 25 1028 c 1
 97 1028 l 1
EndSplineSet
Substitution2: "sous-table 'smcp' Bas-de-casse vers petites capitales dans Latin lookup 0" tcaron.sc
Colour: ff00
EndChar

StartChar: tbar
Encoding: 359 359 350
Width: 1058
VWidth: 1000
Flags: HMW
LayerCount: 4
Fore
SplineSet
25 410 m 5
 25 456 25 604 25 650 c 5
 942 650 l 5
 942 410 l 5
 25 410 l 5
97 1028 m 1
 217 1028 301 1106 301 1226 c 1
 301 1320 l 1
 637 1320 l 1
 637 1040 l 1
 942 1040 l 1
 942 720 l 5
 637 720 l 5
 637 440 l 2
 637 340 685 290 775 290 c 0
 835 290 910 313 942 345 c 1
 1033 22 l 1
 977 -2 892 -30 771 -30 c 0
 411 -30 277 160 277 440 c 2
 277 720 l 1
 25 720 l 1
 25 750 25 998 25 1028 c 1
 97 1028 l 1
EndSplineSet
Substitution2: "sous-table 'smcp' Bas-de-casse vers petites capitales dans Latin lookup 0" tbar.sc
Colour: ff00
EndChar

StartChar: Tbar
Encoding: 358 358 351
Width: 1482
Flags: HMW
LayerCount: 4
Fore
SplineSet
1171 620 m 5
 311 620 l 5
 311 666 311 814 311 860 c 5
 1171 860 l 5
 1171 620 l 5
931 0 m 25
 551 0 l 25
 551 1144 l 25
 70 1144 l 25
 70 1480 l 25
 1412 1480 l 25
 1412 1144 l 25
 931 1144 l 25
 931 0 l 25
EndSplineSet
Substitution2: "sous-table 'c2sc' Capitales vers petites capitales dans Latin lookup 0" tbar.sc
Colour: ffff
EndChar

StartChar: zero.subscript
Encoding: 8320 8320 353
Width: 956
VWidth: 1528
Flags: HMW
LayerCount: 4
Fore
SplineSet
352 241 m 4
 352 85 406 34 478 34 c 0
 550 34 604 85 604 241 c 0
 604 397 550 448 478 448 c 0
 406 448 352 397 352 241 c 4
82 240 m 0
 82 530 240 688 478 688 c 0
 716 688 874 530 874 240 c 0
 874 -50 716 -206 478 -206 c 0
 240 -206 82 -50 82 240 c 0
EndSplineSet
Substitution2: "'tnum' Tabular Numbers lookups0-1" zero.subscript.tnum
Substitution2: "'pnum' Proportional Numbers lookups0-1" zero.subscript.pnum
Colour: ff8000
EndChar

StartChar: four.subscript
Encoding: 8324 8324 354
Width: 956
VWidth: 1528
Flags: HMW
LayerCount: 4
Fore
SplineSet
649 670 m 1
 355 670 l 1
 93 166 l 1
 93 -74 l 1
 489 -74 l 1
 489 -188 l 1
 759 -188 l 1
 759 -74 l 1
 863 -74 l 1
 863 166 l 1
 759 166 l 1
 759 280 l 1
 489 280 l 5
 489 166 l 5
 381 166 l 1
 649 670 l 1
EndSplineSet
Substitution2: "'tnum' Tabular Numbers lookups0-1" four.subscript.tnum
Substitution2: "'pnum' Proportional Numbers lookups0-1" four.subscript.pnum
Colour: ff8000
EndChar

StartChar: five.subscript
Encoding: 8325 8325 355
Width: 956
VWidth: 1528
Flags: HMW
LayerCount: 4
Fore
SplineSet
310 670 m 5
 439 670 l 1
 805 670 l 1
 805 430 l 1
 399 430 l 1
 389 358 l 1
 414 380 433 388 493 388 c 0
 718 388 861 291 861 91 c 0
 861 -109 702 -206 477 -206 c 0
 241 -206 120 -103 95 49 c 1
 364 122 l 0
 364 68 389 34 477 34 c 0
 547 34 590 60 590 106 c 0
 590 152 547 178 477 178 c 0
 407 178 403 170 367 143 c 1
 123 208 l 1
 181 670 l 1
 310 670 l 5
EndSplineSet
Substitution2: "'tnum' Tabular Numbers lookups0-1" five.subscript.tnum
Substitution2: "'pnum' Proportional Numbers lookups0-1" five.subscript.pnum
Colour: ff8000
EndChar

StartChar: six.subscript
Encoding: 8326 8326 356
Width: 956
VWidth: 1528
Flags: HMW
LayerCount: 4
Fore
SplineSet
357 336 m 5
 389 377 414 394 511 394 c 0
 736 394 866 288 866 94 c 0
 866 -100 718 -206 488 -206 c 0
 346 -206 237 -166 174 -68 c 0
 121 15 90 111 90 214 c 0
 90 496 214 688 574 688 c 0
 735 688 831 608 831 608 c 1
 714 402 l 1
 714 402 636 448 524 448 c 0
 412 448 370 397 357 336 c 5
382 109 m 0
 382 59 428 34 488 34 c 0
 548 34 595 59 595 109 c 0
 595 159 548 184 488 184 c 0
 428 184 382 159 382 109 c 0
EndSplineSet
Substitution2: "'tnum' Tabular Numbers lookups0-1" six.subscript.tnum
Substitution2: "'pnum' Proportional Numbers lookups0-1" six.subscript.pnum
Colour: ff8000
EndChar

StartChar: seven.subscript
Encoding: 8327 8327 357
Width: 956
VWidth: 1528
Flags: HMW
LayerCount: 4
Fore
SplineSet
108 431 m 1
 108 670 l 1
 848 670 l 1
 848 451 l 1
 848 451 561 268 510 -188 c 1
 459 -188 290 -188 239 -188 c 1
 296 267 527 431 527 431 c 1
 108 431 l 1
EndSplineSet
Substitution2: "'tnum' Tabular Numbers lookups0-1" seven.subscript.tnum
Substitution2: "'pnum' Proportional Numbers lookups0-1" seven.subscript.pnum
Colour: ff8000
EndChar

StartChar: eight.subscript
Encoding: 8328 8328 358
Width: 956
VWidth: 1528
Flags: HMW
LayerCount: 4
Fore
SplineSet
76 77 m 0
 76 224 190 265 190 265 c 1
 190 265 112 302 112 422 c 0
 112 595 250 688 477 688 c 0
 704 688 842 595 842 422 c 0
 842 302 763 265 763 265 c 1
 763 265 880 224 880 77 c 0
 880 -113 725 -206 477 -206 c 0
 229 -206 76 -113 76 77 c 0
380 401 m 0
 380 373 407 354 477 354 c 0
 547 354 574 373 574 401 c 0
 574 429 547 448 477 448 c 0
 407 448 380 429 380 401 c 0
477 170 m 4
 389 170 346 146 346 102 c 0
 346 58 389 34 477 34 c 0
 565 34 610 58 610 102 c 0
 610 146 565 170 477 170 c 4
EndSplineSet
Substitution2: "'tnum' Tabular Numbers lookups0-1" eight.subscript.tnum
Substitution2: "'pnum' Proportional Numbers lookups0-1" eight.subscript.pnum
Colour: ff8000
EndChar

StartChar: nine.subscript
Encoding: 8329 8329 359
Width: 956
VWidth: 1528
Flags: HMW
LayerCount: 4
Fore
SplineSet
599 146 m 5
 567 105 542 88 445 88 c 0
 220 88 90 194 90 388 c 0
 90 582 238 688 468 688 c 0
 610 688 719 648 782 550 c 0
 835 467 866 371 866 268 c 0
 866 -14 742 -206 382 -206 c 0
 221 -206 125 -126 125 -126 c 1
 242 80 l 1
 242 80 320 34 432 34 c 0
 544 34 586 85 599 146 c 5
574 373 m 0
 574 423 528 448 468 448 c 0
 408 448 361 423 361 373 c 0
 361 323 408 298 468 298 c 0
 528 298 574 323 574 373 c 0
EndSplineSet
Substitution2: "'tnum' Tabular Numbers lookups0-1" nine.subscript.tnum
Substitution2: "'pnum' Proportional Numbers lookups0-1" nine.subscript.pnum
Colour: ff8000
EndChar

StartChar: two.subscript
Encoding: 8322 8322 360
Width: 956
VWidth: 1528
Flags: HMW
LayerCount: 4
Fore
SplineSet
102 -188 m 1
 102 -61 115 121 478 290 c 0
 532 315 586 335 586 378 c 0
 586 427 533 448 478 448 c 0
 411 448 382 409 382 362 c 4
 382 321 391 302 391 302 c 5
 112 362 l 1
 112 563 269 688 478 688 c 0
 687 688 854 581 854 403 c 0
 854 225 757 178 596 103 c 0
 551 82 519 67 506 52 c 1
 854 52 l 1
 854 -188 l 1
 339 -188 l 1
 170 -188 l 1
 102 -188 l 1
EndSplineSet
Substitution2: "'tnum' Tabular Numbers lookups0-1" two.subscript.tnum
Substitution2: "'pnum' Proportional Numbers lookups0-1" two.subscript.pnum
Colour: ff8000
EndChar

StartChar: three.subscript
Encoding: 8323 8323 361
Width: 956
VWidth: 1528
Flags: HMW
LayerCount: 4
Fore
SplineSet
477 354 m 6
 547 354 574 373 574 401 c 4
 574 429 547 448 477 448 c 4
 407 448 380 419 380 381 c 4
 114 454 l 5
 131 606 264 688 477 688 c 4
 704 688 842 595 842 422 c 4
 842 302 763 265 763 265 c 5
 763 265 880 224 880 77 c 4
 880 -113 725 -206 477 -206 c 4
 241 -206 102 -103 77 49 c 5
 346 122 l 4
 346 68 389 34 477 34 c 4
 565 34 610 58 610 102 c 4
 610 146 565 170 477 170 c 6
 407 170 l 13
 407 354 l 29
 477 354 l 6
EndSplineSet
Substitution2: "'tnum' Tabular Numbers lookups0-1" three.subscript.tnum
Substitution2: "'pnum' Proportional Numbers lookups0-1" three.subscript.pnum
Colour: ff8000
EndChar

StartChar: one.subscript
Encoding: 8321 8321 362
Width: 956
VWidth: 1528
Flags: HMW
LayerCount: 4
Fore
SplineSet
388 268 m 5
 168 268 l 5
 168 508 l 5
 224 508 l 6
 326 508 405 578 405 654 c 6
 405 670 l 5
 658 670 l 5
 658 415 l 5
 658 -188 l 5
 388 -188 l 5
 388 268 l 5
EndSplineSet
Substitution2: "'tnum' Tabular Numbers lookups0-1" one.subscript.tnum
Substitution2: "'pnum' Proportional Numbers lookups0-1" one.subscript.pnum
Colour: ff8000
EndChar

StartChar: longs
Encoding: 383 383 363
Width: 851
VWidth: 1000
Flags: HMW
AnchorPoint: "top_center" 456 1380 basechar 0
AnchorPoint: "bottom_center" 250 0 basechar 0
LayerCount: 4
Fore
SplineSet
430 690 m 1
 430 1050 l 1
 430 1150 478 1190 568 1190 c 0
 628 1190 703 1167 735 1135 c 1
 826 1458 l 1
 770 1482 685 1510 564 1510 c 0
 204 1510 70 1320 70 1040 c 1
 70 680 l 1
 70 0 l 1
 430 0 l 1
 430 690 l 1
EndSplineSet
Colour: ff00
EndChar

StartChar: uni0180
Encoding: 384 384 364
Width: 1390
VWidth: 1000
Flags: HMW
LayerCount: 4
Fore
SplineSet
840 1120 m 5
 0 1120 l 5
 0 1166 0 1314 0 1360 c 5
 840 1360 l 5
 840 1120 l 5
570 510 m 0
 570 380 639 290 770 290 c 0
 907 290 980 390 980 520 c 0
 980 650 907 750 770 750 c 0
 633 750 570 640 570 510 c 0
210 168 m 1
 210 1480 l 1
 570 1480 l 1
 570 920 l 1
 580 959 685 1070 835 1070 c 0
 1155 1070 1340 840 1340 520 c 0
 1340 200 1155 -30 835 -30 c 0
 685 -30 558 80 558 120 c 1
 558 0 l 1
 210 0 l 1
 210 0 210 66 210 168 c 1
EndSplineSet
Substitution2: "sous-table 'smcp' Bas-de-casse vers petites capitales dans Latin lookup 0" uni0180.sc
Colour: ff00
EndChar

StartChar: uni0181
Encoding: 385 385 365
Width: 1736
Flags: HMW
LayerCount: 4
Fore
SplineSet
356 1040 m 1
 2 1040 l 1
 1 1052 0 1064 0 1076 c 0
 0 1326 184 1480 434 1480 c 0
 446 1480 458 1480 470 1479 c 1
 470 1153 l 1
 459 1158 447 1160 434 1160 c 0
 384 1160 349 1126 349 1076 c 0
 349 1063 350 1051 356 1040 c 1
1115 1480 m 1
 1439 1480 1609 1280 1609 1060 c 0
 1609 840 1379 656 1115 656 c 1
 1115 976 l 17
 1205 976 1229 1012 1229 1062 c 0
 1229 1112 1205 1144 1115 1144 c 9
 814 1144 l 1
 814 1480 l 25
 1115 1480 l 1
814 336 m 25
 1115 336 l 17
 1235 336 1306 416 1306 496 c 0
 1306 576 1235 656 1115 656 c 9
 814 656 l 25
 814 336 l 25
434 0 m 1
 434 1480 l 1
 814 1480 l 25
 814 976 l 1
 1115 976 l 1
 1481 976 1686 751 1686 496 c 0
 1686 241 1481 0 1115 0 c 1
 434 0 l 1
EndSplineSet
Colour: ffff
EndChar

StartChar: uni0182
Encoding: 386 386 366
Width: 1372
Flags: HMW
LayerCount: 4
Fore
SplineSet
1188 1144 m 9
 450 1144 l 1
 450 1480 l 25
 1188 1480 l 1
 1188 1144 l 9
450 336 m 25
 751 336 l 17
 871 336 942 416 942 496 c 0
 942 576 871 656 751 656 c 9
 450 656 l 25
 450 336 l 25
70 1480 m 1
 450 1480 l 25
 450 976 l 1
 751 976 l 5
 1117 976 1322 751 1322 496 c 0
 1322 241 1117 0 751 0 c 1
 70 0 l 1
 70 1480 l 1
EndSplineSet
Substitution2: "sous-table 'c2sc' Capitales vers petites capitales dans Latin lookup 0" uni0183.sc
Colour: ffff
EndChar

StartChar: uni0183
Encoding: 387 387 367
Width: 1250
VWidth: 1000
Flags: HMW
LayerCount: 4
Fore
SplineSet
1089 1160 m 9
 430 1160 l 1
 430 1480 l 25
 1089 1480 l 1
 1089 1160 l 9
430 510 m 0
 430 380 499 290 630 290 c 0
 767 290 840 390 840 520 c 0
 840 650 767 750 630 750 c 0
 493 750 430 640 430 510 c 0
70 168 m 1
 70 1480 l 1
 430 1480 l 1
 430 920 l 1
 440 959 545 1070 695 1070 c 0
 1015 1070 1200 840 1200 520 c 0
 1200 200 1015 -30 695 -30 c 0
 545 -30 418 80 418 120 c 5
 418 0 l 1
 70 0 l 1
 70 0 70 66 70 168 c 1
EndSplineSet
Substitution2: "sous-table 'smcp' Bas-de-casse vers petites capitales dans Latin lookup 0" uni0183.sc
Colour: ff00
EndChar

StartChar: uni0184
Encoding: 388 388 368
Width: 1579
Flags: HMW
LayerCount: 4
Fore
SplineSet
657 336 m 25
 958 336 l 17
 1078 336 1149 416 1149 496 c 0
 1149 576 1078 656 958 656 c 9
 657 656 l 25
 657 336 l 25
360 1480 m 5
 657 1480 l 1
 657 976 l 1
 958 976 l 1
 1324 976 1529 751 1529 496 c 0
 1529 241 1324 0 958 0 c 1
 277 0 l 5
 277 1000 l 5
 -50 1165 l 5
 360 1480 l 5
EndSplineSet
Substitution2: "sous-table 'c2sc' Capitales vers petites capitales dans Latin lookup 0" uni0185.sc
Colour: ffff
EndChar

StartChar: uni0185
Encoding: 389 389 369
Width: 1456
VWidth: 1000
Flags: HMW
LayerCount: 4
Fore
SplineSet
636 510 m 0
 636 380 705 290 836 290 c 0
 973 290 1046 390 1046 520 c 0
 1046 650 973 750 836 750 c 0
 699 750 636 640 636 510 c 0
636 1480 m 5
 636 920 l 1
 646 959 751 1070 901 1070 c 0
 1221 1070 1406 840 1406 520 c 0
 1406 200 1221 -30 901 -30 c 0
 751 -30 624 80 624 120 c 1
 624 0 l 1
 276 0 l 1
 276 0 276 66 276 168 c 1
 276 1000 l 5
 -50 1165 l 5
 360 1480 l 5
 636 1480 l 5
EndSplineSet
Substitution2: "sous-table 'smcp' Bas-de-casse vers petites capitales dans Latin lookup 0" uni0185.sc
Colour: ff00
EndChar

StartChar: uni0186
Encoding: 390 390 370
Width: 1535
Flags: HMW
LayerCount: 4
Fore
SplineSet
375 930 m 5
 426 1078 544 1174 725 1174 c 4
 975 1174 1105 990 1105 740 c 4
 1105 490 975 306 725 306 c 4
 544 306 426 402 375 550 c 1
 50 360 l 1
 170 120 410 -30 725 -30 c 4
 1185 -30 1485 290 1485 740 c 4
 1485 1190 1185 1510 725 1510 c 4
 410 1510 170 1360 50 1120 c 5
 375 930 l 5
EndSplineSet
Colour: ffff
EndChar

StartChar: uni0187
Encoding: 391 391 371
Width: 1599
Flags: HMW
LayerCount: 4
Fore
SplineSet
1563 1560 m 4
 1575 1560 1587 1560 1599 1559 c 5
 1599 1233 l 5
 1588 1238 1576 1240 1563 1240 c 4
 1513 1240 1478 1206 1478 1156 c 4
 1478 1143 1479 1131 1485 1120 c 5
 1131 1120 l 5
 1130 1132 1129 1144 1129 1156 c 4
 1129 1406 1313 1560 1563 1560 c 4
1160 930 m 1
 1109 1078 991 1174 810 1174 c 0
 560 1174 430 990 430 740 c 0
 430 490 560 306 810 306 c 0
 991 306 1109 402 1160 550 c 1
 1485 360 l 1
 1365 120 1125 -30 810 -30 c 0
 350 -30 50 290 50 740 c 0
 50 1190 350 1510 810 1510 c 0
 1125 1510 1365 1360 1485 1120 c 5
 1160 930 l 1
EndSplineSet
Substitution2: "sous-table 'c2sc' Capitales vers petites capitales dans Latin lookup 0" uni0188.sc
Colour: ffff
EndChar

StartChar: uni0188
Encoding: 392 392 372
Width: 1201
VWidth: 1000
Flags: HMW
LayerCount: 4
Fore
SplineSet
1165 1228 m 4
 1177 1228 1189 1228 1201 1227 c 5
 1201 901 l 5
 1190 906 1178 908 1165 908 c 4
 1115 908 1080 874 1080 824 c 4
 1080 811 1081 799 1087 788 c 5
 733 788 l 5
 732 800 731 812 731 824 c 4
 731 1074 915 1228 1165 1228 c 4
410 520 m 0
 410 383 463 290 600 290 c 0
 704 290 759 344 780 430 c 1
 1087 252 l 1
 999 79 821 -30 600 -30 c 0
 280 -30 50 200 50 520 c 0
 50 840 280 1070 600 1070 c 0
 821 1070 999 961 1087 788 c 5
 780 610 l 1
 759 696 704 750 600 750 c 0
 463 750 410 657 410 520 c 0
EndSplineSet
Substitution2: "sous-table 'smcp' Bas-de-casse vers petites capitales dans Latin lookup 0" uni0188.sc
Colour: ff00
EndChar

StartChar: uni018A
Encoding: 394 394 374
Width: 1850
Flags: HMW
LayerCount: 4
Fore
SplineSet
356 1040 m 5
 2 1040 l 5
 1 1052 0 1064 0 1076 c 4
 0 1326 184 1480 434 1480 c 4
 446 1480 458 1480 470 1479 c 1
 470 1153 l 1
 459 1158 447 1160 434 1160 c 4
 384 1160 349 1126 349 1076 c 4
 349 1063 350 1051 356 1040 c 5
814 1144 m 25
 814 336 l 25
 1034 336 l 17
 1238 336 1420 467 1420 740 c 0
 1420 1013 1228 1144 1034 1144 c 9
 814 1144 l 25
1034 0 m 1
 662 0 l 25
 434 0 l 1
 434 1480 l 5
 1034 1480 l 1
 1490 1480 1800 1190 1800 740 c 0
 1800 290 1490 0 1034 0 c 1
EndSplineSet
Colour: ffff
EndChar

StartChar: uni018B
Encoding: 395 395 375
Width: 1372
Flags: HMW
LayerCount: 4
Fore
SplineSet
184 1144 m 9
 922 1144 l 1
 922 1480 l 25
 184 1480 l 1
 184 1144 l 9
922 336 m 25
 621 336 l 17
 501 336 430 416 430 496 c 0
 430 576 501 656 621 656 c 9
 922 656 l 25
 922 336 l 25
1302 1480 m 1
 922 1480 l 25
 922 976 l 1
 621 976 l 5
 255 976 50 751 50 496 c 0
 50 241 255 0 621 0 c 1
 1302 0 l 1
 1302 1480 l 1
EndSplineSet
Substitution2: "sous-table 'c2sc' Capitales vers petites capitales dans Latin lookup 0" uni018C.sc
Colour: ffff
EndChar

StartChar: uni018C
Encoding: 396 396 376
Width: 1250
VWidth: 1000
Flags: HMW
LayerCount: 4
Fore
SplineSet
161 1160 m 1
 820 1160 l 17
 820 1480 l 1
 161 1480 l 25
 161 1160 l 1
820 510 m 0
 820 380 751 290 620 290 c 0
 483 290 410 390 410 520 c 0
 410 650 483 750 620 750 c 0
 757 750 820 640 820 510 c 0
1180 168 m 1
 1180 1480 l 1
 820 1480 l 1
 820 920 l 1
 810 959 705 1070 555 1070 c 0
 235 1070 50 840 50 520 c 0
 50 200 235 -30 555 -30 c 0
 705 -30 832 80 832 120 c 1
 832 60 856 0 856 0 c 1
 1204 0 l 1
 1204 0 1180 66 1180 168 c 1
EndSplineSet
Substitution2: "sous-table 'smcp' Bas-de-casse vers petites capitales dans Latin lookup 0" uni018C.sc
Colour: ff00
EndChar

StartChar: uni018D
Encoding: 397 397 377
Width: 1200
VWidth: 1000
Flags: HMW
LayerCount: 4
Fore
SplineSet
1150 520 m 0
 1150 200 920 70 600 70 c 0
 600 290 l 0
 737 290 790 383 790 520 c 0
 790 650 737 750 600 750 c 0
 463 750 410 657 410 520 c 0
 410 383 463 290 600 290 c 0
 600 -30 l 0
 280 -30 50 200 50 520 c 0
 50 840 280 1070 600 1070 c 0
 920 1070 1150 840 1150 520 c 0
600 -470 m 4
 384 -470 240 -444 118 -393 c 1
 196 -79 l 1
 323 -134 461 -150 600 -150 c 4
 686 -150 722 -130 722 -90 c 4
 722 -50 686 -30 600 -30 c 0
 600 290 l 0
 936 290 1082 90 1082 -90 c 4
 1082 -270 936 -470 600 -470 c 4
EndSplineSet
Colour: ff00
EndChar

StartChar: uni018E
Encoding: 398 398 378
Width: 1254
Flags: HMW
LayerCount: 4
Fore
SplineSet
184 572 m 21
 184 908 l 13
 804 908 l 21
 804 1144 l 1
 70 1144 l 1
 70 1480 l 1
 1184 1480 l 25
 1184 0 l 1
 70 0 l 17
 70 336 l 1
 804 336 l 1
 804 572 l 13
 184 572 l 21
EndSplineSet
Substitution2: "sous-table 'c2sc' Capitales vers petites capitales dans Latin lookup 0" uni01DD.sc
Colour: ffff
EndChar

StartChar: uni018F
Encoding: 399 399 379
Width: 1620
Flags: HMW
LayerCount: 4
Fore
SplineSet
65 908 m 5
 55 854 50 798 50 740 c 0
 50 290 350 -30 810 -30 c 0
 1270 -30 1570 290 1570 740 c 0
 1570 1190 1270 1510 810 1510 c 0
 495 1510 255 1360 135 1120 c 1
 460 930 l 1
 511 1078 629 1174 810 1174 c 0
 1060 1174 1190 990 1190 740 c 0
 1190 490 1060 306 810 306 c 0
 560 306 430 490 430 740 c 0
 430 800 438 857 453 908 c 5
 65 908 l 5
1396 572 m 17
 1396 908 l 1
 453 908 l 17
 216 572 l 1
 1396 572 l 17
EndSplineSet
Colour: ffff
EndChar

StartChar: uni0190
Encoding: 400 400 380
Width: 1326
VWidth: 1000
Flags: HMW
LayerCount: 4
Fore
SplineSet
664 936 m 26
 579 936 484 970 484 1050 c 0
 484 1130 539 1174 664 1174 c 0
 789 1174 852 1130 852 1050 c 0
 1223 1150 l 1
 1178 1377 956 1510 664 1510 c 0
 334 1510 104 1341 104 1058 c 0
 104 829 270 781 270 781 c 1
 270 781 50 695 50 453 c 0
 50 120 304 -30 664 -30 c 0
 959 -30 1233 91 1276 361 c 1
 903 461 l 0
 903 361 814 306 664 306 c 0
 514 306 430 361 430 461 c 0
 430 561 514 616 664 616 c 2
 778 616 l 17
 778 936 l 9
 664 936 l 26
EndSplineSet
Colour: ffff
EndChar

StartChar: uni0191
Encoding: 401 401 381
Width: 1305
Flags: HMW
LayerCount: 4
Fore
SplineSet
0 -77 m 5
 11 -82 23 -84 36 -84 c 4
 86 -84 121 -50 121 0 c 4
 501 0 l 4
 501 -250 286 -404 36 -404 c 4
 24 -404 12 -404 0 -403 c 5
 0 -77 l 5
501 219 m 5
 501 0 l 5
 121 0 l 29
 121 1480 l 5
 1235 1480 l 17
 1235 1144 l 1
 501 1144 l 5
 501 908 l 13
 1121 908 l 17
 1121 572 l 9
 501 572 l 21
 501 219 l 5
EndSplineSet
Colour: ffff
EndChar

StartChar: florin
Encoding: 402 402 382
Width: 1058
VWidth: 1000
Flags: HMW
LayerCount: 4
Fore
SplineSet
156 -77 m 1
 167 -82 179 -84 192 -84 c 0
 242 -84 277 -50 277 0 c 0
 637 0 l 0
 637 -250 442 -404 192 -404 c 0
 180 -404 168 -404 156 -403 c 1
 156 -77 l 1
942 1135 m 1
 910 1167 835 1190 775 1190 c 0
 685 1190 637 1150 637 1050 c 1
 637 1040 l 1
 942 1040 l 1
 942 720 l 1
 637 720 l 1
 637 0 l 25
 277 0 l 25
 277 720 l 1
 25 720 l 1
 25 1040 l 1
 277 1040 l 1
 277 1050 l 1
 277 1330 411 1510 771 1510 c 0
 892 1510 977 1482 1033 1458 c 1
 942 1135 l 1
EndSplineSet
Substitution2: "sous-table 'smcp' Bas-de-casse vers petites capitales dans Latin lookup 0" florin.sc
Colour: ff00
EndChar

StartChar: uni0193
Encoding: 403 403 383
Width: 1599
Flags: HMW
LayerCount: 4
Fore
SplineSet
1563 1560 m 0
 1575 1560 1587 1560 1599 1559 c 1
 1599 1233 l 1
 1588 1238 1576 1240 1563 1240 c 0
 1513 1240 1478 1206 1478 1156 c 0
 1478 1143 1479 1131 1485 1120 c 1
 1131 1120 l 1
 1130 1132 1129 1144 1129 1156 c 0
 1129 1406 1313 1560 1563 1560 c 0
1156 930 m 1
 1105 1078 991 1174 810 1174 c 0
 560 1174 430 990 430 740 c 0
 430 490 560 306 810 306 c 0
 991 306 1105 402 1156 550 c 1
 1321 360 l 1
 1201 120 1125 -30 810 -30 c 0
 350 -30 50 290 50 740 c 0
 50 1190 350 1510 810 1510 c 0
 1125 1510 1365 1360 1485 1120 c 1
 1156 930 l 1
748 824 m 25
 1493 824 l 25
 1493 0 l 25
 1133 0 l 17
 1133 227 l 1
 1113 253 l 1
 1113 488 l 9
 748 488 l 25
 748 824 l 25
EndSplineSet
Substitution2: "'ss03' Simplified G and I lookups0-1" uni0193.ss03
Colour: ffff
EndChar

StartChar: uni0194
Encoding: 404 404 384
Width: 1530
VWidth: 1000
Flags: HMW
LayerCount: 4
Back
SplineSet
773 400 m 5
 1103 1480 l 5
 1495 1480 l 5
 1003 0 l 5
 527 0 l 5
 35 1480 l 5
 427 1480 l 5
 773 400 l 5
EndSplineSet
Fore
SplineSet
1158 100 m 5
 1188 48 1204 -13 1204 -66 c 4
 1204 -296 1000 -470 770 -470 c 4
 540 -470 336 -296 336 -66 c 4
 336 -13 352 48 382 100 c 5
 527 338 l 5
 35 1480 l 1
 427 1480 l 1
 773 679 l 1
 1103 1480 l 1
 1495 1480 l 1
 1003 338 l 5
 1158 100 l 5
835 0 m 5
 770 107 l 29
 705 0 l 5
 700 -9 685 -38 685 -66 c 4
 685 -116 720 -150 770 -150 c 4
 820 -150 854 -116 854 -66 c 4
 854 -38 842 -12 835 0 c 5
EndSplineSet
Colour: ffff
EndChar

StartChar: uni0195
Encoding: 405 405 385
Width: 1864
VWidth: 1000
Flags: HMW
LayerCount: 4
Fore
SplineSet
1814 467 m 4
 1814 147 1608 -31 1288 -31 c 0
 968 -31 762 147 762 467 c 1
 762 572 l 2
 762 682 726 750 596 750 c 0
 466 750 430 682 430 572 c 2
 430 0 l 1
 70 0 l 1
 70 1480 l 1
 418 1480 l 1
 418 920 l 1
 453 981 542 1070 692 1070 c 0
 956 1070 1122 892 1122 572 c 1
 1122 467 l 2
 1122 357 1158 289 1288 289 c 0
 1418 289 1454 357 1454 467 c 4
 1454 697 1416 842 1297 945 c 5
 1597 1109 l 5
 1722 980 1814 817 1814 467 c 4
EndSplineSet
Substitution2: "sous-table 'smcp' Bas-de-casse vers petites capitales dans Latin lookup 0" uni0195.sc
Colour: ff00
EndChar

StartChar: uni0196
Encoding: 406 406 386
Width: 851
VWidth: 1000
Flags: HMW
LayerCount: 4
Fore
SplineSet
564 -30 m 0
 204 -30 70 160 70 440 c 1
 70 842 l 1
 70 1480 l 9
 430 1480 l 17
 430 842 l 1
 430 430 l 1
 430 330 478 290 568 290 c 0
 628 290 703 313 735 345 c 1
 826 22 l 1
 770 -2 685 -30 564 -30 c 0
EndSplineSet
Colour: ffff
EndChar

StartChar: uni0197
Encoding: 407 407 387
Width: 924
Flags: HMW
LayerCount: 4
Fore
SplineSet
892 620 m 5
 32 620 l 5
 32 666 32 814 32 860 c 5
 892 860 l 5
 892 620 l 5
70 1480 m 25
 854 1480 l 25
 854 1144 l 25
 652 1144 l 25
 652 336 l 25
 854 336 l 25
 854 0 l 25
 70 0 l 25
 70 336 l 25
 272 336 l 25
 272 1144 l 25
 70 1144 l 25
 70 1480 l 25
EndSplineSet
Substitution2: "'ss03' Simplified G and I lookups0-1" uni0197.ss03
Colour: ffff
EndChar

StartChar: uni0198
Encoding: 408 408 388
Width: 1463
Flags: HMW
LayerCount: 4
Fore
SplineSet
453 801 m 1
 792 925 l 1
 1458 0 l 1
 1018 0 l 1
 453 801 l 1
70 1106 m 4
 70 1356 285 1510 535 1510 c 4
 547 1510 559 1510 571 1509 c 5
 571 1183 l 5
 560 1188 548 1190 535 1190 c 4
 485 1190 450 1156 450 1106 c 4
 450 940 l 1
 978 1480 l 1
 1050 1480 1386 1480 1458 1480 c 1
 450 450 l 1
 450 0 l 1
 70 0 l 1
 70 1106 l 4
EndSplineSet
Substitution2: "sous-table 'c2sc' Capitales vers petites capitales dans Latin lookup 0" uni0199.sc
Colour: ffff
EndChar

StartChar: uni0199
Encoding: 409 409 389
Width: 1163
Flags: HMW
LayerCount: 4
Fore
SplineSet
285 643 m 1
 682 660 l 1
 1158 0 l 1
 738 0 l 1
 285 643 l 1
70 1106 m 4
 70 1356 265 1510 515 1510 c 4
 527 1510 539 1510 551 1509 c 5
 551 1183 l 5
 540 1188 528 1190 515 1190 c 4
 465 1190 430 1156 430 1106 c 4
 430 808 l 1
 662 1040 l 1
 734 1040 1054 1040 1126 1040 c 1
 430 344 l 1
 430 0 l 1
 70 0 l 1
 70 1106 l 4
EndSplineSet
Substitution2: "sous-table 'smcp' Bas-de-casse vers petites capitales dans Latin lookup 0" uni0199.sc
Colour: ff00
EndChar

StartChar: uni019A
Encoding: 410 410 390
Width: 840
Flags: HMW
LayerCount: 4
Fore
SplineSet
840 620 m 5
 0 620 l 5
 0 666 0 814 0 860 c 5
 840 860 l 5
 840 620 l 5
726 306 m 1
 826 14 l 1
 800 1 752 -30 664 -30 c 0
 480 -30 236 62 236 362 c 2
 236 440 l 1
 236 578 l 1
 236 1480 l 1
 596 1480 l 1
 596 578 l 1
 596 440 l 1
 596 362 l 2
 596 312 612 290 664 290 c 0
 683 290 713 297 726 306 c 1
EndSplineSet
Substitution2: "sous-table 'smcp' Bas-de-casse vers petites capitales dans Latin lookup 0" uni019A.sc
Colour: ff00
EndChar

StartChar: uni019B
Encoding: 411 411 391
Width: 1375
VWidth: 1000
Flags: HMW
LayerCount: 4
Fore
SplineSet
709 1174 m 1
 860 1247 l 1
 790 1382 l 1
 620 1302 l 1
 214 1107 l 1
 283 969 l 1
 709 1174 l 1
784 1040 m 1
 730 1198 l 1
 648 1424 539 1510 260 1510 c 0
 139 1510 109 1489 53 1465 c 1
 149 1145 l 1
 181 1177 200 1190 260 1190 c 0
 320 1190 374 1147 389 1084 c 1
 401 1040 l 1
 35 0 l 1
 419 0 l 1
 595 526 l 1
 673 282 l 1
 746 56 854 -30 1133 -30 c 0
 1254 -30 1284 -9 1340 15 c 1
 1244 335 l 1
 1212 303 1193 290 1133 290 c 0
 1073 290 1019 333 1004 396 c 1
 784 1040 l 1
EndSplineSet
Substitution2: "sous-table 'smcp' Bas-de-casse vers petites capitales dans Latin lookup 0" uni019B.sc
Colour: ff00
EndChar

StartChar: uni019C
Encoding: 412 412 392
Width: 1644
VWidth: 1000
Flags: HMW
LayerCount: 4
Fore
SplineSet
1574 178 m 1
 1574 76 1598 0 1598 0 c 1
 1250 0 l 1
 1250 0 1226 60 1226 120 c 1
 1226 120 1162 -30 1012 -30 c 0
 748 -30 642 148 642 468 c 1
 642 1460 l 5
 1002 1460 l 5
 1002 468 l 2
 1002 358 1008 290 1108 290 c 0
 1208 290 1214 358 1214 468 c 2
 1214 1460 l 5
 1574 1460 l 5
 1574 178 l 1
810 468 m 1
 810 148 704 -30 440 -30 c 0
 176 -30 70 148 70 468 c 1
 70 1460 l 5
 430 1460 l 5
 430 468 l 2
 430 358 436 290 536 290 c 0
 636 290 642 358 642 468 c 9
 810 468 l 1
EndSplineSet
Colour: ffff
EndChar

StartChar: uni019D
Encoding: 413 413 393
Width: 1533
Flags: HMW
LayerCount: 4
Fore
SplineSet
0 -77 m 1
 11 -82 23 -84 36 -84 c 0
 86 -84 121 -50 121 0 c 0
 501 0 l 4
 501 -250 286 -404 36 -404 c 0
 24 -404 12 -404 0 -403 c 1
 0 -77 l 1
485 1480 m 1
 1083 652 l 25
 1083 1480 l 1
 1463 1480 l 25
 1463 0 l 25
 1099 0 l 1
 501 828 l 1
 501 0 l 1
 121 0 l 25
 121 1480 l 1
 485 1480 l 1
EndSplineSet
Colour: ffff
EndChar

StartChar: uni019E
Encoding: 414 414 394
Width: 1192
VWidth: 1000
Flags: HMW
LayerCount: 4
Fore
SplineSet
762 -440 m 5
 762 572 l 2
 762 682 726 750 596 750 c 0
 466 750 430 682 430 572 c 2
 430 0 l 1
 70 0 l 1
 70 1040 l 1
 418 1040 l 1
 418 920 l 1
 453 981 542 1070 692 1070 c 0
 956 1070 1122 892 1122 572 c 1
 1122 -440 l 5
 762 -440 l 5
EndSplineSet
Substitution2: "sous-table 'smcp' Bas-de-casse vers petites capitales dans Latin lookup 0" uni019E.sc
Colour: ff00
EndChar

StartChar: uni019F
Encoding: 415 415 395
Width: 1620
Flags: HMW
LayerCount: 4
Fore
SplineSet
1396 572 m 13
 216 572 l 17
 216 908 l 9
 1396 908 l 17
 1396 572 l 13
430 740 m 0
 430 490 560 306 810 306 c 0
 1060 306 1190 490 1190 740 c 0
 1190 990 1060 1174 810 1174 c 0
 560 1174 430 990 430 740 c 0
50 740 m 0
 50 1190 350 1510 810 1510 c 0
 1270 1510 1570 1190 1570 740 c 0
 1570 290 1270 -30 810 -30 c 0
 350 -30 50 290 50 740 c 0
EndSplineSet
Colour: ffff
EndChar

StartChar: uni031B
Encoding: 795 795 398
Width: 0
Flags: HMW
AnchorPoint: "top_right" 0 1480 mark 0
LayerCount: 4
Fore
SplineSet
159 1272 m 1
 156 1271 152 1270 149 1270 c 0
 82 1270 29 1323 29 1390 c 0
 29 1457 82 1510 149 1510 c 0
 217 1510 288 1467 288 1307 c 0
 288 1150 148 1059 0 1033 c 5
 0 1193 l 1
 118 1214 159 1256 159 1272 c 1
EndSplineSet
Colour: ffff00
EndChar

StartChar: uni01A2
Encoding: 418 418 399
Width: 2116
Flags: HMW
LayerCount: 4
Fore
SplineSet
1259 1368 m 4
 1259 1052 l 4
 1565 1052 1744 1158 1824 1250 c 1
 1666 1510 l 1
 1600 1458 1451 1368 1259 1368 c 4
1666 -440 m 1
 2046 -440 l 1
 2046 1510 l 1
 1666 1510 l 1
 1666 -440 l 1
1105 360 m 1
 1485 360 l 1
 1485 1120 l 1
 1105 1120 l 1
 1105 360 l 1
1220 550 m 1
 1169 402 991 306 810 306 c 0
 560 306 430 490 430 740 c 0
 430 990 560 1174 810 1174 c 0
 991 1174 1169 1078 1220 930 c 1
 1485 1120 l 1
 1365 1360 1125 1510 810 1510 c 0
 350 1510 50 1190 50 740 c 0
 50 290 350 -30 810 -30 c 0
 1125 -30 1365 120 1485 360 c 1
 1220 550 l 1
EndSplineSet
Substitution2: "sous-table 'c2sc' Capitales vers petites capitales dans Latin lookup 0" uni01A3.sc
Colour: ffff
EndChar

StartChar: uni01A3
Encoding: 419 419 400
Width: 1677
VWidth: 1000
Flags: HMW
LayerCount: 4
Fore
SplineSet
1405 780 m 5
 1247 1040 l 5
 1181 988 1042 898 850 898 c 4
 850 582 l 4
 1156 582 1325 688 1405 780 c 5
1247 -440 m 5
 1607 -440 l 5
 1607 1040 l 5
 1247 1040 l 5
 1247 -440 l 5
727 252 m 1
 1067 252 l 1
 1067 788 l 1
 727 788 l 1
 727 252 l 1
760 430 m 1
 739 344 704 290 600 290 c 0
 463 290 410 383 410 520 c 0
 410 657 463 750 600 750 c 0
 704 750 739 696 760 610 c 1
 1067 788 l 1
 979 961 821 1070 600 1070 c 0
 280 1070 50 840 50 520 c 0
 50 200 280 -30 600 -30 c 0
 821 -30 979 79 1067 252 c 1
 760 430 l 1
EndSplineSet
Substitution2: "sous-table 'smcp' Bas-de-casse vers petites capitales dans Latin lookup 0" uni01A3.sc
Colour: ff00
EndChar

StartChar: uni01A4
Encoding: 420 420 401
Width: 1622
Flags: HMW
LayerCount: 4
Fore
SplineSet
356 1040 m 1
 2 1040 l 1
 1 1052 0 1064 0 1076 c 4
 0 1326 184 1480 434 1480 c 4
 446 1480 458 1480 470 1479 c 1
 470 1153 l 1
 459 1158 447 1160 434 1160 c 0
 384 1160 349 1126 349 1076 c 0
 349 1063 350 1051 356 1040 c 1
814 1144 m 25
 814 824 l 25
 1001 824 l 17
 1121 824 1192 874 1192 984 c 0
 1192 1094 1121 1144 1001 1144 c 9
 814 1144 l 25
434 0 m 1
 434 1480 l 1
 1001 1480 l 1
 1387 1480 1572 1239 1572 984 c 0
 1572 729 1387 488 1001 488 c 1
 814 488 l 1
 814 0 l 25
 434 0 l 1
EndSplineSet
Substitution2: "sous-table 'c2sc' Capitales vers petites capitales dans Latin lookup 0" uni01A5.sc
Colour: ffff
EndChar

StartChar: uni01A5
Encoding: 421 421 402
Width: 1250
VWidth: 1000
Flags: HMW
LayerCount: 4
Fore
SplineSet
420 518 m 0
 420 388 493 290 630 290 c 0
 767 290 840 390 840 520 c 0
 840 650 767 750 630 750 c 0
 493 750 420 648 420 518 c 0
70 1106 m 0
 70 1356 265 1510 515 1510 c 4
 527 1510 539 1510 551 1509 c 1
 551 1183 l 1
 540 1188 528 1190 515 1190 c 0
 465 1190 430 1156 430 1106 c 0
 430 1106 430 960 430 920 c 1
 440 959 545 1070 695 1070 c 0
 1015 1070 1200 840 1200 520 c 0
 1200 200 1015 -30 695 -30 c 0
 545 -30 440 81 430 120 c 1
 430 -440 l 1
 70 -440 l 1
 70 520 l 1
 70 1106 l 0
EndSplineSet
Substitution2: "sous-table 'smcp' Bas-de-casse vers petites capitales dans Latin lookup 0" uni01A5.sc
Colour: ff00
EndChar

StartChar: uni01A6
Encoding: 422 422 403
Width: 1293
Flags: HMW
LayerCount: 4
Fore
SplineSet
395 475 m 1
 812 492 l 1
 1288 -168 l 1
 848 -168 l 1
 395 475 l 1
450 976 m 25
 450 656 l 25
 637 656 l 17
 757 656 828 706 828 816 c 0
 828 926 757 976 637 976 c 9
 450 976 l 25
70 0 m 1
 70 1480 l 1
 450 1480 l 1
 450 1312 l 5
 637 1312 l 1
 1023 1312 1208 1071 1208 816 c 0
 1208 561 1023 320 637 320 c 1
 450 320 l 1
 450 0 l 25
 70 0 l 1
EndSplineSet
Colour: ffff
EndChar

StartChar: uni01A7
Encoding: 423 423 404
Width: 1327
VWidth: 1000
Flags: HMW
AnchorPoint: "bottom_center" 665 0 basechar 0
AnchorPoint: "top_center" 665 1380 basechar 0
LayerCount: 4
Fore
SplineSet
665 1174 m 0
 805 1174 869 1132 869 1052 c 0
 869 992 771 973 665 945 c 0
 298 847 50 725 50 445 c 0
 50 165 255 -30 665 -30 c 0
 970 -30 1234 91 1277 361 c 1
 904 461 l 0
 904 361 815 306 665 306 c 0
 515 306 430 355 430 445 c 0
 430 535 559 549 665 577 c 0
 1013 670 1249 792 1249 1052 c 0
 1249 1312 1035 1510 665 1510 c 0
 360 1510 121 1394 78 1124 c 1
 451 1024 l 0
 451 1124 525 1174 665 1174 c 0
EndSplineSet
Substitution2: "sous-table 'c2sc' Capitales vers petites capitales dans Latin lookup 0" uni01A8.sc
Colour: ffff
EndChar

StartChar: uni01A8
Encoding: 424 424 405
Width: 1066
VWidth: 1000
Flags: HMW
AnchorPoint: "top_center" 537 1040 basechar 0
AnchorPoint: "bottom_center" 537 0 basechar 0
AnchorPoint: "bottom_right" 316 0 basechar 0
LayerCount: 4
Fore
SplineSet
537 1070 m 0
 257 1070 117 931 71 775 c 1
 418 685 l 0
 418 705 437 750 537 750 c 0
 607 750 626 735 626 715 c 0
 626 695 596 675 537 663 c 0
 244 601 50 566 50 326 c 0
 50 86 261 -30 537 -30 c 0
 776 -30 968 85 1016 265 c 1
 664 356 l 0
 664 326 627 290 537 290 c 0
 447 290 410 296 410 326 c 0
 410 356 478 371 537 383 c 0
 817 442 986 515 986 715 c 0
 986 915 817 1070 537 1070 c 0
EndSplineSet
Substitution2: "sous-table 'smcp' Bas-de-casse vers petites capitales dans Latin lookup 0" uni01A8.sc
Colour: ff00
EndChar

StartChar: uni01AA
Encoding: 426 426 407
Width: 1309
VWidth: 1000
Flags: HMW
LayerCount: 4
Fore
SplineSet
50 1129 m 0
 50 1349 249 1510 469 1510 c 0
 689 1510 888 1349 888 1129 c 0
 888 909 689 748 469 748 c 0
 249 748 50 909 50 1129 c 0
430 1129 m 0
 430 1103 443 1084 469 1084 c 0
 495 1084 508 1103 508 1129 c 0
 508 1155 495 1174 469 1174 c 0
 443 1174 430 1155 430 1129 c 0
888 430 m 1
 888 330 936 290 1026 290 c 0
 1086 290 1161 313 1193 345 c 1
 1284 22 l 1
 1228 -2 1143 -30 1022 -30 c 0
 662 -30 508 160 508 440 c 1
 508 869 l 1
 888 1129 l 1
 888 430 l 1
EndSplineSet
Colour: ffff
EndChar

StartChar: uni01AB
Encoding: 427 427 408
Width: 1058
VWidth: 1000
Flags: HMW
LayerCount: 4
Fore
SplineSet
947 0 m 4
 947 -250 752 -404 502 -404 c 4
 490 -404 478 -404 466 -403 c 5
 466 -77 l 5
 477 -82 489 -84 502 -84 c 4
 552 -84 587 -50 587 0 c 4
 947 0 l 4
97 1028 m 1
 217 1028 301 1106 301 1226 c 1
 301 1320 l 1
 637 1320 l 1
 637 1040 l 1
 942 1040 l 1
 942 720 l 1
 637 720 l 1
 637 440 l 2
 637 340 685 290 775 290 c 0
 835 290 910 313 942 345 c 1
 1033 22 l 1
 977 -2 892 -30 771 -30 c 0
 411 -30 277 160 277 440 c 2
 277 720 l 1
 25 720 l 1
 25 1028 l 1
 97 1028 l 1
EndSplineSet
Substitution2: "sous-table 'smcp' Bas-de-casse vers petites capitales dans Latin lookup 0" uni01AB.sc
Colour: ff00
EndChar

StartChar: uni01AC
Encoding: 428 428 409
Width: 1528
Flags: HMW
LayerCount: 4
Fore
SplineSet
356 1024 m 1
 2 1024 l 1
 1 1036 0 1048 0 1060 c 4
 0 1310 184 1480 434 1480 c 0
 434 1144 l 0
 384 1144 349 1110 349 1060 c 0
 349 1047 350 1035 356 1024 c 1
597 1144 m 25
 434 1144 l 25
 434 1480 l 25
 1458 1480 l 25
 1458 1144 l 25
 977 1144 l 25
 977 0 l 25
 597 0 l 25
 597 1144 l 25
EndSplineSet
Substitution2: "sous-table 'c2sc' Capitales vers petites capitales dans Latin lookup 0" uni01AD.sc
Colour: ffff
EndChar

StartChar: uni01AE
Encoding: 430 430 410
Width: 1482
Flags: HMW
LayerCount: 4
Fore
SplineSet
1052 -77 m 1
 1041 -82 1029 -84 1016 -84 c 0
 966 -84 931 -50 931 0 c 0
 551 0 l 4
 551 -250 766 -404 1016 -404 c 4
 1028 -404 1040 -404 1052 -403 c 1
 1052 -77 l 1
551 1144 m 25
 70 1144 l 25
 70 1480 l 25
 1412 1480 l 25
 1412 1144 l 25
 931 1144 l 25
 931 0 l 25
 551 0 l 25
 551 1144 l 25
EndSplineSet
Colour: ffff
EndChar

StartChar: uni01AD
Encoding: 429 429 411
Width: 1103
Flags: HMW
LayerCount: 4
Fore
SplineSet
301 1320 m 4
 301 1570 472 1724 722 1724 c 0
 734 1724 746 1724 758 1723 c 1
 758 1397 l 1
 747 1402 735 1404 722 1404 c 0
 672 1404 637 1370 637 1320 c 0
 637 1040 l 1
 942 1040 l 1
 942 720 l 1
 637 720 l 1
 637 440 l 2
 637 340 685 290 775 290 c 0
 835 290 910 313 942 345 c 1
 1033 22 l 1
 977 -2 892 -30 771 -30 c 0
 411 -30 277 160 277 440 c 2
 277 720 l 1
 25 720 l 1
 25 1028 l 1
 97 1028 l 1
 217 1028 301 1106 301 1226 c 1
 301 1320 l 4
EndSplineSet
Substitution2: "sous-table 'smcp' Bas-de-casse vers petites capitales dans Latin lookup 0" uni01AD.sc
Colour: ff00
EndChar

StartChar: uni01B1
Encoding: 433 433 414
Width: 1620
Flags: HMW
LayerCount: 4
Fore
SplineSet
1570 1480 m 1
 1570 1144 l 1
 969 1144 l 1
 969 1480 l 1
 1570 1480 l 1
50 1480 m 1
 651 1480 l 1
 651 1144 l 1
 50 1144 l 1
 50 1480 l 1
1570 740 m 0
 1570 290 1270 -30 810 -30 c 0
 810 306 l 0
 1060 306 1190 490 1190 740 c 0
 1190 930 1115 1082 969 1144 c 1
 1433 1144 l 1
 1516 1029 1570 892 1570 740 c 0
50 740 m 0
 50 892 104 1029 187 1144 c 1
 651 1144 l 1
 505 1082 430 930 430 740 c 0
 430 490 560 306 810 306 c 0
 810 -30 l 0
 350 -30 50 290 50 740 c 0
EndSplineSet
Colour: ffff
EndChar

StartChar: uni01B2
Encoding: 434 434 415
Width: 1482
VWidth: 1000
Flags: HMW
LayerCount: 4
Fore
SplineSet
1032 1050 m 9
 1032 600 l 1
 1032 390 891 306 741 306 c 0
 591 306 450 390 450 600 c 9
 450 1480 l 25
 70 1480 l 25
 70 600 l 17
 70 240 309 -30 741 -30 c 0
 1173 -30 1412 240 1412 600 c 1
 1412 1050 l 17
 1412 1330 1258 1510 898 1510 c 0
 875 1510 863 1509 842 1507 c 1
 842 1183 l 1
 863 1188 874 1190 894 1190 c 0
 984 1190 1032 1150 1032 1050 c 9
EndSplineSet
Colour: ffff
EndChar

StartChar: uni01B3
Encoding: 435 435 416
Width: 1588
VWidth: 1000
Flags: HMW
LayerCount: 4
Fore
SplineSet
1425 1133 m 5
 1418 1143 1408 1152 1397 1158 c 4
 1382 1167 1367 1170 1352 1170 c 4
 1324 1170 1300 1152 1282 1127 c 4
 1003 1317 l 4
 1083 1434 1165 1510 1291 1510 c 4
 1379 1510 1472 1484 1557 1435 c 4
 1567 1429 1578 1423 1588 1416 c 5
 1425 1133 l 5
596 0 m 25
 596 834 l 25
 976 834 l 25
 976 0 l 25
 596 0 l 25
789 454 m 1
 680 578 l 1
 35 1480 l 1
 463 1480 l 1
 786 988 l 1
 1003 1317 l 5
 1282 1127 l 5
 789 454 l 1
EndSplineSet
Substitution2: "sous-table 'c2sc' Capitales vers petites capitales dans Latin lookup 0" uni01B4.sc
Colour: ffff
EndChar

StartChar: uni01B4
Encoding: 436 436 417
Width: 1297
VWidth: 1000
Flags: HMW
LayerCount: 4
Fore
SplineSet
1208 754 m 5
 1199 762 1187 767 1175 771 c 4
 1166 774 1157 775 1148 775 c 4
 1112 775 1084 751 1070 713 c 4
 747 806 l 4
 794 997 943 1100 1119 1100 c 4
 1165 1100 1213 1092 1263 1078 c 4
 1275 1075 1286 1071 1297 1067 c 5
 1208 754 l 5
772 -158 m 1
 690 -384 581 -470 302 -470 c 0
 181 -470 91 -439 35 -415 c 1
 131 -95 l 1
 163 -127 242 -150 302 -150 c 0
 362 -150 416 -107 431 -44 c 1
 443 0 l 1
 77 1040 l 1
 461 1040 l 1
 637 404 l 1
 747 806 l 5
 1070 713 l 5
 826 0 l 1
 772 -158 l 1
EndSplineSet
Substitution2: "sous-table 'smcp' Bas-de-casse vers petites capitales dans Latin lookup 0" uni01B4.sc
Colour: ff00
EndChar

StartChar: uni01B5
Encoding: 437 437 418
Width: 1304
VWidth: 1000
Flags: HMW
LayerCount: 4
Fore
SplineSet
1089 620 m 5
 215 620 l 1
 215 666 215 814 215 860 c 1
 1089 860 l 5
 1089 620 l 5
218 0 m 1
 35 302 l 1
 1086 1480 l 1
 1269 1176 l 1
 218 0 l 1
458 336 m 1
 1269 336 l 1
 1269 0 l 1
 825 0 479 0 35 0 c 1
 35 302 l 1
 458 336 l 1
856 1144 m 1
 59 1144 l 1
 59 1480 l 1
 503 1480 825 1480 1269 1480 c 1
 1269 1176 l 1
 856 1144 l 1
EndSplineSet
Substitution2: "sous-table 'c2sc' Capitales vers petites capitales dans Latin lookup 0" uni01B6.sc
Colour: ffff
EndChar

StartChar: uni01B6
Encoding: 438 438 419
Width: 1032
Flags: HMW
LayerCount: 4
Fore
SplineSet
70 1040 m 1
 70 720 l 1
 548 720 l 1
 962 752 l 1
 962 1040 l 1
 70 1040 l 1
958 320 m 1
 484 320 l 1
 70 288 l 1
 70 0 l 1
 958 0 l 1
 958 320 l 1
544 320 m 5
 962 752 l 1
 488 720 l 1
 70 288 l 1
 544 320 l 5
100 400 m 1
 942 400 l 1
 942 640 l 1
 100 640 l 1
 100 594 100 446 100 400 c 1
EndSplineSet
Substitution2: "sous-table 'smcp' Bas-de-casse vers petites capitales dans Latin lookup 0" uni01B6.sc
Colour: ff00
EndChar

StartChar: uni01B7
Encoding: 439 439 420
Width: 1286
VWidth: 1000
Flags: HMW
LayerCount: 4
Fore
SplineSet
711 634 m 1
 528 912 l 1
 1033 1480 l 1
 1176 1176 l 1
 711 634 l 1
1236 453 m 4
 1236 120 1002 -30 642 -30 c 4
 357 -30 93 91 50 361 c 5
 423 461 l 4
 423 361 492 306 642 306 c 4
 792 306 856 361 856 461 c 4
 856 561 792 616 642 616 c 0
 622 616 528 616 528 616 c 17
 528 912 l 9
 528 912 622 936 642 936 c 0
 981 936 1236 720 1236 453 c 4
122 1480 m 1
 1176 1480 l 1
 1176 1176 l 1
 763 1144 l 1
 122 1144 l 1
 122 1480 l 1
EndSplineSet
Colour: ffff
EndChar

StartChar: uni01B8
Encoding: 440 440 421
Width: 1286
VWidth: 1000
Flags: HMW
LayerCount: 4
Fore
SplineSet
575 634 m 1
 758 912 l 1
 253 1480 l 1
 110 1176 l 1
 575 634 l 1
50 453 m 0
 50 120 284 -30 644 -30 c 0
 929 -30 1193 91 1236 361 c 1
 863 461 l 0
 863 361 794 306 644 306 c 0
 494 306 430 361 430 461 c 0
 430 561 494 616 644 616 c 0
 664 616 758 616 758 616 c 17
 758 912 l 9
 758 912 664 936 644 936 c 0
 305 936 50 720 50 453 c 0
1164 1480 m 5
 110 1480 l 1
 110 1176 l 1
 523 1144 l 1
 1164 1144 l 5
 1164 1480 l 5
EndSplineSet
Colour: ffff
EndChar

StartChar: uni01B9
Encoding: 441 441 422
Width: 1286
VWidth: 1000
Flags: HMW
LayerCount: 4
Fore
SplineSet
575 194 m 5
 758 472 l 5
 253 1040 l 5
 110 736 l 5
 575 194 l 5
50 13 m 4
 50 -320 284 -470 644 -470 c 4
 929 -470 1193 -349 1236 -79 c 5
 863 21 l 4
 863 -79 794 -134 644 -134 c 4
 494 -134 430 -79 430 21 c 4
 430 121 494 176 644 176 c 4
 664 176 758 176 758 176 c 21
 758 472 l 13
 758 472 664 496 644 496 c 4
 305 496 50 280 50 13 c 4
1164 1040 m 5
 110 1040 l 5
 110 736 l 5
 523 704 l 5
 1164 704 l 5
 1164 1040 l 5
EndSplineSet
Colour: ffff
EndChar

StartChar: uni01BA
Encoding: 442 442 423
Width: 1318
VWidth: 1000
Flags: HMW
LayerCount: 4
Fore
SplineSet
654 -120 m 0
 468 -120 430 -122 430 -140 c 4
 430 -158 468 -160 654 -160 c 0
 793 -160 1063 -144 1190 -89 c 1
 1268 -403 l 1
 1146 -454 870 -470 654 -470 c 0
 208 -470 50 -330 50 -150 c 0
 50 30 138 226 654 226 c 0
 840 226 908 228 908 246 c 0
 908 264 840 266 654 266 c 0
 540 266 l 1
 540 562 l 1
 654 586 l 0
 1110 586 1268 436 1268 256 c 0
 1268 76 1170 -120 654 -120 c 0
723 284 m 1
 540 562 l 1
 1065 1040 l 1
 1208 752 l 1
 723 284 l 1
154 1040 m 1
 1208 1040 l 1
 1208 752 l 1
 795 720 l 1
 154 720 l 1
 154 1040 l 1
EndSplineSet
Colour: ff00
EndChar

StartChar: uni01BB
Encoding: 443 443 424
Width: 1370
VWidth: 1000
Flags: HMW
LayerCount: 4
Fore
SplineSet
1214 530 m 1
 64 530 l 5
 64 786 l 5
 1214 786 l 1
 1214 530 l 1
468 906 m 1
 81 990 l 0
 81 1310 307 1510 643 1510 c 0
 979 1510 1205 1310 1205 1030 c 0
 825 1030 l 0
 825 1120 738 1174 643 1174 c 0
 528 1174 461 1090 461 990 c 0
 461 932 468 906 468 906 c 1
64 0 m 1
 64 160 84 465 643 788 c 0
 823 892 825 950 825 1030 c 1
 1205 1030 l 1
 1205 739 1020 628 743 468 c 0
 483 318 444 90 444 0 c 1
 377 0 131 0 64 0 c 1
344 336 m 1
 1214 336 l 1
 1214 0 l 1
 444 0 l 1
 344 336 l 1
EndSplineSet
Colour: ffff
EndChar

StartChar: uni01BC
Encoding: 444 444 425
Width: 1425
VWidth: 1000
Flags: HMW
LayerCount: 4
Fore
SplineSet
568 615 m 1
 374 678 l 1
 456 829 555 1012 778 1012 c 0
 1127 1012 1355 802 1355 491 c 0
 1355 180 1127 -30 777 -30 c 0
 482 -30 228 91 185 361 c 1
 558 461 l 0
 558 361 627 306 777 306 c 0
 898 306 975 371 975 491 c 0
 975 611 878 676 758 676 c 0
 704 676 611 668 568 615 c 1
341.336914062 1412 m 1
 694.995117188 1412 l 1
 587 678 l 1
 374 678 l 1
 243 720 l 1
 341.336914062 1412 l 1
35 1144 m 1
 35 1480 l 1
 1283 1480 l 1
 1283 1144 l 1
 35 1144 l 1
EndSplineSet
Substitution2: "sous-table 'c2sc' Capitales vers petites capitales dans Latin lookup 0" uni01BD.sc
Colour: ffff
EndChar

StartChar: uni01BD
Encoding: 445 445 426
Width: 1143
Flags: HMW
LayerCount: 4
Fore
SplineSet
580 290 m 0
 665 290 713 302 713 343 c 0
 713 384 664 404 580 404 c 0
 542 404 482 391 452 374 c 1
 264 428 l 1
 292 557 442 684 619 684 c 0
 896 684 1073 571 1073 343 c 0
 1073 115 903 -30 580 -30 c 0
 350 -30 144 65 110 299 c 1
 452 353 l 0
 452 311 475 290 580 290 c 0
217.470703125 918 m 5
 532.047851562 918 l 5
 452 374 l 1
 264 428 l 1
 134 466 l 1
 217.470703125 918 l 5
35 720 m 1
 35 1040 l 1
 1013 1040 l 1
 1013 720 l 1
 35 720 l 1
EndSplineSet
Substitution2: "sous-table 'smcp' Bas-de-casse vers petites capitales dans Latin lookup 0" uni01BD.sc
Colour: ff00
EndChar

StartChar: uni01BE
Encoding: 446 446 427
Width: 1263
VWidth: 1000
Flags: HMW
LayerCount: 4
Fore
SplineSet
637 720 m 5
 637 715 l 2
 637 695 667 675 726 663 c 0
 1019 601 1213 566 1213 326 c 0
 1213 86 1002 -30 726 -30 c 0
 487 -30 295 85 247 265 c 1
 599 356 l 0
 599 326 636 290 726 290 c 0
 816 290 853 296 853 326 c 0
 853 356 785 371 726 383 c 0
 446 440 277 515 277 715 c 2
 277 720 l 1
 25 720 l 1
 25 1028 l 1
 97 1028 l 1
 217 1028 301 1106 301 1226 c 1
 301 1320 l 1
 637 1320 l 1
 637 1040 l 1
 942 1040 l 1
 942 720 l 1
 637 720 l 5
EndSplineSet
Colour: ff00
EndChar

StartChar: uni01BF
Encoding: 447 447 428
Width: 1252
VWidth: 1000
Flags: HMW
LayerCount: 4
Fore
SplineSet
842 532 m 0
 842 642 766 750 636 750 c 0
 506 750 430 642 430 532 c 2
 430 -440 l 1
 70 -440 l 1
 70 1040 l 1
 418 1040 l 1
 418 920 l 1
 453 981 582 1070 732 1070 c 0
 996 1070 1202 852 1202 532 c 0
 1202 139 900 -240 160 -240 c 1
 160 80 l 1
 570 80 842 212 842 532 c 0
EndSplineSet
Substitution2: "sous-table 'smcp' Bas-de-casse vers petites capitales dans Latin lookup 0" uni01BF.sc
Colour: ff00
EndChar

StartChar: uni01C0
Encoding: 448 448 429
Width: 500
Flags: HMW
LayerCount: 4
Fore
SplineSet
430 1480 m 29
 430 0 l 29
 70 0 l 1
 70 1480 l 1
 430 1480 l 29
EndSplineSet
Colour: ff00
EndChar

StartChar: uni01C1
Encoding: 449 449 430
Width: 1040
Flags: HMW
LayerCount: 4
Fore
SplineSet
970 1480 m 29
 970 0 l 29
 610 0 l 1
 610 1480 l 1
 970 1480 l 29
430 1480 m 25
 430 0 l 25
 70 0 l 1
 70 1480 l 1
 430 1480 l 25
EndSplineSet
Colour: ff00
EndChar

StartChar: uni01C2
Encoding: 450 450 431
Width: 1068
Flags: HMW
LayerCount: 4
Fore
SplineSet
70 800 m 1
 70 1120 l 1
 998 1120 l 17
 998 800 l 1
 70 800 l 1
70 360 m 1
 70 680 l 1
 998 680 l 17
 998 360 l 1
 70 360 l 1
714 1480 m 25
 714 0 l 25
 354 0 l 1
 354 1480 l 1
 714 1480 l 25
EndSplineSet
Colour: ff00
EndChar

StartChar: uni01C3
Encoding: 451 451 432
Width: 552
Flags: HMW
LayerCount: 4
Fore
SplineSet
76 160 m 4
 76 271 165 360 276 360 c 4
 387 360 476 271 476 160 c 4
 476 49 387 -40 276 -40 c 4
 165 -40 76 49 76 160 c 4
70 1480 m 1
 482 1480 l 1
 436 452 l 1
 116 452 l 1
 70 1480 l 1
EndSplineSet
Colour: ff00
EndChar

StartChar: uni01DD
Encoding: 477 477 450
Width: 1200
VWidth: 1000
Flags: HMW
LayerCount: 4
Fore
SplineSet
1024 380 m 1
 118 380 l 1
 420 640 l 5
 1024 640 l 1
 1024 380 l 1
411 672 m 1
 104 798 l 1
 196 975 378 1070 600 1070 c 0
 921 1070 1150 840 1150 520 c 0
 1150 200 920 -30 600 -30 c 0
 280 -30 50 200 50 520 c 0
 50 561 55 602 62 640 c 1
 420 640 l 1
 406 605 380 564 380 520 c 0
 380 383 463 290 600 290 c 0
 737 290 830 383 830 520 c 0
 830 650 738 750 600 750 c 0
 486 750 429 711 411 672 c 1
EndSplineSet
Substitution2: "sous-table 'smcp' Bas-de-casse vers petites capitales dans Latin lookup 0" uni01DD.sc
Colour: ff00
EndChar

StartChar: uni01E4
Encoding: 484 484 456
Width: 1706
Flags: HMW
LayerCount: 4
Fore
SplineSet
1706 220 m 5
 846 220 l 5
 846 266 846 414 846 460 c 5
 1706 460 l 5
 1706 220 l 5
1156 930 m 1
 1105 1078 991 1174 810 1174 c 0
 560 1174 430 990 430 740 c 0
 430 490 560 306 810 306 c 0
 991 306 1105 402 1156 550 c 1
 1321 360 l 1
 1201 120 1125 -30 810 -30 c 0
 350 -30 50 290 50 740 c 0
 50 1190 350 1510 810 1510 c 0
 1125 1510 1365 1360 1485 1120 c 1
 1156 930 l 1
748 824 m 25
 1493 824 l 25
 1493 0 l 25
 1133 0 l 17
 1133 227 l 1
 1113 253 l 1
 1113 488 l 9
 748 488 l 25
 748 824 l 25
EndSplineSet
Substitution2: "'ss03' Simplified G and I lookups0-1" uni01E4.ss03
Substitution2: "sous-table 'c2sc' Capitales vers petites capitales dans Latin lookup 0" uni01E5.sc
Colour: ffff
EndChar

StartChar: uni01E5
Encoding: 485 485 457
Width: 1506
VWidth: 997
Flags: HMW
LayerCount: 4
Fore
SplineSet
743 980 m 1
 778 1041 867 1120 1017 1120 c 0
 1088 1120 1151 1108 1207 1084 c 1
 1100 741 l 1
 1062 780 1004 800 921 800 c 0
 791 800 755 742 755 632 c 9
 743 980 l 1
589 520 m 0
 589 280 l 0
 494 280 439 275 439 260 c 0
 439 245 459 240 589 240 c 0
 589 -80 l 0
 341 -80 134 30 134 240 c 0
 134 440 421 520 589 520 c 0
1207 -100 m 0
 1207 -320 1022 -470 589 -470 c 0
 156 -470 25 -315 25 -114 c 0
 25 107 307 160 589 160 c 0
 589 -20 l 0
 439 -20 385 -58 385 -95 c 0
 385 -132 444 -150 589 -150 c 0
 734 -150 847 -150 847 -110 c 0
 847 -80 735 -80 589 -80 c 0
 589 240 l 0
 1014 240 1207 100 1207 -100 c 0
493 675 m 0
 493 627 529 600 589 600 c 0
 649 600 685 627 685 675 c 0
 685 723 649 750 589 750 c 0
 529 750 493 723 493 675 c 0
133 675 m 0
 133 894 326 1070 589 1070 c 0
 852 1070 1045 894 1045 675 c 0
 1045 456 852 280 589 280 c 0
 326 280 133 456 133 675 c 0
1506 -240 m 1
 646 -240 l 1
 646 -194 646 -46 646 0 c 1
 1506 0 l 1
 1506 -240 l 1
EndSplineSet
Substitution2: "sous-table 'smcp' Bas-de-casse vers petites capitales dans Latin lookup 0" uni01E5.sc
Substitution2: "'ss04' Simplified a and g lookups0-1" uni01E5.ss04
Colour: ff00
EndChar

StartChar: uni0292
Encoding: 658 658 471
Width: 1286
VWidth: 1000
Flags: HMW
LayerCount: 4
Fore
SplineSet
711 194 m 1
 528 472 l 1
 1033 1040 l 1
 1176 736 l 1
 711 194 l 1
1236 13 m 4
 1236 -320 1002 -470 642 -470 c 4
 357 -470 93 -349 50 -79 c 5
 423 21 l 4
 423 -79 492 -134 642 -134 c 4
 792 -134 856 -79 856 21 c 4
 856 121 792 176 642 176 c 0
 622 176 528 176 528 176 c 17
 528 472 l 9
 528 472 622 496 642 496 c 0
 981 496 1236 280 1236 13 c 4
122 1040 m 1
 1176 1040 l 1
 1176 736 l 1
 763 704 l 1
 122 704 l 1
 122 1040 l 1
EndSplineSet
Colour: ffff
EndChar

StartChar: uni01F7
Encoding: 503 503 496
Width: 1384
VWidth: 1000
Flags: HMW
LayerCount: 4
Fore
SplineSet
954 880 m 0
 954 1090 841 1174 691 1174 c 0
 541 1174 430 1084 430 874 c 2
 430 -440 l 1
 70 -440 l 1
 70 1480 l 1
 417 1480 l 1
 417 1360 l 1
 483 1468 596 1510 736 1510 c 0
 1106 1510 1334 1290 1334 880 c 0
 1334 460 1010 2 160 2 c 5
 160 338 l 5
 720 338 954 590 954 880 c 0
EndSplineSet
Substitution2: "sous-table 'c2sc' Capitales vers petites capitales dans Latin lookup 0" uni01BF.sc
Colour: ffff
EndChar

StartChar: uni01F6
Encoding: 502 502 497
Width: 2194
Flags: HMW
LayerCount: 4
Fore
SplineSet
2124 1040 m 29
 2124 467 l 5
 2124 147 1898 -31 1578 -31 c 4
 1258 -31 1032 147 1032 467 c 5
 1032 522 l 25
 1412 522 l 1
 1412 467 l 6
 1412 357 1448 305 1578 305 c 4
 1708 305 1744 357 1744 467 c 6
 1744 1040 l 5
 2124 1040 l 29
70 1480 m 25
 450 1480 l 25
 450 908 l 25
 1032 908 l 25
 1032 1480 l 25
 1412 1480 l 1
 1412 522 l 25
 1032 522 l 25
 1032 572 l 1
 450 572 l 25
 450 0 l 25
 70 0 l 25
 70 1480 l 25
EndSplineSet
Substitution2: "sous-table 'c2sc' Capitales vers petites capitales dans Latin lookup 0" uni0195.sc
Colour: ffff
EndChar

StartChar: uni030F
Encoding: 783 783 498
Width: 0
VWidth: 1000
Flags: HMW
AnchorPoint: "top_center" 642 1040 mark 0
LayerCount: 4
Fore
SplineSet
223 1224 m 1
 579 1224 l 1
 401 1480 l 1
 -3 1480 l 1
 223 1224 l 1
805 1224 m 5
 1161 1224 l 1
 983 1480 l 1
 579 1480 l 1
 805 1224 l 5
EndSplineSet
Colour: ffff00
EndChar

StartChar: uni0311
Encoding: 785 785 511
Width: 0
VWidth: 1000
Flags: HMW
AnchorPoint: "top_center" 642 1040 mark 0
LayerCount: 4
Fore
SplineSet
642 1510 m 4
 432 1510 306 1364 306 1224 c 5
 564 1224 l 5
 564 1254 592 1300 642 1300 c 4
 692 1300 718 1254 718 1224 c 5
 978 1224 l 5
 978 1364 852 1510 642 1510 c 4
EndSplineSet
Colour: ffff00
EndChar

StartChar: uni0326
Encoding: 806 806 528
Width: 0
VWidth: 1000
Flags: HMW
AnchorPoint: "bottom_center" 642 0 mark 0
LayerCount: 4
Fore
SplineSet
522 -232 m 0
 522 -165 575 -112 642 -112 c 0
 709 -112 762 -165 762 -232 c 0
 762 -299 709 -352 642 -352 c 0
 575 -352 522 -299 522 -232 c 0
531 -429 m 1
 608 -417 667 -368 667 -315 c 0
 667 -289 643 -232 643 -232 c 1
 642 -112 l 1
 710 -112 801 -155 801 -315 c 0
 801 -442 662 -540 567 -557 c 1
 531 -429 l 1
EndSplineSet
Colour: ffbf00
EndChar

StartChar: uni021C
Encoding: 540 540 529
Width: 1318
VWidth: 1000
Flags: HMW
LayerCount: 4
Fore
SplineSet
774 434 m 1
 842 404 888 340 888 268 c 0
 888 18 654 -134 224 -134 c 1
 224 -470 l 1
 884 -470 1268 -172 1268 268 c 0
 1268 430 1185 579 1050 676 c 1
 774 434 l 1
632 1174 m 4
 747 1174 834 1090 834 990 c 0
 834 740 654 588 224 588 c 1
 224 252 l 1
 884 252 1214 550 1214 990 c 0
 1214 1270 968 1510 632 1510 c 0
 296 1510 50 1310 50 990 c 0
 437 906 l 1
 437 906 430 932 430 990 c 0
 430 1090 517 1174 632 1174 c 4
EndSplineSet
Substitution2: "sous-table 'c2sc' Capitales vers petites capitales dans Latin lookup 0" uni021D.sc
Colour: ffff
EndChar

StartChar: uni021D
Encoding: 541 541 530
Width: 1114
Flags: HMW
LayerCount: 4
Fore
SplineSet
611 308 m 1
 667 289 704 249 704 203 c 0
 704 45 535 -52 223 -52 c 1
 223 -372 l 1
 755 -372 1064 -145 1064 192 c 0
 1064 316 986 430 858 504 c 1
 611 308 l 1
531 782 m 0
 612 782 653 735 653 679 c 0
 653 539 526 455 223 455 c 1
 223 135 l 1
 750 135 1013 363 1013 702 c 0
 1013 918 795 1103 531 1103 c 0
 267 1103 50 947 50 698 c 0
 413 632 l 1
 413 632 408 647 408 679 c 0
 408 735 450 782 531 782 c 0
EndSplineSet
Substitution2: "sous-table 'smcp' Bas-de-casse vers petites capitales dans Latin lookup 0" uni021D.sc
Colour: ff00
EndChar

StartChar: uni0220
Encoding: 544 544 531
Width: 1404
VWidth: 1000
Flags: HMW
LayerCount: 4
Fore
SplineSet
1334 880 m 21
 1334 1290 1106 1510 736 1510 c 0
 596 1510 483 1468 417 1360 c 1
 417 1480 l 1
 70 1480 l 1
 70 0 l 1
 430 0 l 1
 430 874 l 2
 430 1084 541 1174 691 1174 c 0
 841 1174 947 1090 954 880 c 2
 954 -440 l 1
 1334 -440 l 1
 1334 880 l 21
EndSplineSet
Substitution2: "sous-table 'c2sc' Capitales vers petites capitales dans Latin lookup 0" uni019E.sc
Colour: ffff
EndChar

StartChar: uni0221
Encoding: 545 545 532
Width: 1654
VWidth: 1000
Flags: HMW
LayerCount: 4
Fore
SplineSet
1294 -339 m 4
 1099 -339 934 -213 934 0 c 4
 934 213 1099 339 1294 339 c 4
 1489 339 1654 213 1654 0 c 4
 1654 -213 1489 -339 1294 -339 c 4
1294 -99 m 4
 1348 -99 1384 -54 1384 0 c 4
 1384 54 1348 99 1294 99 c 4
 1240 99 1204 54 1204 0 c 4
 1204 -54 1240 -99 1294 -99 c 4
598 -338 m 5
 598 -338 769 339 1294 339 c 5
 1294 99 l 5
 964 99 828 -470 828 -470 c 5
 598 -338 l 5
820 510 m 0
 820 640 757 750 620 750 c 0
 483 750 410 650 410 520 c 0
 410 390 483 290 620 290 c 0
 751 290 820 380 820 510 c 0
1180 168 m 1
 1180 66 1204 0 1204 0 c 5
 856 0 l 1
 856 0 832 60 832 120 c 1
 832 80 705 -30 555 -30 c 0
 235 -30 50 200 50 520 c 0
 50 840 235 1070 555 1070 c 0
 705 1070 810 959 820 920 c 1
 820 1480 l 1
 1180 1480 l 1
 1180 168 l 1
EndSplineSet
Layer: 2
SplineSet
788 -116 m 4
 788 26 898 110 1028 110 c 4
 1158 110 1268 26 1268 -116 c 4
 1268 -258 1158 -342 1028 -342 c 4
 898 -342 788 -258 788 -116 c 4
968 -116 m 4
 968 -152 992 -182 1028 -182 c 4
 1064 -182 1088 -152 1088 -116 c 4
 1088 -80 1064 -50 1028 -50 c 4
 992 -50 968 -80 968 -116 c 4
564 -341.005859375 m 5
 564 -341.005859375 679 109.994140625 1029 109.994140625 c 5
 1029 -50.005859375 l 5
 809 -50.005859375 717 -429.005859375 717 -429.005859375 c 5
 564 -341.005859375 l 5
EndSplineSet
Substitution2: "sous-table 'smcp' Bas-de-casse vers petites capitales dans Latin lookup 0" uni0221.sc
Colour: ff00
EndChar

StartChar: uni0223
Encoding: 547 547 533
Width: 1324
VWidth: 1000
Flags: HMW
LayerCount: 4
Fore
SplineSet
753 1181 m 1
 834 1510 l 1
 1069 1462 1223 1294 1223 1073 c 0
 1223 844 1057 781 1057 781 c 1
 1057 781 1274 694 1274 453 c 0
 1274 120 1022 -30 662 -30 c 0
 302 -30 50 120 50 453 c 0
 50 694 267 781 267 781 c 1
 267 781 101 844 101 1073 c 0
 101 1294 255 1462 490 1510 c 1
 571 1181 l 1
 509 1164 481 1112 481 1055 c 0
 481 975 537 936 662 936 c 0
 787 936 843 975 843 1055 c 0
 843 1112 815 1164 753 1181 c 1
662 616 m 4
 512 616 430 561 430 461 c 0
 430 361 512 306 662 306 c 0
 812 306 894 361 894 461 c 0
 894 561 812 616 662 616 c 4
EndSplineSet
Substitution2: "sous-table 'smcp' Bas-de-casse vers petites capitales dans Latin lookup 0" uni0223.sc
Colour: ffff
EndChar

StartChar: uni0222
Encoding: 546 546 534
Width: 1434
VWidth: 1000
Flags: HMW
LayerCount: 4
Fore
SplineSet
101 1003 m 4
 101 854 267 781 267 781 c 1
 267 781 50 694 50 453 c 0
 50 120 336 -30 716 -30 c 0
 1096 -30 1384 120 1384 453 c 0
 1384 695 1110 781 1110 781 c 1
 1110 781 1330 834 1330 1063 c 0
 1330 1330 1077 1509 770 1509 c 1
 770 1173 l 1
 881 1164 950 1124 950 1055 c 0
 950 975 858 936 716 936 c 0
 574 936 481 945 481 975 c 0
 481 1005 582 1012 662 1012 c 1
 662 1349 l 1
 355 1349 101 1271 101 1003 c 4
716 616 m 0
 886 616 1004 561 1004 461 c 0
 1004 361 886 306 716 306 c 0
 546 306 430 361 430 461 c 0
 430 561 546 616 716 616 c 0
EndSplineSet
Substitution2: "sous-table 'c2sc' Capitales vers petites capitales dans Latin lookup 0" uni0223.sc
Colour: ffff
EndChar

StartChar: uni0224
Encoding: 548 548 535
Width: 1374
VWidth: 1000
Flags: HMW
LayerCount: 4
Fore
SplineSet
803 -77 m 5
 814 -82 826 -84 839 -84 c 4
 889 -84 924 -50 924 0 c 12
 1304 0 l 4
 1304 -250 1089 -404 839 -404 c 4
 827 -404 815 -404 803 -403 c 5
 803 -77 l 5
253 0 m 1
 70 302 l 1
 1121 1480 l 1
 1304 1176 l 1
 253 0 l 1
493 336 m 1
 1304 336 l 1
 1304 0 l 5
 860 0 514 0 70 0 c 1
 70 302 l 1
 493 336 l 1
891 1144 m 1
 94 1144 l 1
 94 1480 l 1
 538 1480 860 1480 1304 1480 c 1
 1304 1176 l 1
 891 1144 l 1
EndSplineSet
Substitution2: "sous-table 'c2sc' Capitales vers petites capitales dans Latin lookup 0" uni0225.sc
Colour: ffff
EndChar

StartChar: uni0225
Encoding: 549 549 536
Width: 1032
Flags: HMW
LayerCount: 4
Fore
SplineSet
477 -77 m 5
 488 -82 500 -84 513 -84 c 4
 563 -84 598 -50 598 0 c 12
 958 0 l 4
 958 -250 763 -404 513 -404 c 4
 501 -404 489 -404 477 -403 c 5
 477 -77 l 5
70 1040 m 1
 70 720 l 1
 548 720 l 1
 962 752 l 1
 962 1040 l 1
 70 1040 l 1
958 320 m 1
 484 320 l 1
 70 288 l 1
 70 0 l 1
 958 0 l 5
 958 320 l 1
544 320 m 1
 962 752 l 1
 488 720 l 1
 70 288 l 1
 544 320 l 1
EndSplineSet
Substitution2: "sous-table 'smcp' Bas-de-casse vers petites capitales dans Latin lookup 0" uni0225.sc
Colour: ff00
EndChar

StartChar: uni0234
Encoding: 564 564 537
Width: 1056
Flags: HMW
LayerCount: 4
Fore
SplineSet
696 -339 m 0
 501 -339 336 -213 336 0 c 0
 336 213 501 339 696 339 c 0
 891 339 1056 213 1056 0 c 0
 1056 -213 891 -339 696 -339 c 0
696 -99 m 0
 750 -99 786 -54 786 0 c 0
 786 54 750 99 696 99 c 0
 642 99 606 54 606 0 c 0
 606 -54 642 -99 696 -99 c 0
0 -338 m 1
 0 -338 171 339 696 339 c 1
 696 99 l 1
 366 99 230 -470 230 -470 c 1
 0 -338 l 1
246 1480 m 1
 606 1480 l 1
 606 578 l 1
 606 0 l 1
 246 0 l 1
 246 578 l 1
 246 1480 l 1
EndSplineSet
Substitution2: "sous-table 'smcp' Bas-de-casse vers petites capitales dans Latin lookup 0" uni0234.sc
Colour: ff00
EndChar

StartChar: uni0235
Encoding: 565 565 538
Width: 1572
VWidth: 1000
Flags: HMW
LayerCount: 4
Fore
SplineSet
1212 -339 m 4
 1017 -339 852 -213 852 0 c 4
 852 213 1017 339 1212 339 c 4
 1407 339 1572 213 1572 0 c 4
 1572 -213 1407 -339 1212 -339 c 4
1212 -99 m 4
 1266 -99 1302 -54 1302 0 c 4
 1302 54 1266 99 1212 99 c 4
 1158 99 1122 54 1122 0 c 4
 1122 -54 1158 -99 1212 -99 c 4
516 -338 m 5
 516 -338 687 339 1212 339 c 5
 1212 99 l 5
 882 99 746 -470 746 -470 c 5
 516 -338 l 5
762 0 m 1
 762 572 l 2
 762 682 726 750 596 750 c 0
 466 750 430 682 430 572 c 2
 430 0 l 1
 70 0 l 1
 70 1040 l 1
 418 1040 l 1
 418 920 l 1
 453 981 542 1070 692 1070 c 0
 956 1070 1122 892 1122 572 c 1
 1122 0 l 1
 762 0 l 1
EndSplineSet
Substitution2: "sous-table 'smcp' Bas-de-casse vers petites capitales dans Latin lookup 0" uni0235.sc
Colour: ff00
EndChar

StartChar: uni0236
Encoding: 566 566 539
Width: 1087
VWidth: 1000
Flags: HMW
LayerCount: 4
Fore
SplineSet
727 -339 m 4
 532 -339 367 -213 367 0 c 4
 367 213 532 339 727 339 c 4
 922 339 1087 213 1087 0 c 4
 1087 -213 922 -339 727 -339 c 4
727 -99 m 4
 781 -99 817 -54 817 0 c 4
 817 54 781 99 727 99 c 4
 673 99 637 54 637 0 c 4
 637 -54 673 -99 727 -99 c 4
31 -338 m 5
 31 -338 202 339 727 339 c 5
 727 99 l 5
 397 99 261 -470 261 -470 c 5
 31 -338 l 5
277 0 m 9
 277 720 l 1
 25 720 l 1
 25 1028 l 1
 97 1028 l 1
 217 1028 301 1106 301 1226 c 1
 301 1320 l 1
 637 1320 l 1
 637 1040 l 1
 942 1040 l 1
 942 720 l 1
 637 720 l 1
 637 0 l 21
 277 0 l 9
EndSplineSet
Substitution2: "sous-table 'smcp' Bas-de-casse vers petites capitales dans Latin lookup 0" uni0236.sc
Colour: ff00
EndChar

StartChar: uni0238
Encoding: 568 568 540
Width: 2000
VWidth: 1000
Flags: HMW
LayerCount: 4
Fore
SplineSet
820 510 m 0
 820 640 757 750 620 750 c 0
 483 750 410 650 410 520 c 0
 410 390 483 290 620 290 c 0
 751 290 820 380 820 510 c 0
820 1480 m 1
 1180 1480 l 1
 1180 920 l 1
 1190 959 1295 1070 1445 1070 c 0
 1765 1070 1950 840 1950 520 c 0
 1950 200 1765 -30 1445 -30 c 0
 1295 -30 1168 80 1168 120 c 1
 1168 0 l 1
 832 0 l 1
 832 120 l 1
 832 80 705 -30 555 -30 c 0
 235 -30 50 200 50 520 c 0
 50 840 235 1070 555 1070 c 0
 705 1070 810 959 820 920 c 1
 820 1480 l 1
1180 510 m 0
 1180 380 1249 290 1380 290 c 0
 1517 290 1590 390 1590 520 c 0
 1590 650 1517 750 1380 750 c 0
 1243 750 1180 640 1180 510 c 0
EndSplineSet
Colour: ff00
EndChar

StartChar: uni0239
Encoding: 569 569 541
Width: 2000
VWidth: 1000
Flags: HMW
LayerCount: 4
Fore
SplineSet
820 530 m 4
 820 400 757 290 620 290 c 4
 483 290 410 390 410 520 c 4
 410 650 483 750 620 750 c 4
 751 750 820 660 820 530 c 4
820 -440 m 5
 1180 -440 l 5
 1180 120 l 5
 1190 81 1295 -30 1445 -30 c 4
 1765 -30 1950 200 1950 520 c 4
 1950 840 1765 1070 1445 1070 c 4
 1295 1070 1168 960 1168 920 c 5
 1168 1040 l 5
 832 1040 l 5
 832 920 l 5
 832 960 705 1070 555 1070 c 4
 235 1070 50 840 50 520 c 4
 50 200 235 -30 555 -30 c 4
 705 -30 810 81 820 120 c 5
 820 -440 l 5
1180 530 m 4
 1180 660 1249 750 1380 750 c 4
 1517 750 1590 650 1590 520 c 4
 1590 390 1517 290 1380 290 c 4
 1243 290 1180 400 1180 530 c 4
EndSplineSet
Colour: ff00
EndChar

StartChar: uni0338
Encoding: 824 824 542
Width: 0
Flags: HMW
LayerCount: 4
Fore
SplineSet
1046 1620 m 1
 1238 1476 l 1
 -61 -140 l 1
 -253 4 l 1
 1046 1620 l 1
EndSplineSet
Colour: ffff
EndChar

StartChar: uni0337
Encoding: 823 823 543
Width: 0
VWidth: 1000
Flags: HMW
LayerCount: 4
Fore
SplineSet
1016 1180 m 1
 1208 1036 l 1
 292 -140 l 1
 100 4 l 1
 1016 1180 l 1
EndSplineSet
Colour: ff00
EndChar

StartChar: uni023A
Encoding: 570 570 544
Width: 1530
VWidth: 1000
Flags: HMW
LayerCount: 4
Fore
SplineSet
1318 1620 m 5
 1510 1476 l 5
 211 -140 l 5
 19 4 l 5
 1318 1620 l 5
316 688 m 1
 1187 688 l 1
 1187 352 l 1
 316 352 l 1
 316 688 l 1
769 1080 m 1
 427 0 l 1
 35 0 l 1
 527 1480 l 1
 1003 1480 l 1
 1495 0 l 1
 1103 0 l 1
 769 1080 l 1
EndSplineSet
Colour: ffff
EndChar

StartChar: uni023B
Encoding: 571 571 545
Width: 1569
Flags: HMW
LayerCount: 4
Fore
SplineSet
1377 1620 m 5
 1569 1476 l 5
 270 -140 l 5
 78 4 l 5
 1377 1620 l 5
1160 930 m 1
 1109 1078 991 1174 810 1174 c 0
 560 1174 430 990 430 740 c 0
 430 490 560 306 810 306 c 0
 991 306 1109 402 1160 550 c 1
 1485 360 l 1
 1365 120 1125 -30 810 -30 c 0
 350 -30 50 290 50 740 c 0
 50 1190 350 1510 810 1510 c 0
 1125 1510 1365 1360 1485 1120 c 1
 1160 930 l 1
EndSplineSet
Substitution2: "sous-table 'c2sc' Capitales vers petites capitales dans Latin lookup 0" uni023C.sc
Colour: ffff
EndChar

StartChar: uni023C
Encoding: 572 572 546
Width: 1154
VWidth: 1000
Flags: HMW
LayerCount: 4
Fore
SplineSet
962 1180 m 5
 1154 1036 l 5
 238 -140 l 5
 46 4 l 5
 962 1180 l 5
410 520 m 0
 410 383 463 290 600 290 c 0
 704 290 759 344 780 430 c 1
 1087 252 l 1
 999 79 821 -30 600 -30 c 0
 280 -30 50 200 50 520 c 0
 50 840 280 1070 600 1070 c 0
 821 1070 999 961 1087 788 c 1
 780 610 l 1
 759 696 704 750 600 750 c 0
 463 750 410 657 410 520 c 0
EndSplineSet
Substitution2: "sous-table 'smcp' Bas-de-casse vers petites capitales dans Latin lookup 0" uni023C.sc
Colour: ff00
EndChar

StartChar: uni023D
Encoding: 573 573 547
Width: 1394
Flags: HMW
LayerCount: 4
Fore
SplineSet
860 620 m 5
 0 620 l 1
 0 666 0 814 0 860 c 1
 860 860 l 1
 860 620 l 5
590 1480 m 1
 590 336 l 1
 1324 336 l 1
 1324 0 l 1
 210 0 l 25
 210 1480 l 1
 590 1480 l 1
EndSplineSet
Substitution2: "sous-table 'c2sc' Capitales vers petites capitales dans Latin lookup 0" uni019A.sc
Colour: ffff
EndChar

StartChar: uni023E
Encoding: 574 574 548
Width: 1491
Flags: HMW
LayerCount: 4
Fore
SplineSet
1299 1620 m 5
 1491 1476 l 5
 192 -140 l 5
 0 4 l 5
 1299 1620 l 5
935 0 m 25
 555 0 l 25
 555 1144 l 25
 74 1144 l 25
 74 1480 l 25
 1416 1480 l 25
 1416 1144 l 25
 935 1144 l 25
 935 0 l 25
EndSplineSet
Colour: ffff
EndChar

StartChar: uni023F
Encoding: 575 575 549
Width: 1066
VWidth: 1000
Flags: HMW
LayerCount: 4
Fore
SplineSet
709 0 m 20
 709 -50 744 -84 794 -84 c 4
 807 -84 819 -82 830 -77 c 5
 830 -403 l 5
 818 -404 806 -404 794 -404 c 4
 544 -404 349 -250 349 0 c 4
 709 0 l 20
529 1070 m 0
 809 1070 949 931 995 775 c 1
 648 685 l 0
 648 705 629 750 529 750 c 0
 459 750 440 735 440 715 c 0
 440 695 470 675 529 663 c 0
 822 601 1016 566 1016 326 c 0
 1016 86 805 -30 529 -30 c 0
 290 -30 98 85 50 265 c 1
 402 356 l 0
 402 326 439 290 529 290 c 0
 619 290 656 296 656 326 c 0
 656 356 588 371 529 383 c 0
 249 442 80 515 80 715 c 0
 80 915 249 1070 529 1070 c 0
EndSplineSet
Colour: ff00
EndChar

StartChar: uni0240
Encoding: 576 576 550
Width: 1212
Flags: HMW
LayerCount: 4
Fore
SplineSet
987 130 m 1
 1212 -108 l 1
 1133 -208 1020 -276 888 -276 c 0
 817 -276 740 -257 661 -211 c 0
 531 -136 522 29 461 64 c 0
 446 73 430 76 415 76 c 0
 359 76 309 24 295 0 c 1
 70 238 l 1
 149 338 262 406 394 406 c 0
 465 406 542 387 621 341 c 0
 751 266 760 101 821 66 c 0
 834 58 847 56 861 56 c 0
 916 56 973 106 987 130 c 1
70 1040 m 1
 962 1040 l 1
 962 752 l 1
 548 720 l 1
 70 720 l 1
 70 1040 l 1
544 270 m 1
 70 238 l 1
 488 720 l 1
 962 752 l 1
 544 270 l 1
EndSplineSet
Colour: ff00
EndChar

StartChar: uni0241
Encoding: 577 577 551
Width: 1287
VWidth: 1000
Flags: HMW
LayerCount: 4
Fore
SplineSet
450 0 m 1
 830 0 l 1
 830 746 l 1
 450 746 l 1
 450 0 l 1
640 410 m 0
 977 410 1237 648 1237 960 c 4
 1237 1272 1000 1510 640 1510 c 0
 318 1510 95 1320 50 1056 c 5
 403 960 l 4
 403 1110 519 1174 640 1174 c 0
 761 1174 877 1110 877 960 c 4
 877 810 756 746 640 746 c 0
 640 410 l 0
EndSplineSet
Substitution2: "sous-table 'c2sc' Capitales vers petites capitales dans Latin lookup 0" uni0242.sc
Colour: ffff
EndChar

StartChar: uni0242
Encoding: 578 578 552
Width: 1034
Flags: HMW
LayerCount: 4
Fore
SplineSet
331 0 m 1
 691 0 l 5
 691 584 l 5
 331 584 l 1
 331 0 l 1
511 264 m 0
 779 264 984 443 984 674 c 0
 984 905 795 1084 511 1084 c 0
 268 1084 95 952 50 771 c 1
 398 674 l 0
 398 734 451 764 511 764 c 0
 571 764 624 734 624 674 c 0
 624 614 571 584 511 584 c 0
 511 264 l 0
EndSplineSet
Substitution2: "sous-table 'smcp' Bas-de-casse vers petites capitales dans Latin lookup 0" uni0242.sc
Colour: ff00
EndChar

StartChar: uni0243
Encoding: 579 579 553
Width: 1512
Flags: HMW
LayerCount: 4
Fore
SplineSet
860 376 m 5
 0 376 l 1
 0 422 0 570 0 616 c 1
 860 616 l 1
 860 376 l 5
891 1480 m 1
 1215 1480 1385 1280 1385 1060 c 0
 1385 840 1155 656 891 656 c 1
 891 976 l 17
 981 976 1005 1012 1005 1062 c 0
 1005 1112 981 1144 891 1144 c 9
 590 1144 l 1
 590 1480 l 25
 891 1480 l 1
590 336 m 25
 891 336 l 17
 1011 336 1082 416 1082 496 c 0
 1082 576 1011 656 891 656 c 9
 590 656 l 25
 590 336 l 25
210 1480 m 1
 590 1480 l 25
 590 976 l 1
 891 976 l 1
 1257 976 1462 751 1462 496 c 0
 1462 241 1257 0 891 0 c 1
 210 0 l 1
 210 1480 l 1
EndSplineSet
Substitution2: "sous-table 'c2sc' Capitales vers petites capitales dans Latin lookup 0" uni0180.sc
Colour: ffff
EndChar

StartChar: uni0244
Encoding: 580 580 554
Width: 1762
Flags: HMW
LayerCount: 4
Fore
SplineSet
1762 845 m 29
 1762 605 l 29
 0 605 l 25
 0 845 l 25
 1762 845 l 29
590 1480 m 25
 590 600 l 17
 590 390 731 306 881 306 c 0
 1031 306 1172 390 1172 600 c 9
 1172 1480 l 25
 1552 1480 l 25
 1552 610 l 17
 1552 250 1313 -30 881 -30 c 0
 449 -30 210 240 210 600 c 9
 210 1480 l 25
 590 1480 l 25
EndSplineSet
Colour: ffff
EndChar

StartChar: uni0245
Encoding: 581 581 555
Width: 1530
VWidth: 1000
Flags: HMW
LayerCount: 4
Fore
SplineSet
773 1080 m 1
 1103 0 l 1
 1495 0 l 1
 1003 1480 l 1
 527 1480 l 1
 35 0 l 1
 427 0 l 1
 773 1080 l 1
EndSplineSet
Colour: ffff
EndChar

StartChar: uni0246
Encoding: 582 582 556
Width: 1254
Flags: HMW
LayerCount: 4
Fore
SplineSet
876 1660 m 5
 1135 1660 l 5
 378 -180 l 5
 119 -180 l 5
 876 1660 l 5
1070 908 m 17
 1070 572 l 9
 450 572 l 17
 450 336 l 1
 1184 336 l 1
 1184 0 l 1
 70 0 l 25
 70 1480 l 1
 1184 1480 l 17
 1184 1144 l 1
 450 1144 l 1
 450 908 l 9
 1070 908 l 17
EndSplineSet
Substitution2: "sous-table 'c2sc' Capitales vers petites capitales dans Latin lookup 0" uni0247.sc
Colour: ffff
EndChar

StartChar: uni0247
Encoding: 583 583 557
Width: 1200
VWidth: 1000
Flags: HMW
LayerCount: 4
Fore
SplineSet
913 1220 m 25
 533 -180 l 25
 287 -180 l 1
 667 1220 l 1
 913 1220 l 25
176 660 m 1
 1082 660 l 1
 780 400 l 5
 176 400 l 1
 176 660 l 1
789 368 m 1
 1096 242 l 1
 1004 65 822 -30 600 -30 c 0
 279 -30 50 200 50 520 c 0
 50 840 280 1070 600 1070 c 0
 920 1070 1150 840 1150 520 c 0
 1150 479 1145 438 1138 400 c 1
 780 400 l 1
 794 435 820 476 820 520 c 0
 820 657 737 750 600 750 c 0
 463 750 370 657 370 520 c 0
 370 390 462 290 600 290 c 0
 714 290 771 329 789 368 c 1
EndSplineSet
Substitution2: "sous-table 'smcp' Bas-de-casse vers petites capitales dans Latin lookup 0" uni0247.sc
Colour: ff00
EndChar

StartChar: uni0248
Encoding: 584 584 558
Width: 1425
VWidth: 1000
Flags: HMW
LayerCount: 4
Fore
SplineSet
437 569 m 5
 437 569 430 543 430 485 c 0
 430 385 514 306 629 306 c 0
 744 306 835 385 835 485 c 0
 835 1480 l 1
 1215 1480 l 1
 1215 485 l 2
 1215 165 965 -30 629 -30 c 0
 293 -30 50 165 50 485 c 0
 437 569 l 5
1425 620 m 1
 565 620 l 1
 565 666 565 814 565 860 c 1
 1425 860 l 1
 1425 620 l 1
EndSplineSet
Substitution2: "sous-table 'c2sc' Capitales vers petites capitales dans Latin lookup 0" uni0249.sc
Colour: ffff
EndChar

StartChar: uni0249
Encoding: 585 585 559
Width: 812
Flags: HMW
LayerCount: 4
Fore
SplineSet
8 400 m 5
 8 446 8 594 8 640 c 1
 812 640 l 1
 812 400 l 1
 8 400 l 5
210 1352 m 0
 210 1463 299 1552 410 1552 c 0
 521 1552 610 1463 610 1352 c 0
 610 1241 521 1152 410 1152 c 0
 299 1152 210 1241 210 1352 c 0
100 -134 m 1
 113 -143 143 -150 162 -150 c 0
 214 -150 230 -128 230 -78 c 2
 230 0 l 1
 230 138 l 1
 230 1040 l 1
 590 1040 l 1
 590 138 l 1
 590 0 l 1
 590 -78 l 2
 590 -378 346 -470 162 -470 c 0
 74 -470 26 -439 0 -426 c 1
 100 -134 l 1
EndSplineSet
LCarets2: 1 0
Substitution2: "sous-table 'smcp' Bas-de-casse vers petites capitales dans Latin lookup 0" uni0249.sc
Ligature2: "'liga' Soft Dotted i j" j uni0307
Colour: ff00
EndChar

StartChar: uni024A
Encoding: 586 586 560
Width: 1691
Flags: HMW
LayerCount: 4
Fore
SplineSet
1691 -143 m 1
 1691 -469 l 1
 1679 -470 1667 -470 1655 -470 c 0
 1405 -470 1190 -316 1190 -66 c 0
 1570 -66 l 0
 1570 -116 1605 -150 1655 -150 c 0
 1668 -150 1680 -148 1691 -143 c 1
1570 1480 m 1
 1570 -66 l 25
 1190 -66 l 1
 1190 285 l 1
 1230 420 l 1
 1230 1092 l 1
 1190 1173 l 1
 1190 1480 l 1
 1570 1480 l 1
430 740 m 0
 430 490 560 306 810 306 c 0
 1060 306 1190 490 1190 740 c 0
 1190 990 1060 1174 810 1174 c 0
 560 1174 430 990 430 740 c 0
50 740 m 0
 50 1190 350 1510 810 1510 c 0
 1270 1510 1530 1190 1530 740 c 4
 1530 290 1270 -30 810 -30 c 0
 350 -30 50 290 50 740 c 0
EndSplineSet
Substitution2: "sous-table 'c2sc' Capitales vers petites capitales dans Latin lookup 0" uni024B.sc
Colour: ffff
EndChar

StartChar: uni024B
Encoding: 587 587 561
Width: 1301
VWidth: 1000
Flags: HMW
LayerCount: 4
Fore
SplineSet
1301 -143 m 5
 1301 -469 l 5
 1289 -470 1277 -470 1265 -470 c 4
 1015 -470 820 -316 820 -66 c 4
 1180 -66 l 20
 1180 -116 1215 -150 1265 -150 c 4
 1278 -150 1290 -148 1301 -143 c 5
820 530 m 0
 820 660 751 750 620 750 c 0
 483 750 410 650 410 520 c 0
 410 390 483 290 620 290 c 0
 757 290 820 400 820 530 c 0
1180 872 m 1
 1180 -66 l 5
 820 -66 l 5
 820 120 l 1
 810 81 705 -30 555 -30 c 0
 235 -30 50 200 50 520 c 0
 50 840 235 1070 555 1070 c 0
 705 1070 832 960 832 920 c 1
 832 1040 l 1
 1180 1040 l 1
 1180 1040 1180 974 1180 872 c 1
EndSplineSet
Substitution2: "sous-table 'smcp' Bas-de-casse vers petites capitales dans Latin lookup 0" uni024B.sc
Colour: ff00
EndChar

StartChar: uni024C
Encoding: 588 588 562
Width: 1433
Flags: HMW
LayerCount: 4
Fore
SplineSet
414 488 m 1
 414 824 l 1
 0 824 l 1
 0 778 0 534 0 488 c 1
 414 488 l 1
535 643 m 1
 988 0 l 1
 1428 0 l 1
 952 660 l 1
 535 643 l 1
590 1144 m 25
 777 1144 l 17
 897 1144 968 1094 968 984 c 0
 968 874 897 824 777 824 c 9
 590 824 l 25
 590 1144 l 25
210 0 m 1
 590 0 l 25
 590 488 l 1
 777 488 l 1
 1163 488 1348 729 1348 984 c 0
 1348 1239 1163 1480 777 1480 c 1
 210 1480 l 1
 210 0 l 1
EndSplineSet
Substitution2: "sous-table 'c2sc' Capitales vers petites capitales dans Latin lookup 0" uni024D.sc
Colour: ffff
EndChar

StartChar: uni024D
Encoding: 589 589 563
Width: 1047
VWidth: 1000
Flags: HMW
LayerCount: 4
Fore
SplineSet
0 400 m 5
 0 446 0 594 0 640 c 5
 804 640 l 5
 804 400 l 5
 0 400 l 5
915 681 m 1
 877 720 819 740 736 740 c 0
 606 740 570 682 570 572 c 2
 570 0 l 1
 210 0 l 1
 210 1040 l 1
 558 1040 l 1
 558 920 l 1
 593 981 682 1060 832 1060 c 0
 903 1060 966 1048 1022 1024 c 1
 915 681 l 1
EndSplineSet
Substitution2: "sous-table 'smcp' Bas-de-casse vers petites capitales dans Latin lookup 0" uni024D.sc
Colour: ff00
EndChar

StartChar: uni024E
Encoding: 590 590 564
Width: 1618
VWidth: 1000
Flags: HMW
LayerCount: 4
Fore
SplineSet
1618 1004 m 1
 0 1004 l 1
 0 1244 l 5
 1618 1244 l 1
 1618 1004 l 1
619 0 m 25
 619 834 l 25
 999 834 l 25
 999 0 l 25
 619 0 l 25
812 426 m 1
 703 578 l 1
 58 1480 l 1
 486 1480 l 1
 809 988 l 1
 1132 1480 l 1
 1560 1480 l 1
 812 426 l 1
EndSplineSet
Substitution2: "sous-table 'c2sc' Capitales vers petites capitales dans Latin lookup 0" uni024F.sc
Colour: ffff
EndChar

StartChar: uni024F
Encoding: 591 591 565
Width: 1274
VWidth: 1000
Flags: HMW
LayerCount: 4
Fore
SplineSet
0 400 m 1
 0 446 0 594 0 640 c 1
 1274 640 l 5
 1274 400 l 5
 0 400 l 1
801 -158 m 1
 719 -384 610 -470 331 -470 c 0
 210 -470 120 -439 64 -415 c 1
 160 -95 l 1
 192 -127 271 -150 331 -150 c 0
 391 -150 445 -107 460 -44 c 1
 472 0 l 1
 106 1040 l 1
 490 1040 l 1
 666 404 l 1
 826 1040 l 1
 1210 1040 l 1
 855 0 l 1
 801 -158 l 1
EndSplineSet
Substitution2: "sous-table 'smcp' Bas-de-casse vers petites capitales dans Latin lookup 0" uni024F.sc
Colour: ff00
EndChar

StartChar: uni0250
Encoding: 592 592 566
Width: 1249
VWidth: 1000
Flags: HMW
LayerCount: 4
Fore
SplineSet
719 1080 m 0
 1025 1080 1199 915 1199 715 c 0
 1199 515 977 370 671 370 c 0
 401 370 251 505 251 705 c 1
 251 905 409 1080 719 1080 c 0
503 705 m 0
 503 665 571 650 671 650 c 0
 771 650 839 665 839 705 c 0
 839 745 771 760 671 760 c 0
 571 760 503 745 503 705 c 0
143 673 m 2
 143 733 107 792 35 792 c 9
 115 1080 l 1
 381 1060 503 868 503 803 c 9
 473 784 l 25
 473 622 l 25
 503 600 l 25
 503 392 l 17
 503 332 539 289 671 289 c 0
 897 289 987 355 987 355 c 1
 1151 84 l 1
 1151 84 957 -30 671 -30 c 0
 376 -30 143 72 143 422 c 1
 143 673 l 2
EndSplineSet
Substitution2: "'ss04' Simplified a and g lookups0-1" uni0250.ss04
Colour: ff00
EndChar

StartChar: uni0251
Encoding: 593 593 567
Width: 1250
VWidth: 1000
Flags: HMW
LayerCount: 4
Fore
SplineSet
820 510 m 0
 820 640 757 750 620 750 c 0
 483 750 410 650 410 520 c 0
 410 390 483 290 620 290 c 0
 751 290 820 380 820 510 c 0
1180 168 m 1
 1180 66 1204 0 1204 0 c 1
 856 0 l 1
 856 0 832 60 832 120 c 1
 832 80 705 -30 555 -30 c 0
 235 -30 50 200 50 520 c 0
 50 840 235 1070 555 1070 c 0
 705 1070 810 959 820 920 c 1
 820 1040 l 5
 1180 1040 l 5
 1180 168 l 1
EndSplineSet
Colour: ff00
EndChar

StartChar: uni0252
Encoding: 594 594 568
Width: 1250
VWidth: 1000
Flags: HMW
LayerCount: 4
Fore
SplineSet
430 530 m 0
 430 400 493 290 630 290 c 0
 767 290 840 390 840 520 c 0
 840 650 767 750 630 750 c 0
 499 750 430 660 430 530 c 0
70 872 m 1
 70 974 46 1040 46 1040 c 1
 394 1040 l 1
 394 1040 418 980 418 920 c 1
 418 960 545 1070 695 1070 c 0
 1015 1070 1200 840 1200 520 c 0
 1200 200 1015 -30 695 -30 c 0
 545 -30 440 81 430 120 c 1
 430 0 l 5
 70 0 l 5
 70 872 l 1
EndSplineSet
Colour: ff00
EndChar

StartChar: uni0253
Encoding: 595 595 569
Width: 1250
VWidth: 1000
Flags: HMW
LayerCount: 4
Fore
SplineSet
430 510 m 0
 430 380 499 290 630 290 c 0
 767 290 840 390 840 520 c 0
 840 650 767 750 630 750 c 0
 493 750 430 640 430 510 c 0
70 1106 m 4
 70 1356 265 1510 515 1510 c 4
 527 1510 539 1510 551 1509 c 5
 551 1183 l 5
 540 1188 528 1190 515 1190 c 4
 465 1190 430 1156 430 1106 c 4
 430 920 l 1
 440 959 545 1070 695 1070 c 0
 1015 1070 1200 840 1200 520 c 0
 1200 200 1015 -30 695 -30 c 0
 545 -30 418 80 418 120 c 1
 418 0 l 1
 70 0 l 1
 70 388 l 1
 70 588 70 1106 70 1106 c 4
EndSplineSet
Colour: ff00
EndChar

StartChar: uni0254
Encoding: 596 596 570
Width: 1137
VWidth: 1000
Flags: HMW
LayerCount: 4
Fore
SplineSet
727 520 m 4
 727 383 674 290 537 290 c 4
 433 290 378 344 357 430 c 5
 50 252 l 5
 138 79 316 -30 537 -30 c 4
 857 -30 1087 200 1087 520 c 4
 1087 840 857 1070 537 1070 c 0
 316 1070 138 961 50 788 c 1
 357 610 l 1
 378 696 433 750 537 750 c 0
 674 750 727 657 727 520 c 4
EndSplineSet
Colour: ff00
EndChar

StartChar: uni0255
Encoding: 597 597 571
Width: 1223
VWidth: 1000
Flags: HMW
LayerCount: 4
Fore
SplineSet
883 0 m 4
 863 0 620 0 600 0 c 4
 280 0 50 200 50 520 c 0
 50 840 280 1070 600 1070 c 0
 821 1070 999 961 1087 788 c 1
 780 610 l 1
 759 696 704 750 600 750 c 0
 463 750 410 657 410 520 c 0
 410 383 463 240 600 240 c 4
 620 240 863 240 883 240 c 4
 927 240 953 260 953 304 c 4
 953 348 907 368 863 368 c 4
 613 368 575 -171 575 -171 c 1
 325 -39 l 1
 325 -39 398 608 863 608 c 4
 1048 608 1223 507 1223 304 c 4
 1223 101 1088 0 883 0 c 4
EndSplineSet
Colour: ff00
EndChar

StartChar: uni0256
Encoding: 598 598 572
Width: 1301
VWidth: 1000
Flags: HMW
LayerCount: 4
Fore
SplineSet
1180 0 m 5
 1180 0 1180 66 1180 168 c 1
 1180 1480 l 1
 820 1480 l 1
 820 920 l 1
 810 959 705 1070 555 1070 c 0
 235 1070 50 840 50 520 c 0
 50 200 235 -30 555 -30 c 0
 705 -30 832 80 832 120 c 1
 832 0 l 5
 832 -250 1015 -404 1265 -404 c 4
 1277 -404 1289 -404 1301 -403 c 5
 1301 -77 l 5
 1290 -82 1278 -84 1265 -84 c 4
 1215 -84 1180 -50 1180 0 c 5
820 510 m 0
 820 380 751 290 620 290 c 0
 483 290 410 390 410 520 c 0
 410 650 483 750 620 750 c 0
 757 750 820 640 820 510 c 0
EndSplineSet
Colour: ff00
EndChar

StartChar: uni0257
Encoding: 599 599 573
Width: 1301
VWidth: 1000
Flags: HMW
LayerCount: 4
Fore
SplineSet
1180 1106 m 13
 1180 168 l 1
 1180 66 1204 0 1204 0 c 1
 856 0 l 1
 856 0 832 60 832 120 c 1
 832 80 705 -30 555 -30 c 0
 235 -30 50 200 50 520 c 0
 50 840 235 1070 555 1070 c 0
 705 1070 810 959 820 920 c 1
 820 1106 l 21
 820 1356 1015 1510 1265 1510 c 4
 1277 1510 1289 1510 1301 1509 c 5
 1301 1183 l 5
 1290 1188 1278 1190 1265 1190 c 4
 1215 1190 1180 1156 1180 1106 c 13
820 510 m 0
 820 640 757 750 620 750 c 0
 483 750 410 650 410 520 c 0
 410 390 483 290 620 290 c 0
 751 290 820 380 820 510 c 0
EndSplineSet
Colour: ff00
EndChar

StartChar: uni0258
Encoding: 600 600 574
Width: 1200
VWidth: 1000
Flags: HMW
LayerCount: 4
Fore
SplineSet
1024 660 m 1
 118 660 l 1
 420 400 l 5
 1024 400 l 1
 1024 660 l 1
411 368 m 1
 104 242 l 1
 196 65 378 -30 600 -30 c 0
 921 -30 1150 200 1150 520 c 0
 1150 840 920 1070 600 1070 c 0
 280 1070 50 840 50 520 c 0
 50 479 55 438 62 400 c 1
 420 400 l 1
 406 435 380 476 380 520 c 0
 380 657 463 750 600 750 c 0
 737 750 830 657 830 520 c 0
 830 390 738 290 600 290 c 0
 486 290 429 329 411 368 c 1
EndSplineSet
Colour: ff00
EndChar

StartChar: uni0259
Encoding: 601 601 575
Width: 1200
VWidth: 1000
Flags: HMW
LayerCount: 4
Fore
SplineSet
1024 380 m 1
 118 380 l 1
 420 640 l 5
 1024 640 l 1
 1024 380 l 1
411 672 m 1
 104 798 l 1
 196 975 378 1070 600 1070 c 0
 921 1070 1150 840 1150 520 c 0
 1150 200 920 -30 600 -30 c 0
 280 -30 50 200 50 520 c 0
 50 561 55 602 62 640 c 1
 420 640 l 1
 406 605 380 564 380 520 c 0
 380 383 463 290 600 290 c 0
 737 290 830 383 830 520 c 0
 830 650 738 750 600 750 c 0
 486 750 429 711 411 672 c 1
EndSplineSet
Colour: ff00
EndChar

StartChar: uni025A
Encoding: 602 602 576
Width: 1590
VWidth: 1000
Flags: HMW
LayerCount: 4
Fore
SplineSet
1180 684 m 5
 1439 843 l 5
 1439 793 1484 709 1554 709 c 4
 1567 709 1579 711 1590 716 c 5
 1590 390 l 5
 1578 389 1566 389 1554 389 c 4
 1362 389 1242 529 1180 684 c 5
307 290 m 5
 304 500 l 5
 356 553 l 5
 1439 843 l 5
 1417 668 l 5
 1480 604 l 5
 307 290 l 5
419 610 m 1
 112 788 l 1
 200 961 378 1070 599 1070 c 0
 919 1070 1149 840 1149 520 c 0
 1149 200 919 -30 599 -30 c 0
 294 -30 70 174 50 471 c 1
 356 553 l 4
 356 416 462 290 599 290 c 0
 736 290 789 383 789 520 c 0
 789 657 736 750 599 750 c 0
 495 750 440 696 419 610 c 1
EndSplineSet
Colour: ff00
EndChar

